<svg id="svg" version="1.1" xmlns="http://www.w3.org/2000/svg" xmlns:xlink="http://www.w3.org/1999/xlink" width="400" height="400" viewBox="0, 0, 400,400"><g id="svgg"><path id="path0" d="M174.000 105.200 C 174.000 105.733,174.267 106.000,174.800 106.000 C 175.240 106.000,175.600 106.191,175.600 106.424 C 175.600 106.657,175.780 106.736,176.000 106.600 C 176.220 106.464,176.400 106.655,176.400 107.025 C 176.400 107.569,176.512 107.605,176.982 107.215 C 177.569 106.728,178.400 106.950,178.400 107.594 C 178.400 107.785,178.085 108.024,177.700 108.124 C 177.144 108.270,177.175 108.317,177.851 108.354 C 178.319 108.379,178.922 108.665,179.190 108.988 C 179.459 109.312,180.044 109.537,180.491 109.488 C 180.992 109.434,181.346 109.662,181.414 110.080 C 181.583 111.128,183.469 112.825,184.168 112.557 C 184.786 112.320,186.000 113.223,186.000 113.921 C 186.000 114.129,187.484 115.807,189.299 117.650 C 191.113 119.492,192.553 121.135,192.499 121.300 C 192.444 121.465,192.681 121.600,193.024 121.600 C 193.367 121.600,193.536 121.780,193.400 122.000 C 193.264 122.220,193.444 122.400,193.800 122.400 C 194.156 122.400,194.336 122.580,194.200 122.800 C 194.064 123.020,194.244 123.200,194.600 123.200 C 194.987 123.200,195.133 123.385,194.962 123.662 C 194.805 123.916,194.839 124.028,195.038 123.912 C 195.782 123.476,196.945 124.288,197.086 125.341 C 197.242 126.509,199.362 128.800,200.286 128.800 C 200.677 128.800,200.773 129.056,200.593 129.623 C 200.309 130.515,201.629 132.000,202.705 132.000 C 203.124 132.000,203.217 132.276,203.038 132.991 C 202.832 133.811,202.961 134.025,203.783 134.231 C 204.488 134.409,204.751 134.723,204.688 135.316 C 204.632 135.844,204.943 136.326,205.535 136.630 C 206.117 136.928,206.304 137.212,206.029 137.382 C 205.428 137.753,205.872 138.371,207.066 138.825 C 207.815 139.110,207.992 139.394,207.800 140.000 C 207.654 140.459,207.728 140.800,207.973 140.800 C 208.208 140.800,208.400 141.131,208.400 141.536 C 208.400 141.940,208.836 142.470,209.369 142.713 C 210.076 143.035,210.279 143.376,210.122 143.977 C 209.994 144.465,210.099 144.800,210.380 144.800 C 210.672 144.800,210.756 145.107,210.600 145.600 C 210.454 146.059,210.528 146.400,210.773 146.400 C 211.008 146.400,211.200 146.676,211.200 147.013 C 211.200 147.349,211.473 147.730,211.807 147.858 C 212.141 147.986,212.374 148.296,212.324 148.546 C 212.167 149.341,213.668 152.000,214.274 152.000 C 214.634 152.000,214.829 152.345,214.784 152.900 C 214.744 153.395,214.745 153.890,214.786 154.000 C 214.828 154.110,214.919 154.470,214.989 154.800 C 215.059 155.130,215.180 155.670,215.258 156.000 C 215.336 156.330,215.800 156.961,216.288 157.402 C 216.907 157.961,217.105 158.477,216.941 159.102 C 216.766 159.772,216.879 160.000,217.385 160.000 C 217.926 160.000,218.012 160.236,217.808 161.162 C 217.662 161.828,217.734 162.435,217.977 162.586 C 218.209 162.729,218.400 163.377,218.400 164.024 C 218.400 164.671,218.580 165.200,218.800 165.200 C 219.020 165.200,219.200 165.650,219.200 166.200 C 219.200 166.783,219.430 167.200,219.751 167.200 C 220.170 167.200,220.252 167.646,220.092 169.060 C 219.941 170.399,220.011 170.841,220.341 170.636 C 220.661 170.439,220.800 170.913,220.800 172.200 C 220.800 173.330,220.955 173.951,221.200 173.800 C 221.442 173.651,221.600 174.196,221.600 175.176 C 221.600 176.194,221.772 176.763,222.061 176.700 C 222.376 176.632,222.494 177.332,222.432 178.900 C 222.365 180.625,222.479 181.200,222.890 181.200 C 223.316 181.200,223.400 181.790,223.269 183.846 C 223.158 185.598,223.259 186.589,223.568 186.780 C 224.192 187.166,224.240 212.520,223.618 212.727 C 223.377 212.808,223.200 214.135,223.200 215.857 C 223.200 217.896,223.063 218.762,222.768 218.580 C 222.475 218.399,222.372 218.992,222.448 220.430 C 222.522 221.809,222.393 222.602,222.080 222.707 C 221.816 222.795,221.600 223.392,221.600 224.033 C 221.600 224.694,221.383 225.205,221.100 225.212 C 220.825 225.219,220.919 225.410,221.308 225.637 C 221.698 225.864,221.911 226.221,221.781 226.431 C 221.651 226.641,221.350 226.693,221.111 226.545 C 220.815 226.362,220.748 226.800,220.901 227.939 C 221.071 229.204,220.990 229.600,220.562 229.600 C 220.233 229.600,220.000 230.005,220.000 230.576 C 220.000 231.113,219.820 231.664,219.600 231.800 C 219.380 231.936,219.200 232.667,219.200 233.424 C 219.200 234.181,219.020 234.800,218.800 234.800 C 218.580 234.800,218.400 235.441,218.400 236.224 C 218.400 237.071,218.238 237.547,218.000 237.400 C 217.780 237.264,217.600 237.523,217.600 237.976 C 217.600 238.429,217.420 238.800,217.200 238.800 C 216.980 238.800,216.800 239.340,216.800 240.000 C 216.800 240.660,216.600 241.200,216.355 241.200 C 216.087 241.200,215.980 241.680,216.085 242.400 C 216.193 243.135,216.085 243.600,215.805 243.600 C 215.555 243.600,215.102 244.230,214.800 245.000 C 214.498 245.770,214.104 246.400,213.925 246.400 C 213.746 246.400,213.596 246.805,213.591 247.300 C 213.586 247.795,213.245 248.639,212.833 249.175 C 212.420 249.712,212.173 250.385,212.283 250.672 C 212.393 250.959,212.194 251.304,211.842 251.439 C 211.489 251.575,211.200 251.936,211.200 252.243 C 211.200 252.549,211.037 252.800,210.837 252.800 C 210.638 252.800,210.569 253.160,210.684 253.600 C 210.801 254.047,210.696 254.400,210.447 254.400 C 210.201 254.400,210.000 254.760,210.000 255.200 C 210.000 255.640,209.808 256.000,209.573 256.000 C 209.328 256.000,209.254 256.341,209.401 256.802 C 209.570 257.335,209.445 257.685,209.028 257.845 C 208.682 257.977,208.400 258.347,208.400 258.666 C 208.400 258.986,208.220 259.136,208.000 259.000 C 207.780 258.864,207.600 259.033,207.600 259.376 C 207.600 259.719,207.422 260.000,207.205 260.000 C 206.987 260.000,206.852 260.404,206.905 260.899 C 206.976 261.571,206.764 261.831,206.065 261.931 C 205.327 262.037,205.176 262.248,205.348 262.935 C 205.515 263.599,205.287 263.965,204.388 264.481 C 203.526 264.976,203.279 265.352,203.468 265.879 C 203.611 266.275,203.585 266.471,203.411 266.314 C 202.952 265.899,201.386 268.040,201.529 268.885 C 201.598 269.292,201.406 269.600,201.084 269.600 C 200.051 269.600,198.041 271.872,198.277 272.774 C 198.425 273.341,198.303 273.600,197.887 273.600 C 197.553 273.600,196.656 274.224,195.893 274.987 C 195.131 275.749,194.378 276.244,194.220 276.087 C 194.062 275.929,193.993 276.070,194.067 276.400 C 194.140 276.732,193.964 276.951,193.670 276.890 C 193.379 276.830,193.255 276.965,193.394 277.190 C 193.533 277.416,193.322 277.603,192.924 277.606 C 192.397 277.611,192.339 277.701,192.714 277.938 C 193.001 278.120,193.112 278.563,192.967 278.942 C 192.751 279.505,192.599 279.533,192.078 279.110 C 191.542 278.675,191.490 278.707,191.724 279.330 C 192.026 280.135,191.052 281.403,190.428 281.017 C 190.219 280.888,189.864 281.102,189.637 281.492 C 189.410 281.881,189.219 282.055,189.212 281.877 C 189.191 281.304,184.400 286.426,184.400 287.023 C 184.400 287.624,184.364 287.643,182.912 287.796 C 182.043 287.888,179.600 290.135,179.600 290.842 C 179.600 291.039,179.239 291.200,178.797 291.200 C 178.356 291.200,177.602 291.651,177.123 292.203 C 176.478 292.944,176.167 293.074,175.932 292.703 C 175.704 292.345,175.610 292.409,175.606 292.924 C 175.603 293.322,175.420 293.536,175.200 293.400 C 174.980 293.264,174.800 293.343,174.800 293.576 C 174.800 293.809,174.418 294.000,173.951 294.000 C 173.236 294.000,173.182 294.096,173.608 294.609 C 174.027 295.114,174.008 295.178,173.497 294.982 C 173.158 294.852,172.762 294.938,172.617 295.173 C 172.472 295.408,172.023 295.600,171.619 295.600 C 170.879 295.600,170.400 296.342,170.400 297.488 C 170.400 298.006,170.800 298.075,172.773 297.896 C 174.586 297.732,175.196 297.813,175.360 298.240 C 175.667 299.041,196.000 299.077,196.000 298.277 C 196.000 297.872,196.816 297.793,199.617 297.927 C 202.477 298.063,203.209 297.989,203.117 297.570 C 203.026 297.160,203.657 297.066,205.900 297.156 C 207.797 297.232,208.800 297.121,208.800 296.836 C 208.800 296.596,209.415 296.400,210.167 296.400 C 210.918 296.400,211.606 296.182,211.695 295.915 C 211.798 295.606,212.521 295.471,213.688 295.543 C 214.695 295.605,215.637 295.463,215.783 295.228 C 215.928 294.992,216.757 294.800,217.624 294.800 C 218.491 294.800,219.200 294.620,219.200 294.400 C 219.200 294.180,219.541 294.000,219.957 294.000 C 220.374 294.000,220.820 293.726,220.948 293.390 C 221.116 292.954,221.483 292.856,222.234 293.044 C 222.934 293.220,223.403 293.123,223.637 292.754 C 223.851 292.416,223.990 292.380,223.994 292.662 C 224.001 293.191,225.991 292.434,225.997 291.900 C 225.999 291.735,226.431 291.600,226.957 291.600 C 227.484 291.600,228.017 291.332,228.143 291.004 C 228.321 290.541,228.600 290.496,229.400 290.800 C 230.200 291.104,230.479 291.059,230.657 290.596 C 230.783 290.268,231.226 290.000,231.643 290.000 C 232.059 290.000,232.400 289.833,232.400 289.629 C 232.400 289.425,232.940 289.327,233.600 289.410 C 234.260 289.494,234.800 289.391,234.800 289.181 C 234.800 288.971,235.050 288.800,235.356 288.800 C 235.661 288.800,235.886 288.485,235.856 288.100 C 235.816 287.600,236.057 287.427,236.700 287.495 C 237.195 287.548,237.600 287.409,237.600 287.188 C 237.600 286.956,238.031 286.893,238.613 287.039 C 239.358 287.226,239.819 287.069,240.360 286.447 C 240.763 285.981,241.488 285.600,241.971 285.600 C 242.453 285.600,242.736 285.420,242.600 285.200 C 242.464 284.980,242.614 284.800,242.934 284.800 C 243.253 284.800,243.617 284.533,243.742 284.207 C 243.872 283.869,244.235 283.715,244.585 283.850 C 244.991 284.005,245.200 283.853,245.200 283.399 C 245.200 282.867,245.424 282.770,246.200 282.964 C 246.750 283.102,247.200 283.053,247.200 282.854 C 247.200 282.656,247.573 282.396,248.030 282.276 C 248.486 282.157,248.961 281.673,249.084 281.200 C 249.260 280.528,249.516 280.392,250.254 280.578 C 250.785 280.711,251.200 280.636,251.200 280.408 C 251.200 280.183,251.454 280.000,251.764 280.000 C 252.075 280.000,252.793 279.448,253.361 278.774 C 253.928 278.100,254.550 277.645,254.743 277.765 C 255.093 277.981,256.230 276.953,256.471 276.200 C 256.542 275.980,256.897 275.840,257.261 275.888 C 257.624 275.937,258.141 275.712,258.410 275.388 C 258.678 275.065,259.191 274.797,259.549 274.794 C 260.075 274.789,260.094 274.720,259.649 274.439 C 258.838 273.925,259.484 273.110,260.339 273.567 C 261.044 273.945,262.403 272.650,263.398 270.653 C 263.625 270.199,264.438 269.649,265.205 269.432 C 266.513 269.062,267.647 268.301,267.614 267.814 C 267.606 267.696,267.645 267.636,267.700 267.681 C 267.922 267.861,273.016 262.578,272.890 262.300 C 272.814 262.135,273.044 262.000,273.400 262.000 C 273.756 262.000,273.935 261.818,273.798 261.596 C 273.307 260.802,274.051 259.684,275.811 258.571 C 276.886 257.892,277.600 257.143,277.600 256.694 C 277.600 256.284,278.154 255.482,278.831 254.913 C 279.639 254.232,279.995 253.624,279.868 253.139 C 279.748 252.679,279.887 252.400,280.237 252.400 C 280.547 252.400,280.800 252.209,280.800 251.976 C 280.800 251.743,280.980 251.664,281.200 251.800 C 281.420 251.936,281.600 251.749,281.600 251.384 C 281.600 251.019,282.159 250.199,282.842 249.560 C 283.526 248.922,283.858 248.400,283.581 248.400 C 283.304 248.400,283.465 248.064,283.939 247.653 C 284.412 247.242,284.800 246.612,284.800 246.253 C 284.800 245.894,284.992 245.600,285.227 245.600 C 285.462 245.600,285.547 245.264,285.417 244.853 C 285.252 244.333,285.487 243.904,286.190 243.443 C 286.745 243.079,287.200 242.516,287.200 242.191 C 287.200 241.866,287.374 241.600,287.587 241.600 C 287.801 241.600,287.871 241.330,287.745 241.000 C 287.606 240.638,287.743 240.400,288.091 240.400 C 288.407 240.400,288.687 240.175,288.712 239.900 C 288.895 237.881,289.369 236.000,289.695 236.000 C 289.910 236.000,289.978 235.720,289.847 235.377 C 289.703 235.002,290.003 234.388,290.604 233.831 C 291.169 233.308,291.600 232.462,291.600 231.878 C 291.600 231.311,291.797 230.725,292.038 230.577 C 292.278 230.428,292.391 229.863,292.287 229.322 C 292.171 228.712,292.309 228.256,292.649 228.126 C 292.952 228.009,293.200 227.484,293.200 226.957 C 293.200 226.431,293.404 226.000,293.653 226.000 C 293.950 226.000,294.032 225.450,293.891 224.399 C 293.730 223.203,293.833 222.709,294.298 222.449 C 294.748 222.197,294.852 221.758,294.673 220.863 C 294.491 219.954,294.597 219.530,295.072 219.264 C 295.568 218.986,295.667 218.517,295.498 217.251 C 295.325 215.965,295.406 215.600,295.864 215.600 C 296.338 215.600,296.435 215.004,296.362 212.521 C 296.302 210.470,296.427 209.391,296.736 209.288 C 297.435 209.055,297.391 193.600,296.692 193.600 C 296.314 193.600,296.223 192.837,296.336 190.600 C 296.463 188.082,296.387 187.600,295.863 187.600 C 295.348 187.600,295.279 187.248,295.475 185.600 C 295.669 183.961,295.600 183.600,295.094 183.600 C 294.604 183.600,294.521 183.269,294.691 182.000 C 294.856 180.767,294.772 180.400,294.322 180.400 C 293.896 180.400,293.788 180.062,293.923 179.146 C 294.053 178.260,293.914 177.784,293.451 177.525 C 292.996 177.270,292.871 176.858,293.041 176.179 C 293.229 175.430,293.128 175.200,292.612 175.200 C 292.070 175.200,291.988 174.963,292.200 174.000 C 292.402 173.078,292.323 172.800,291.857 172.800 C 291.387 172.800,291.302 172.484,291.477 171.400 C 291.625 170.491,291.546 170.000,291.252 170.000 C 291.004 170.000,290.800 169.730,290.800 169.400 C 290.800 169.070,290.600 168.800,290.356 168.800 C 290.085 168.800,289.976 168.257,290.076 167.400 C 290.194 166.386,290.084 166.000,289.677 166.000 C 289.329 166.000,289.207 165.759,289.356 165.370 C 289.489 165.024,289.327 164.469,288.995 164.138 C 288.664 163.807,288.495 163.370,288.620 163.168 C 288.745 162.965,288.554 162.800,288.197 162.800 C 287.728 162.800,287.617 162.576,287.800 162.000 C 287.946 161.541,287.872 161.200,287.627 161.200 C 287.392 161.200,287.200 160.930,287.200 160.600 C 287.200 160.270,287.041 160.000,286.847 160.000 C 286.652 160.000,286.400 159.642,286.285 159.205 C 286.171 158.767,285.590 158.224,284.995 157.998 C 284.048 157.638,283.981 157.505,284.457 156.928 C 284.881 156.414,284.891 156.233,284.500 156.102 C 284.225 156.009,284.000 155.617,284.000 155.231 C 284.000 154.845,283.554 154.325,283.008 154.076 C 282.376 153.789,282.099 153.408,282.244 153.030 C 282.373 152.693,282.036 152.000,281.467 151.431 C 280.914 150.878,280.346 150.060,280.204 149.613 C 280.062 149.166,279.778 148.778,279.573 148.750 C 279.368 148.722,278.975 148.677,278.700 148.648 C 278.425 148.620,278.196 148.175,278.190 147.659 C 278.185 147.143,277.870 146.494,277.490 146.217 C 277.111 145.939,276.800 145.507,276.800 145.256 C 276.800 145.005,276.446 144.800,276.014 144.800 C 275.140 144.800,274.400 143.701,274.400 142.403 C 274.400 141.935,274.220 141.664,274.000 141.800 C 273.780 141.936,273.600 141.867,273.600 141.647 C 273.600 140.714,264.760 132.485,263.978 132.690 C 263.477 132.821,263.200 132.691,263.200 132.325 C 263.200 131.446,260.551 129.059,259.973 129.417 C 259.653 129.615,259.578 129.559,259.762 129.262 C 259.942 128.970,259.744 128.800,259.224 128.800 C 258.742 128.800,258.400 128.539,258.400 128.171 C 258.400 127.426,257.403 126.331,257.048 126.686 C 256.911 126.822,256.800 126.704,256.800 126.424 C 256.800 126.144,256.562 126.006,256.271 126.117 C 255.981 126.229,255.529 125.978,255.268 125.560 C 255.007 125.142,254.447 124.800,254.024 124.800 C 253.600 124.800,253.140 124.440,253.000 124.000 C 252.860 123.560,252.481 123.200,252.156 123.200 C 251.832 123.200,251.180 122.840,250.708 122.400 C 250.236 121.960,249.613 121.600,249.325 121.600 C 249.036 121.600,248.800 121.400,248.800 121.157 C 248.800 120.883,248.416 120.810,247.800 120.964 C 247.062 121.149,246.800 121.056,246.800 120.608 C 246.800 120.261,246.446 120.000,245.976 120.000 C 245.523 120.000,245.254 119.836,245.379 119.635 C 245.503 119.434,245.064 119.030,244.402 118.737 C 243.741 118.444,243.200 118.069,243.200 117.902 C 243.200 117.736,242.840 117.600,242.400 117.600 C 241.960 117.600,241.600 117.420,241.600 117.200 C 241.600 116.980,241.229 116.800,240.776 116.800 C 240.323 116.800,240.064 116.620,240.200 116.400 C 240.340 116.173,240.004 116.000,239.424 116.000 C 238.861 116.000,238.400 115.820,238.400 115.600 C 238.400 115.380,237.860 115.200,237.200 115.200 C 236.540 115.200,236.000 115.026,236.000 114.813 C 236.000 114.599,235.713 114.535,235.362 114.670 C 234.956 114.826,234.382 114.516,233.784 113.821 C 233.002 112.911,232.639 112.772,231.622 112.995 C 230.848 113.165,230.400 113.105,230.400 112.832 C 230.400 112.594,230.130 112.400,229.800 112.400 C 229.470 112.400,229.200 112.130,229.200 111.800 C 229.200 111.470,229.065 111.231,228.900 111.268 C 228.078 111.456,224.712 110.637,224.548 110.209 C 224.441 109.929,223.942 109.799,223.385 109.905 C 222.756 110.025,222.328 109.879,222.180 109.493 C 222.000 109.022,221.639 108.967,220.475 109.235 C 219.309 109.504,218.899 109.441,218.517 108.934 C 218.174 108.479,217.681 108.364,216.817 108.537 C 215.865 108.727,215.600 108.640,215.600 108.137 C 215.600 107.618,215.292 107.536,214.000 107.709 C 212.731 107.879,212.400 107.796,212.400 107.306 C 212.400 106.800,212.039 106.731,210.400 106.925 C 208.745 107.121,208.400 107.053,208.400 106.532 C 208.400 106.010,208.012 105.933,206.163 106.086 C 204.527 106.222,203.870 106.128,203.720 105.736 C 203.572 105.351,202.627 105.200,200.357 105.200 C 198.519 105.200,197.200 105.033,197.200 104.800 C 197.200 104.543,193.067 104.400,185.600 104.400 C 174.267 104.400,174.000 104.418,174.000 105.200 " stroke="none" fill="#5c5464" fill-rule="evenodd"></path><path id="path1" d="M180.267 109.467 C 179.820 109.913,179.967 110.267,180.600 110.267 C 180.930 110.267,181.200 110.027,181.200 109.733 C 181.200 109.166,180.708 109.025,180.267 109.467 M230.656 112.278 C 230.205 112.728,230.381 113.200,231.000 113.200 C 231.330 113.200,231.600 113.031,231.600 112.824 C 231.600 112.319,230.975 111.958,230.656 112.278 M184.243 112.690 C 183.765 113.169,184.013 113.600,184.767 113.600 C 185.188 113.600,185.624 113.825,185.735 114.100 C 185.872 114.440,185.947 114.407,185.968 113.996 C 186.003 113.335,184.634 112.299,184.243 112.690 M234.196 114.007 C 234.060 114.226,234.238 114.517,234.592 114.652 C 235.453 114.983,235.643 114.714,234.981 114.104 C 234.639 113.789,234.352 113.753,234.196 114.007 M195.600 124.387 C 195.600 124.601,195.900 124.660,196.266 124.519 C 196.749 124.334,196.842 124.409,196.604 124.794 C 196.384 125.149,196.431 125.228,196.745 125.034 C 197.002 124.875,197.109 124.577,196.983 124.372 C 196.679 123.881,195.600 123.892,195.600 124.387 M199.600 129.400 C 199.600 129.767,199.793 130.002,200.030 129.923 C 200.267 129.845,200.460 129.609,200.460 129.400 C 200.460 129.191,200.267 128.956,200.030 128.877 C 199.793 128.798,199.600 129.033,199.600 129.400 M263.456 131.878 C 263.005 132.328,263.181 132.800,263.800 132.800 C 264.130 132.800,264.400 132.631,264.400 132.424 C 264.400 131.919,263.775 131.558,263.456 131.878 M274.400 143.124 C 274.400 143.746,275.537 144.996,275.834 144.699 C 275.999 144.535,275.923 144.400,275.667 144.400 C 275.410 144.400,275.200 144.040,275.200 143.600 C 275.200 143.160,275.020 142.800,274.800 142.800 C 274.580 142.800,274.400 142.946,274.400 143.124 M213.600 152.195 C 213.600 152.339,213.889 152.747,214.243 153.100 C 214.834 153.691,214.875 153.683,214.743 153.005 C 214.611 152.322,213.600 151.606,213.600 152.195 M216.092 158.075 C 216.291 158.673,217.200 159.002,217.200 158.476 C 217.200 158.261,216.915 157.976,216.567 157.843 C 216.177 157.693,215.994 157.782,216.092 158.075 M290.028 167.500 C 290.013 168.215,290.180 168.800,290.400 168.800 C 290.875 168.800,290.875 168.105,290.400 167.000 C 290.112 166.330,290.052 166.411,290.028 167.500 M219.277 167.630 C 219.356 167.867,219.591 168.060,219.800 168.060 C 220.009 168.060,220.245 167.867,220.323 167.630 C 220.402 167.394,220.167 167.200,219.800 167.200 C 219.433 167.200,219.198 167.394,219.277 167.630 M221.788 176.820 C 221.407 177.435,221.928 177.832,222.442 177.318 C 222.729 177.031,222.736 176.807,222.462 176.639 C 222.239 176.500,221.935 176.582,221.788 176.820 M294.000 179.800 C 294.000 180.130,294.180 180.400,294.400 180.400 C 294.620 180.400,294.800 180.130,294.800 179.800 C 294.800 179.470,294.620 179.200,294.400 179.200 C 294.180 179.200,294.000 179.470,294.000 179.800 M295.200 182.824 C 295.200 183.057,295.020 183.136,294.800 183.000 C 294.580 182.864,294.400 182.943,294.400 183.176 C 294.400 183.409,294.670 183.600,295.000 183.600 C 295.330 183.600,295.600 183.330,295.600 183.000 C 295.600 182.670,295.510 182.400,295.400 182.400 C 295.290 182.400,295.200 182.591,295.200 182.824 M296.000 186.824 C 296.000 187.057,295.820 187.136,295.600 187.000 C 295.380 186.864,295.200 186.943,295.200 187.176 C 295.200 187.409,295.470 187.600,295.800 187.600 C 296.130 187.600,296.400 187.330,296.400 187.000 C 296.400 186.670,296.310 186.400,296.200 186.400 C 296.090 186.400,296.000 186.591,296.000 186.824 M296.278 209.456 C 295.958 209.775,296.319 210.400,296.824 210.400 C 297.031 210.400,297.200 210.130,297.200 209.800 C 297.200 209.181,296.728 209.005,296.278 209.456 M293.778 222.835 C 293.631 223.074,293.736 223.479,294.014 223.735 C 294.400 224.091,294.451 224.083,294.235 223.700 C 294.080 223.425,294.143 223.200,294.376 223.200 C 294.609 223.200,294.800 223.020,294.800 222.800 C 294.800 222.266,294.116 222.289,293.778 222.835 M220.210 228.784 C 219.871 229.333,220.171 229.745,220.762 229.542 C 221.004 229.458,221.035 229.176,220.837 228.857 C 220.587 228.455,220.425 228.436,220.210 228.784 M289.800 235.200 C 289.946 235.659,289.872 236.000,289.627 236.000 C 289.392 236.000,289.200 236.492,289.200 237.094 C 289.200 238.179,289.206 238.177,289.953 236.794 C 290.368 236.027,290.547 235.340,290.351 235.266 C 290.155 235.192,290.097 234.967,290.221 234.766 C 290.345 234.565,290.244 234.400,289.997 234.400 C 289.728 234.400,289.649 234.723,289.800 235.200 M279.854 252.998 C 279.981 253.326,280.245 253.496,280.442 253.374 C 281.007 253.025,280.860 252.400,280.213 252.400 C 279.856 252.400,279.715 252.635,279.854 252.998 M273.994 260.011 C 273.310 261.289,273.747 261.846,274.514 260.675 C 274.898 260.090,275.028 259.541,274.816 259.410 C 274.609 259.282,274.239 259.553,273.994 260.011 M264.217 269.972 C 263.814 270.624,264.580 270.750,265.381 270.165 C 266.134 269.614,266.132 269.600,265.300 269.600 C 264.831 269.600,264.344 269.768,264.217 269.972 M197.455 273.000 C 197.582 273.330,197.846 273.600,198.043 273.600 C 198.239 273.600,198.400 273.330,198.400 273.000 C 198.400 272.670,198.136 272.400,197.813 272.400 C 197.455 272.400,197.315 272.635,197.455 273.000 M191.044 279.830 C 190.711 280.696,190.868 280.852,191.608 280.395 C 192.037 280.130,192.074 279.914,191.750 279.590 C 191.425 279.265,191.236 279.329,191.044 279.830 M249.200 280.967 C 249.200 281.315,249.485 281.600,249.833 281.600 C 250.540 281.600,250.417 280.739,249.675 280.492 C 249.414 280.405,249.200 280.618,249.200 280.967 M243.854 284.202 C 243.715 284.565,243.856 284.800,244.213 284.800 C 244.860 284.800,245.007 284.175,244.442 283.826 C 244.245 283.704,243.981 283.874,243.854 284.202 M184.000 286.800 C 184.000 287.020,183.604 287.200,183.120 287.200 C 182.515 287.200,182.369 287.329,182.653 287.613 C 183.183 288.143,184.400 287.686,184.400 286.957 C 184.400 286.651,184.310 286.400,184.200 286.400 C 184.090 286.400,184.000 286.580,184.000 286.800 M231.600 290.000 L 230.600 290.320 231.700 290.360 C 232.305 290.382,232.800 290.220,232.800 290.000 C 232.800 289.780,232.755 289.618,232.700 289.640 C 232.645 289.662,232.150 289.824,231.600 290.000 M196.000 298.233 C 196.000 298.582,196.214 298.795,196.475 298.708 C 197.217 298.461,197.340 297.600,196.633 297.600 C 196.285 297.600,196.000 297.885,196.000 298.233 " stroke="none" fill="#615c6c" fill-rule="evenodd"></path><path id="path2" d="M204.000 105.600 C 204.000 105.820,204.270 106.000,204.600 106.000 C 204.930 106.000,205.200 105.820,205.200 105.600 C 205.200 105.380,204.930 105.200,204.600 105.200 C 204.270 105.200,204.000 105.380,204.000 105.600 M219.390 108.784 C 219.532 109.013,220.117 109.200,220.690 109.200 C 221.944 109.200,221.799 109.008,220.266 108.640 C 219.523 108.462,219.221 108.511,219.390 108.784 M275.200 143.800 C 275.200 144.130,275.380 144.400,275.600 144.400 C 275.820 144.400,276.000 144.130,276.000 143.800 C 276.000 143.470,275.820 143.200,275.600 143.200 C 275.380 143.200,275.200 143.470,275.200 143.800 M293.200 176.600 C 293.200 176.930,293.380 177.200,293.600 177.200 C 293.820 177.200,294.000 176.930,294.000 176.600 C 294.000 176.270,293.820 176.000,293.600 176.000 C 293.380 176.000,293.200 176.270,293.200 176.600 M223.200 188.200 C 223.200 188.530,223.380 188.800,223.600 188.800 C 223.820 188.800,224.000 188.530,224.000 188.200 C 224.000 187.870,223.820 187.600,223.600 187.600 C 223.380 187.600,223.200 187.870,223.200 188.200 M223.200 211.800 C 223.200 212.130,223.380 212.400,223.600 212.400 C 223.820 212.400,224.000 212.130,224.000 211.800 C 224.000 211.470,223.820 211.200,223.600 211.200 C 223.380 211.200,223.200 211.470,223.200 211.800 M294.800 220.200 C 294.800 220.530,294.980 220.800,295.200 220.800 C 295.420 220.800,295.600 220.530,295.600 220.200 C 295.600 219.870,295.420 219.600,295.200 219.600 C 294.980 219.600,294.800 219.870,294.800 220.200 M290.538 234.213 C 290.279 234.765,290.241 235.200,290.450 235.200 C 290.895 235.200,291.334 234.195,291.138 233.626 C 291.062 233.406,290.792 233.670,290.538 234.213 M208.679 256.557 C 208.515 256.974,208.475 257.409,208.591 257.524 C 208.955 257.889,209.276 257.291,209.124 256.531 C 208.983 255.835,208.962 255.836,208.679 256.557 M204.400 263.400 C 204.400 263.730,204.580 264.000,204.800 264.000 C 205.020 264.000,205.200 263.730,205.200 263.400 C 205.200 263.070,205.020 262.800,204.800 262.800 C 204.580 262.800,204.400 263.070,204.400 263.400 M263.600 271.000 C 263.600 271.330,263.780 271.600,264.000 271.600 C 264.220 271.600,264.400 271.330,264.400 271.000 C 264.400 270.670,264.220 270.400,264.000 270.400 C 263.780 270.400,263.600 270.670,263.600 271.000 M221.200 293.600 C 221.200 293.820,221.470 294.000,221.800 294.000 C 222.130 294.000,222.400 293.820,222.400 293.600 C 222.400 293.380,222.130 293.200,221.800 293.200 C 221.470 293.200,221.200 293.380,221.200 293.600 M169.200 297.176 C 169.200 297.629,169.380 298.000,169.600 298.000 C 169.820 298.000,170.000 297.741,170.000 297.424 C 170.000 297.107,169.820 296.736,169.600 296.600 C 169.380 296.464,169.200 296.723,169.200 297.176 M203.200 297.600 C 203.200 297.820,203.470 298.000,203.800 298.000 C 204.130 298.000,204.400 297.820,204.400 297.600 C 204.400 297.380,204.130 297.200,203.800 297.200 C 203.470 297.200,203.200 297.380,203.200 297.600 " stroke="none" fill="#6c6474" fill-rule="evenodd"></path><path id="path3" d="" stroke="none" fill="#5c546c" fill-rule="evenodd"></path><path id="path4" d="" stroke="none" fill="#605464" fill-rule="evenodd"></path></g></svg>