<svg id="svg" version="1.1" xmlns="http://www.w3.org/2000/svg" xmlns:xlink="http://www.w3.org/1999/xlink" width="400" height="400" viewBox="0, 0, 400,400"><g id="svgg"><path id="path0" d="M310.267 43.867 C 309.836 44.297,309.959 44.667,310.533 44.667 C 310.827 44.667,311.067 44.427,311.067 44.133 C 311.067 43.559,310.697 43.436,310.267 43.867 M348.667 79.867 C 348.181 80.353,348.390 80.779,349.000 80.545 C 349.330 80.418,349.600 80.154,349.600 79.957 C 349.600 79.538,349.049 79.484,348.667 79.867 M195.942 85.900 C 155.670 85.991,150.056 86.076,149.855 86.602 C 149.715 86.965,149.855 87.200,150.213 87.200 C 150.937 87.200,151.013 89.047,150.300 89.335 C 150.025 89.446,150.225 89.551,150.745 89.568 C 151.563 89.596,151.667 89.762,151.515 90.800 C 151.389 91.659,151.502 92.000,151.915 92.000 C 152.327 92.000,152.441 92.341,152.315 93.200 C 152.188 94.063,152.302 94.400,152.719 94.400 C 153.151 94.400,153.239 94.707,153.060 95.600 C 152.873 96.533,152.962 96.800,153.460 96.800 C 153.957 96.800,154.047 97.067,153.861 97.996 C 153.695 98.826,153.772 99.163,154.111 99.096 C 154.400 99.039,154.583 99.409,154.558 99.998 C 154.534 100.547,154.789 101.196,155.123 101.440 C 155.495 101.713,155.625 102.158,155.458 102.593 C 155.283 103.048,155.439 103.489,155.893 103.826 C 156.490 104.270,156.522 104.480,156.097 105.176 C 155.650 105.908,155.689 106.000,156.447 106.000 C 157.181 106.000,157.267 106.167,157.060 107.200 C 156.876 108.122,156.964 108.400,157.442 108.400 C 157.925 108.400,158.005 108.668,157.800 109.600 C 157.590 110.557,157.671 110.800,158.200 110.800 C 158.729 110.800,158.810 111.043,158.600 112.000 C 158.388 112.965,158.469 113.200,159.015 113.200 C 159.536 113.200,159.627 113.409,159.409 114.100 C 159.253 114.595,159.060 115.540,158.980 116.200 C 158.840 117.361,158.845 117.364,159.118 116.311 C 159.330 115.491,159.542 115.311,159.977 115.582 C 160.441 115.872,160.464 116.141,160.095 116.952 C 159.721 117.771,159.737 117.922,160.177 117.754 C 160.960 117.453,161.264 118.179,160.831 119.317 C 160.524 120.126,160.577 120.293,161.129 120.251 C 161.609 120.214,161.770 120.471,161.695 121.153 C 161.636 121.697,161.893 122.328,162.295 122.626 C 162.860 123.043,162.901 123.247,162.500 123.653 C 161.836 124.327,161.867 124.800,162.576 124.800 C 163.415 124.800,163.697 125.471,163.228 126.348 C 162.895 126.970,162.971 127.151,163.639 127.326 C 164.323 127.505,164.388 127.675,164.030 128.344 C 163.455 129.418,163.471 129.473,164.430 129.724 C 165.123 129.905,165.189 130.073,164.830 130.744 C 164.251 131.825,164.267 131.872,165.293 132.140 C 166.001 132.325,166.084 132.476,165.693 132.867 C 165.053 133.507,165.057 134.429,165.700 134.300 C 166.006 134.239,166.194 134.627,166.184 135.300 C 166.175 135.939,166.384 136.400,166.684 136.400 C 167.449 136.400,167.309 137.897,166.500 138.368 C 165.902 138.717,165.960 138.777,166.900 138.788 C 168.091 138.801,168.418 139.822,167.520 140.720 C 167.147 141.093,167.243 141.200,167.952 141.200 C 168.757 141.200,168.833 141.341,168.600 142.400 C 168.390 143.357,168.471 143.600,169.000 143.600 C 169.529 143.600,169.610 143.843,169.400 144.800 C 169.188 145.763,169.270 146.000,169.812 146.000 C 170.324 146.000,170.429 146.231,170.246 146.958 C 170.079 147.626,170.199 147.991,170.645 148.162 C 171.090 148.333,171.212 148.698,171.045 149.362 C 170.879 150.026,171.000 150.391,171.445 150.562 C 171.900 150.736,172.013 151.096,171.835 151.804 C 171.651 152.538,171.745 152.800,172.192 152.800 C 172.916 152.800,172.999 154.041,172.320 154.720 C 171.947 155.093,172.045 155.200,172.763 155.200 C 173.551 155.200,173.649 155.349,173.434 156.209 C 173.257 156.912,173.363 157.288,173.782 157.448 C 174.176 157.600,174.349 158.115,174.282 158.940 L 174.180 160.200 138.790 160.400 C 105.795 160.586,103.495 160.644,104.800 161.247 C 107.330 162.415,109.077 164.247,108.520 165.148 C 108.105 165.820,108.166 165.955,108.979 166.159 C 110.369 166.508,113.804 169.746,113.428 170.354 C 113.258 170.629,112.852 170.752,112.526 170.627 C 112.162 170.487,111.999 170.592,112.104 170.900 C 112.198 171.175,112.618 171.351,113.039 171.292 C 114.361 171.104,118.046 174.706,116.874 175.042 C 116.001 175.292,116.040 175.358,117.555 176.219 C 120.707 178.010,122.306 180.037,121.332 181.010 C 120.672 181.671,120.679 181.692,121.468 181.442 C 122.884 180.993,126.473 184.582,125.424 185.397 C 124.728 185.937,124.719 186.000,125.340 186.000 C 126.068 186.000,126.108 186.025,128.500 188.028 C 130.224 189.471,130.334 189.840,129.147 190.217 C 128.521 190.415,128.432 190.572,128.811 190.807 C 129.095 190.982,129.524 191.050,129.765 190.958 C 130.344 190.736,134.400 194.300,134.400 195.031 C 134.400 195.344,134.130 195.600,133.800 195.600 C 133.470 195.600,133.200 195.770,133.200 195.977 C 133.200 196.184,133.536 196.289,133.946 196.210 C 134.390 196.125,135.444 196.720,136.546 197.678 C 138.408 199.296,138.917 200.400,137.800 200.400 C 137.470 200.400,137.200 200.588,137.200 200.818 C 137.200 201.047,137.515 201.182,137.900 201.118 C 138.285 201.053,138.561 201.207,138.514 201.459 C 138.466 201.711,138.736 201.846,139.114 201.758 C 140.071 201.536,142.373 203.765,142.658 205.192 C 142.789 205.843,143.193 206.471,143.558 206.587 C 145.515 207.208,147.707 210.400,146.176 210.400 C 145.859 210.400,145.600 210.595,145.600 210.833 C 145.600 211.072,145.825 211.186,146.100 211.088 C 147.404 210.623,151.942 214.540,150.666 215.030 C 149.895 215.326,149.757 216.049,150.500 215.900 C 150.775 215.845,150.957 216.019,150.905 216.286 C 150.852 216.554,151.060 216.675,151.369 216.557 C 151.900 216.353,153.227 217.273,154.857 218.975 C 155.766 219.924,155.777 220.166,154.952 220.991 C 154.354 221.589,154.377 221.622,155.252 221.419 C 155.973 221.252,156.606 221.574,157.900 222.769 C 159.684 224.415,160.028 225.200,158.967 225.200 C 158.002 225.200,158.520 226.128,159.526 226.202 C 160.303 226.259,160.882 226.662,163.107 228.697 C 163.729 229.265,163.430 230.000,162.576 230.000 C 162.259 230.000,162.000 230.180,162.000 230.400 C 162.000 230.620,162.135 230.779,162.300 230.753 C 163.258 230.601,164.040 230.931,165.246 231.994 C 165.991 232.650,166.729 233.190,166.886 233.194 C 167.655 233.211,168.095 234.941,167.451 235.412 C 166.632 236.011,166.604 236.450,167.404 236.143 C 167.935 235.939,170.020 237.219,171.500 238.657 C 172.176 239.314,172.131 240.000,171.413 240.000 C 171.066 240.000,170.916 240.236,171.046 240.575 C 171.167 240.891,171.496 241.061,171.777 240.953 C 172.216 240.785,173.773 241.834,175.480 243.449 C 175.744 243.699,176.070 244.341,176.204 244.875 C 176.338 245.409,176.915 246.196,177.486 246.623 C 180.533 248.904,181.431 250.400,179.753 250.400 C 179.423 250.400,179.272 250.592,179.417 250.827 C 179.562 251.062,179.963 251.146,180.308 251.014 C 180.654 250.881,181.040 250.919,181.168 251.097 C 181.296 251.275,182.171 252.021,183.113 252.754 C 184.590 253.904,185.037 255.888,183.621 255.013 C 183.463 254.915,183.333 255.105,183.333 255.435 C 183.333 255.797,183.565 255.945,183.919 255.810 C 185.184 255.324,189.228 259.174,188.892 260.544 C 188.776 261.015,188.814 261.280,188.975 261.133 C 189.272 260.861,189.894 261.297,192.127 263.342 C 193.270 264.388,193.317 264.525,192.687 264.986 C 191.801 265.634,191.807 266.096,192.700 265.922 C 193.410 265.783,193.940 266.119,196.160 268.114 L 197.400 269.228 196.518 269.850 C 195.446 270.608,196.051 271.556,197.438 271.291 C 198.060 271.172,198.800 271.590,199.959 272.714 C 201.672 274.376,202.017 275.200,201.000 275.200 C 200.670 275.200,200.400 275.380,200.400 275.600 C 200.400 275.820,200.805 276.003,201.300 276.006 C 202.291 276.013,205.604 278.704,205.601 279.500 C 205.601 279.775,205.330 280.000,205.000 280.000 C 204.670 280.000,204.400 280.180,204.400 280.400 C 204.400 280.620,204.825 280.800,205.344 280.800 C 206.464 280.800,210.000 283.935,210.000 284.928 C 210.000 285.298,209.820 285.600,209.600 285.600 C 209.380 285.600,209.200 285.390,209.200 285.133 C 209.200 284.877,209.084 284.782,208.943 284.924 C 208.550 285.317,209.591 286.378,210.156 286.161 C 211.020 285.830,214.504 289.193,213.967 289.840 C 213.715 290.143,213.350 290.293,213.155 290.172 C 212.960 290.051,212.800 290.143,212.800 290.376 C 212.800 290.609,213.232 290.800,213.759 290.800 C 215.344 290.800,218.667 294.015,217.765 294.675 C 216.960 295.264,217.221 295.693,218.502 295.888 C 219.684 296.069,222.838 299.435,222.544 300.203 C 222.419 300.529,222.127 300.679,221.896 300.536 C 221.657 300.388,221.595 300.467,221.751 300.721 C 221.902 300.965,222.257 301.076,222.540 300.968 C 223.081 300.760,226.800 303.797,226.800 304.447 C 226.800 304.655,226.424 304.965,225.965 305.135 C 225.171 305.428,225.165 305.473,225.842 306.022 C 226.281 306.379,226.439 306.408,226.253 306.100 C 225.675 305.137,226.885 305.609,228.820 307.100 C 230.976 308.762,231.181 309.175,230.000 309.484 C 229.560 309.599,229.200 309.775,229.200 309.875 C 229.200 310.248,230.313 311.154,230.518 310.949 C 231.088 310.379,235.200 313.655,235.200 314.678 C 235.200 314.965,234.930 315.200,234.600 315.200 C 234.270 315.200,234.000 315.391,234.000 315.625 C 234.000 315.859,234.357 315.994,234.794 315.925 C 236.523 315.653,240.053 319.298,238.600 319.855 C 238.270 319.982,238.000 320.241,238.000 320.430 C 238.000 320.620,238.255 320.677,238.568 320.557 C 238.880 320.437,239.600 320.644,240.168 321.016 C 241.119 321.639,241.200 321.640,241.200 321.033 C 241.200 320.671,241.470 320.271,241.800 320.145 C 242.778 319.769,242.483 319.295,241.400 319.502 C 240.190 319.733,239.959 318.098,241.048 317.010 C 241.404 316.653,241.574 316.241,241.426 316.093 C 241.278 315.944,241.006 316.066,240.823 316.363 C 240.232 317.318,239.497 316.391,239.726 314.980 C 239.876 314.057,239.769 313.597,239.370 313.444 C 238.676 313.178,238.619 311.541,239.280 310.880 C 239.653 310.507,239.564 310.400,238.880 310.400 C 237.902 310.400,237.694 309.319,238.414 307.974 C 238.760 307.327,238.695 307.200,238.014 307.200 C 237.103 307.200,236.918 306.075,237.614 304.774 C 237.960 304.127,237.895 304.000,237.214 304.000 C 236.321 304.000,236.197 303.385,236.783 301.845 C 237.092 301.031,237.055 300.881,236.586 301.061 C 235.792 301.365,235.399 300.159,235.921 299.014 C 236.285 298.216,236.227 298.048,235.524 297.864 C 234.643 297.634,234.764 295.716,235.697 295.140 C 235.935 294.993,235.696 294.811,235.165 294.736 C 234.180 294.597,233.969 293.755,234.569 292.353 C 234.765 291.894,234.591 291.639,233.971 291.476 C 233.313 291.305,233.170 291.068,233.393 290.524 C 234.080 288.852,234.055 288.508,233.231 288.292 C 232.320 288.054,232.440 286.984,233.471 286.145 C 233.928 285.773,233.808 285.611,232.820 285.267 C 231.593 284.839,231.509 284.195,232.511 282.900 C 232.793 282.536,232.668 282.400,232.049 282.400 C 230.985 282.400,230.895 281.000,231.889 279.902 C 232.268 279.483,232.403 279.175,232.189 279.218 C 230.966 279.460,230.400 279.138,230.400 278.200 C 230.400 277.578,230.627 277.200,231.000 277.200 C 231.330 277.200,231.600 276.930,231.600 276.600 C 231.600 276.270,231.465 276.021,231.300 276.047 C 230.118 276.234,229.600 275.915,229.600 275.000 C 229.600 274.378,229.827 274.000,230.200 274.000 C 230.530 274.000,230.800 273.809,230.800 273.576 C 230.800 273.343,230.620 273.264,230.400 273.400 C 230.180 273.536,230.000 273.457,230.000 273.224 C 230.000 272.991,229.786 272.845,229.524 272.900 C 228.729 273.067,228.656 271.494,229.433 270.926 C 229.829 270.637,230.029 270.377,229.876 270.350 C 229.724 270.322,229.420 270.255,229.200 270.200 C 228.980 270.145,228.620 270.078,228.400 270.050 C 227.755 269.969,227.941 268.328,228.689 267.502 C 229.354 266.767,229.339 266.750,228.239 267.026 C 227.125 267.306,227.103 267.280,227.268 265.867 C 227.385 264.866,227.262 264.356,226.867 264.204 C 226.460 264.048,226.362 263.588,226.524 262.593 C 226.701 261.498,226.615 261.200,226.122 261.200 C 225.621 261.200,225.538 260.878,225.709 259.600 C 225.879 258.336,225.795 258.000,225.311 258.000 C 224.820 258.000,224.749 257.682,224.954 256.400 C 225.165 255.079,225.095 254.800,224.552 254.800 C 224.028 254.800,223.940 254.524,224.117 253.431 C 224.281 252.422,224.178 252.000,223.725 251.827 C 223.287 251.659,223.165 251.219,223.300 250.299 C 223.431 249.406,223.291 248.862,222.845 248.536 C 222.310 248.145,222.277 247.860,222.652 246.867 C 223.049 245.816,223.012 245.644,222.352 245.472 C 221.423 245.229,221.380 244.107,222.262 243.131 C 222.888 242.440,222.866 242.400,221.862 242.400 C 220.707 242.400,220.553 241.902,221.190 240.226 C 221.532 239.327,221.476 239.200,220.743 239.200 C 219.887 239.200,219.843 238.479,220.591 236.700 C 220.818 236.162,220.691 236.000,220.043 236.000 C 218.983 236.000,218.950 235.050,219.976 234.024 C 220.743 233.257,220.740 233.247,219.679 233.124 C 218.284 232.963,218.105 231.916,219.278 230.778 C 219.785 230.285,220.020 229.978,219.800 230.094 C 218.122 230.983,217.113 228.537,218.683 227.389 C 219.141 227.054,219.079 226.961,218.365 226.907 C 217.060 226.809,216.650 226.228,217.183 225.232 C 217.434 224.762,217.811 224.483,218.020 224.612 C 218.229 224.742,218.400 224.674,218.400 224.463 C 218.400 224.251,217.873 223.895,217.229 223.670 C 215.998 223.241,215.853 221.600,217.047 221.600 C 217.351 221.600,217.600 221.409,217.600 221.176 C 217.600 220.943,217.420 220.864,217.200 221.000 C 216.980 221.136,216.800 221.057,216.800 220.824 C 216.800 220.591,216.530 220.400,216.200 220.400 C 215.827 220.400,215.600 220.022,215.600 219.400 C 215.600 218.778,215.827 218.400,216.200 218.400 C 216.530 218.400,216.800 218.220,216.800 218.000 C 216.800 217.780,216.446 217.600,216.013 217.600 C 215.477 217.600,215.299 217.408,215.455 217.000 C 215.657 216.473,219.758 216.400,249.019 216.400 C 267.353 216.400,282.429 216.265,282.521 216.100 C 283.151 214.977,283.171 213.600,282.558 213.600 C 282.040 213.600,281.951 213.344,282.140 212.400 C 282.320 211.501,282.232 211.200,281.790 211.200 C 281.080 211.200,281.009 209.951,281.680 209.280 C 282.053 208.907,281.953 208.800,281.230 208.800 C 280.410 208.800,280.328 208.658,280.540 207.600 C 280.727 206.667,280.638 206.400,280.140 206.400 C 279.642 206.400,279.553 206.133,279.740 205.200 C 279.927 204.267,279.838 204.000,279.340 204.000 C 278.842 204.000,278.753 203.733,278.940 202.800 C 279.126 201.869,279.037 201.600,278.543 201.600 C 278.083 201.600,277.959 201.328,278.094 200.620 C 278.209 200.021,278.071 199.559,277.741 199.433 C 277.010 199.152,277.053 197.631,277.800 197.345 C 278.130 197.218,278.400 196.918,278.400 196.677 C 278.400 196.385,278.241 196.399,277.920 196.720 C 277.656 196.984,277.206 197.200,276.920 197.200 C 276.155 197.200,276.287 195.571,277.099 194.977 C 277.496 194.687,277.645 194.321,277.445 194.133 C 277.250 193.950,277.010 194.025,276.912 194.300 C 276.585 195.215,275.600 194.840,275.600 193.800 C 275.600 193.178,275.827 192.800,276.200 192.800 C 276.530 192.800,276.800 192.617,276.800 192.392 C 276.800 192.157,276.377 192.091,275.800 192.236 C 274.704 192.511,274.243 190.691,275.300 190.265 C 275.575 190.154,275.375 190.049,274.855 190.032 C 274.020 190.004,273.932 189.847,274.099 188.704 C 274.231 187.807,274.091 187.260,273.645 186.928 C 273.097 186.521,273.079 186.320,273.523 185.593 C 273.988 184.832,273.952 184.713,273.193 184.514 C 272.542 184.344,272.394 184.078,272.567 183.387 C 272.721 182.776,272.587 182.404,272.155 182.238 C 271.710 182.067,271.588 181.702,271.755 181.038 C 271.920 180.380,271.800 180.009,271.370 179.844 C 270.946 179.681,270.830 179.336,271.009 178.773 C 271.185 178.218,271.044 177.774,270.586 177.439 C 270.021 177.026,269.982 176.782,270.363 176.068 C 270.743 175.360,270.720 175.200,270.238 175.200 C 269.373 175.200,269.102 174.530,269.596 173.608 C 269.939 172.967,269.906 172.800,269.438 172.800 C 268.573 172.800,268.302 172.130,268.796 171.208 C 269.164 170.520,269.107 170.400,268.414 170.400 C 267.171 170.400,267.455 168.830,268.800 168.270 C 269.229 168.092,269.171 168.031,268.600 168.056 C 266.889 168.133,266.708 168.021,266.954 167.042 C 267.118 166.388,267.001 166.009,266.587 165.850 C 266.163 165.688,266.056 165.314,266.234 164.609 C 266.390 163.985,266.318 163.600,266.043 163.600 C 265.800 163.600,265.600 162.970,265.600 162.200 C 265.600 161.425,265.398 160.800,265.148 160.800 C 264.854 160.800,264.775 160.309,264.923 159.400 C 265.101 158.301,265.016 158.000,264.525 158.000 C 264.044 158.000,263.955 157.724,264.140 156.800 C 264.327 155.867,264.238 155.600,263.740 155.600 C 263.242 155.600,263.153 155.333,263.340 154.400 C 263.527 153.467,263.438 153.200,262.940 153.200 C 262.443 153.200,262.353 152.933,262.539 152.004 C 262.705 151.174,262.628 150.837,262.289 150.904 C 262.008 150.959,261.800 150.574,261.800 150.000 C 261.800 149.450,261.547 148.802,261.238 148.560 C 260.910 148.303,260.769 147.762,260.900 147.260 C 261.057 146.659,260.942 146.400,260.517 146.400 C 260.069 146.400,259.956 146.084,260.085 145.200 C 260.206 144.381,260.093 144.000,259.731 144.000 C 259.000 144.000,259.059 142.429,259.800 142.145 C 260.803 141.760,260.469 141.167,259.400 141.436 C 258.530 141.654,258.400 141.555,258.400 140.673 C 258.400 140.043,258.666 139.589,259.100 139.476 C 259.531 139.363,259.377 139.275,258.700 139.246 C 257.411 139.192,257.154 137.900,258.300 137.232 C 258.893 136.887,258.825 136.822,257.850 136.812 C 256.795 136.801,256.719 136.704,256.933 135.636 C 257.101 134.794,256.992 134.406,256.537 134.231 C 255.931 133.999,255.944 133.487,256.599 131.895 C 256.816 131.369,256.737 131.249,256.285 131.423 C 255.516 131.718,255.177 131.175,255.459 130.097 C 255.609 129.524,255.889 129.331,256.339 129.491 C 256.703 129.621,256.871 129.584,256.713 129.410 C 256.555 129.235,256.015 129.067,255.513 129.037 C 254.803 128.995,254.623 128.773,254.705 128.039 C 254.762 127.520,254.514 126.879,254.154 126.616 C 253.620 126.225,253.585 125.976,253.963 125.268 C 254.343 124.560,254.320 124.400,253.838 124.400 C 252.986 124.400,252.700 123.734,253.172 122.852 C 253.504 122.232,253.430 122.049,252.774 121.877 C 252.133 121.710,252.021 121.455,252.227 120.633 C 252.431 119.823,252.339 119.600,251.800 119.600 C 251.275 119.600,251.170 119.374,251.354 118.642 C 251.517 117.993,251.401 117.609,250.997 117.454 C 250.169 117.136,250.251 116.310,251.216 115.275 C 252.052 114.378,251.745 114.015,250.880 114.880 C 250.533 115.227,250.279 115.239,249.963 114.923 C 249.434 114.394,250.220 112.641,250.820 113.012 C 251.029 113.142,251.200 112.967,251.200 112.624 C 251.200 112.281,251.020 112.000,250.800 112.000 C 250.580 112.000,250.400 112.180,250.400 112.400 C 250.400 112.915,249.322 112.921,249.005 112.408 C 248.701 111.916,249.530 110.309,249.953 110.571 C 250.126 110.678,250.267 110.506,250.267 110.189 C 250.267 109.757,250.134 109.722,249.738 110.051 C 249.448 110.292,248.941 110.386,248.612 110.260 C 247.918 109.994,248.217 108.849,249.168 108.138 C 249.668 107.763,249.567 107.717,248.632 107.896 C 247.481 108.116,247.479 108.114,247.744 106.458 C 247.962 105.098,247.895 104.800,247.373 104.800 C 246.874 104.800,246.793 104.541,247.000 103.600 C 247.212 102.633,247.131 102.400,246.582 102.400 C 246.038 102.400,245.948 102.158,246.139 101.204 C 246.305 100.374,246.228 100.037,245.889 100.104 C 245.600 100.161,245.417 99.791,245.442 99.202 C 245.466 98.653,245.213 98.005,244.880 97.762 C 244.512 97.492,244.363 96.984,244.500 96.460 C 244.657 95.859,244.542 95.600,244.117 95.600 C 243.669 95.600,243.556 95.284,243.685 94.400 C 243.811 93.541,243.698 93.200,243.285 93.200 C 242.873 93.200,242.759 92.859,242.885 92.000 C 243.006 91.181,242.893 90.800,242.531 90.800 C 241.869 90.800,241.835 89.525,242.480 88.880 C 242.853 88.507,242.764 88.400,242.080 88.400 C 241.018 88.400,240.910 87.383,241.862 86.331 C 242.226 85.929,242.361 85.644,242.162 85.698 C 241.963 85.752,221.164 85.843,195.942 85.900 M284.000 216.800 C 284.000 217.240,284.141 217.600,284.314 217.600 C 284.487 217.600,284.629 217.240,284.629 216.800 C 284.629 216.360,284.487 216.000,284.314 216.000 C 284.141 216.000,284.000 216.360,284.000 216.800 M242.400 323.200 C 242.400 323.640,242.184 324.000,241.920 324.000 C 241.568 324.000,241.558 324.118,241.885 324.445 C 242.130 324.690,242.526 324.769,242.765 324.622 C 243.311 324.284,243.341 322.400,242.800 322.400 C 242.580 322.400,242.400 322.760,242.400 323.200 " stroke="none" fill="#fcd404" fill-rule="evenodd"></path><path id="path1" d="M182.800 9.800 C 182.800 10.130,182.980 10.400,183.200 10.400 C 183.420 10.400,183.600 10.130,183.600 9.800 C 183.600 9.470,183.420 9.200,183.200 9.200 C 182.980 9.200,182.800 9.470,182.800 9.800 M238.217 12.772 C 237.944 13.214,238.575 13.692,238.944 13.322 C 239.325 12.942,239.254 12.400,238.824 12.400 C 238.617 12.400,238.344 12.568,238.217 12.772 M157.677 13.630 C 157.756 13.867,157.991 14.060,158.200 14.060 C 158.409 14.060,158.644 13.867,158.723 13.630 C 158.802 13.394,158.567 13.200,158.200 13.200 C 157.833 13.200,157.598 13.394,157.677 13.630 M142.800 17.600 C 142.800 17.820,143.070 18.000,143.400 18.000 C 143.730 18.000,144.000 17.820,144.000 17.600 C 144.000 17.380,143.730 17.200,143.400 17.200 C 143.070 17.200,142.800 17.380,142.800 17.600 M133.600 20.600 C 133.600 20.930,133.780 21.200,134.000 21.200 C 134.220 21.200,134.400 20.930,134.400 20.600 C 134.400 20.270,134.220 20.000,134.000 20.000 C 133.780 20.000,133.600 20.270,133.600 20.600 M129.600 22.200 C 129.600 22.567,129.793 22.802,130.030 22.723 C 130.267 22.645,130.460 22.409,130.460 22.200 C 130.460 21.991,130.267 21.756,130.030 21.677 C 129.793 21.598,129.600 21.833,129.600 22.200 M278.800 26.200 C 278.800 26.567,278.993 26.802,279.230 26.723 C 279.466 26.645,279.660 26.409,279.660 26.200 C 279.660 25.991,279.466 25.756,279.230 25.677 C 278.993 25.598,278.800 25.833,278.800 26.200 M118.678 26.656 C 118.358 26.975,118.719 27.600,119.224 27.600 C 119.431 27.600,119.600 27.330,119.600 27.000 C 119.600 26.381,119.128 26.205,118.678 26.656 M93.600 41.000 C 93.600 41.367,93.794 41.602,94.030 41.523 C 94.267 41.445,94.460 41.209,94.460 41.000 C 94.460 40.791,94.267 40.556,94.030 40.477 C 93.794 40.398,93.600 40.633,93.600 41.000 M334.800 65.000 C 336.282 66.529,336.400 66.601,336.400 65.982 C 336.400 65.398,334.542 63.600,333.940 63.600 C 333.667 63.600,334.054 64.230,334.800 65.000 M51.417 79.172 C 51.144 79.614,51.775 80.092,52.144 79.722 C 52.525 79.342,52.454 78.800,52.024 78.800 C 51.817 78.800,51.544 78.968,51.417 79.172 M46.188 86.020 C 45.807 86.635,46.328 87.032,46.842 86.518 C 47.129 86.231,47.136 86.007,46.862 85.839 C 46.639 85.700,46.335 85.782,46.188 86.020 M42.060 91.580 C 42.148 91.844,42.351 92.047,42.510 92.030 C 42.988 91.981,42.896 91.432,42.380 91.260 C 42.116 91.172,41.972 91.316,42.060 91.580 M40.477 94.030 C 40.556 94.267,40.791 94.460,41.000 94.460 C 41.209 94.460,41.445 94.267,41.523 94.030 C 41.602 93.794,41.367 93.600,41.000 93.600 C 40.633 93.600,40.398 93.794,40.477 94.030 M26.656 118.678 C 26.205 119.128,26.381 119.600,27.000 119.600 C 27.330 119.600,27.600 119.431,27.600 119.224 C 27.600 118.719,26.975 118.358,26.656 118.678 M21.677 130.030 C 21.756 130.267,21.991 130.460,22.200 130.460 C 22.409 130.460,22.645 130.267,22.723 130.030 C 22.802 129.793,22.567 129.600,22.200 129.600 C 21.833 129.600,21.598 129.793,21.677 130.030 M20.000 134.000 C 20.000 134.220,20.270 134.400,20.600 134.400 C 20.930 134.400,21.200 134.220,21.200 134.000 C 21.200 133.780,20.930 133.600,20.600 133.600 C 20.270 133.600,20.000 133.780,20.000 134.000 M258.000 135.000 C 258.000 135.330,257.820 135.600,257.600 135.600 C 257.380 135.600,257.200 135.780,257.200 136.000 C 257.200 136.220,257.470 136.400,257.800 136.400 C 258.173 136.400,258.400 136.022,258.400 135.400 C 258.400 134.850,258.310 134.400,258.200 134.400 C 258.090 134.400,258.000 134.670,258.000 135.000 M19.439 135.938 C 19.300 136.161,19.382 136.465,19.620 136.612 C 20.235 136.993,20.632 136.472,20.118 135.958 C 19.831 135.671,19.607 135.664,19.439 135.938 M103.600 159.400 C 103.600 159.730,103.870 160.000,104.200 160.000 C 104.530 160.000,104.800 159.821,104.800 159.602 C 104.800 159.342,116.698 159.168,139.100 159.100 L 173.400 158.995 138.500 158.898 C 107.701 158.811,103.600 158.871,103.600 159.400 M106.800 163.829 C 106.800 164.427,107.962 165.185,108.226 164.758 C 108.378 164.512,108.254 164.153,107.951 163.961 C 107.314 163.558,106.800 163.499,106.800 163.829 M266.617 164.772 C 266.344 165.214,266.975 165.692,267.344 165.322 C 267.725 164.942,267.654 164.400,267.224 164.400 C 267.017 164.400,266.744 164.568,266.617 164.772 M110.400 168.626 C 110.400 169.385,112.198 170.480,112.335 169.805 C 112.410 169.438,112.410 169.084,112.335 169.018 C 111.973 168.700,110.400 168.381,110.400 168.626 M114.400 173.405 C 114.400 174.173,116.621 175.413,116.974 174.843 C 117.142 174.571,116.577 174.186,114.700 173.295 C 114.535 173.217,114.400 173.266,114.400 173.405 M389.078 174.256 C 388.758 174.575,389.119 175.200,389.624 175.200 C 389.831 175.200,390.000 174.930,390.000 174.600 C 390.000 173.981,389.528 173.805,389.078 174.256 M119.200 178.629 C 119.200 178.754,119.479 179.136,119.819 179.476 C 120.589 180.247,121.099 179.843,120.408 179.010 C 119.909 178.408,119.200 178.184,119.200 178.629 M123.200 183.429 C 123.200 183.906,124.427 184.858,124.857 184.714 C 125.145 184.618,125.062 184.319,124.625 183.882 C 123.958 183.215,123.200 182.974,123.200 183.429 M274.493 186.000 C 274.493 186.770,274.575 187.085,274.676 186.700 C 274.776 186.315,274.776 185.685,274.676 185.300 C 274.575 184.915,274.493 185.230,274.493 186.000 M127.600 189.024 C 127.600 189.367,127.765 189.545,127.966 189.421 C 128.167 189.297,128.403 189.408,128.489 189.668 C 128.576 189.929,128.863 190.008,129.127 189.845 C 129.489 189.621,129.466 189.408,129.032 188.974 C 128.277 188.220,127.600 188.243,127.600 189.024 M132.093 194.000 C 132.646 194.886,133.027 195.003,133.400 194.400 C 133.536 194.180,133.367 194.000,133.024 194.000 C 132.681 194.000,132.400 193.820,132.400 193.600 C 132.400 193.380,132.218 193.200,131.997 193.200 C 131.757 193.200,131.797 193.526,132.093 194.000 M135.600 198.272 C 135.600 198.609,137.259 200.000,137.661 200.000 C 138.371 200.000,137.948 199.373,136.797 198.719 C 136.139 198.344,135.600 198.143,135.600 198.272 M140.257 203.805 C 140.383 204.132,140.619 204.400,140.782 204.400 C 140.945 204.400,141.273 204.805,141.512 205.300 L 141.946 206.200 141.973 205.271 C 142.000 204.327,141.366 203.477,140.505 203.305 C 140.233 203.250,140.127 203.465,140.257 203.805 M144.000 208.229 C 144.000 208.596,144.943 209.423,145.680 209.702 C 146.166 209.886,146.296 209.795,146.137 209.380 C 146.014 209.061,145.664 208.800,145.357 208.800 C 145.051 208.800,144.800 208.620,144.800 208.400 C 144.800 208.180,144.620 208.000,144.400 208.000 C 144.180 208.000,144.000 208.103,144.000 208.229 M148.800 213.957 C 148.800 214.401,150.031 214.903,150.346 214.588 C 150.473 214.461,150.312 214.189,149.988 213.984 C 149.240 213.511,148.800 213.501,148.800 213.957 M216.000 217.200 C 216.000 217.463,227.467 217.600,249.600 217.600 C 271.733 217.600,283.200 217.463,283.200 217.200 C 283.200 216.937,271.733 216.800,249.600 216.800 C 227.467 216.800,216.000 216.937,216.000 217.200 M153.293 219.200 C 153.873 220.129,154.400 220.244,154.400 219.443 C 154.400 219.136,154.115 218.776,153.767 218.643 C 152.804 218.273,152.752 218.334,153.293 219.200 M156.680 223.464 C 156.792 223.756,157.045 223.896,157.242 223.774 C 157.439 223.652,157.600 223.833,157.600 224.176 C 157.600 224.537,157.943 224.800,158.414 224.800 C 159.204 224.800,159.201 224.773,158.314 223.869 C 157.318 222.855,156.354 222.616,156.680 223.464 M161.638 229.100 C 161.933 229.485,162.213 229.863,162.260 229.940 C 162.308 230.017,162.540 229.961,162.776 229.815 C 163.278 229.504,162.344 228.400,161.580 228.400 C 161.232 228.400,161.248 228.590,161.638 229.100 M388.077 230.830 C 388.156 231.067,388.391 231.260,388.600 231.260 C 388.809 231.260,389.045 231.067,389.123 230.830 C 389.202 230.594,388.967 230.400,388.600 230.400 C 388.233 230.400,387.998 230.594,388.077 230.830 M165.200 233.429 C 165.200 233.725,166.275 234.800,166.571 234.800 C 167.089 234.800,166.752 233.667,166.167 233.443 C 165.381 233.141,165.200 233.138,165.200 233.429 M12.588 238.420 C 12.207 239.035,12.728 239.432,13.242 238.918 C 13.529 238.631,13.536 238.407,13.262 238.239 C 13.039 238.100,12.735 238.182,12.588 238.420 M169.688 238.792 C 170.209 239.626,171.172 240.162,171.521 239.812 C 171.763 239.571,170.041 238.000,169.535 238.000 C 169.347 238.000,169.416 238.357,169.688 238.792 M174.000 243.600 C 174.000 243.820,174.152 244.000,174.339 244.000 C 174.525 244.000,174.873 244.405,175.112 244.900 C 175.476 245.654,175.550 245.682,175.573 245.071 C 175.588 244.671,175.343 244.086,175.029 243.771 C 174.358 243.101,174.000 243.042,174.000 243.600 M222.500 244.265 C 221.804 244.546,221.873 245.200,222.600 245.200 C 222.930 245.200,223.200 244.930,223.200 244.600 C 223.200 244.270,223.155 244.014,223.100 244.032 C 223.045 244.049,222.775 244.154,222.500 244.265 M177.860 248.308 C 177.762 248.469,178.114 248.923,178.641 249.319 C 179.330 249.835,179.600 249.890,179.600 249.515 C 179.600 248.904,178.121 247.879,177.860 248.308 M224.400 249.600 C 224.400 250.040,224.220 250.400,224.000 250.400 C 223.371 250.400,223.533 251.489,224.200 251.745 C 224.671 251.925,224.800 251.634,224.800 250.387 C 224.800 249.514,224.710 248.800,224.600 248.800 C 224.490 248.800,224.400 249.160,224.400 249.600 M181.623 253.073 C 182.608 254.355,183.545 254.988,183.914 254.619 C 184.024 254.509,183.883 254.141,183.600 253.800 C 183.317 253.459,182.990 253.277,182.873 253.394 C 182.755 253.511,182.206 253.201,181.652 252.704 L 180.645 251.800 181.623 253.073 M382.000 257.400 C 382.000 257.767,382.194 258.002,382.430 257.923 C 382.667 257.845,382.860 257.609,382.860 257.400 C 382.860 257.191,382.667 256.955,382.430 256.877 C 382.194 256.798,382.000 257.033,382.000 257.400 M186.751 258.840 C 187.247 259.302,187.752 259.581,187.874 259.459 C 188.178 259.155,186.974 258.000,186.353 258.000 C 186.074 258.000,186.252 258.375,186.751 258.840 M226.000 260.200 C 226.000 260.530,226.180 260.800,226.400 260.800 C 226.620 260.800,226.800 260.530,226.800 260.200 C 226.800 259.870,226.620 259.600,226.400 259.600 C 226.180 259.600,226.000 259.870,226.000 260.200 M191.357 264.233 C 191.491 264.581,191.600 265.038,191.600 265.248 C 191.600 265.459,191.843 265.405,192.140 265.127 C 192.578 264.718,192.584 264.527,192.169 264.111 C 191.467 263.409,191.064 263.470,191.357 264.233 M194.999 268.799 C 195.744 269.622,196.800 269.880,196.800 269.239 C 196.800 269.041,196.232 268.680,195.537 268.438 C 194.290 268.003,194.283 268.008,194.999 268.799 M199.600 274.233 C 199.600 274.582,199.814 274.795,200.075 274.708 C 200.817 274.461,200.940 273.600,200.233 273.600 C 199.885 273.600,199.600 273.885,199.600 274.233 M374.860 275.980 C 374.948 276.244,375.150 276.447,375.310 276.430 C 375.788 276.381,375.696 275.832,375.180 275.660 C 374.916 275.572,374.772 275.716,374.860 275.980 M203.600 278.757 C 203.600 278.954,203.885 279.224,204.233 279.357 C 205.211 279.733,205.341 279.651,204.800 279.000 C 204.248 278.335,203.600 278.204,203.600 278.757 M207.600 283.429 C 207.600 283.554,207.857 283.914,208.171 284.229 C 208.892 284.949,209.200 284.953,209.200 284.243 C 209.200 283.936,208.915 283.576,208.567 283.443 C 207.781 283.141,207.600 283.138,207.600 283.429 M211.200 288.229 C 211.200 288.647,212.191 289.398,212.900 289.518 C 213.765 289.663,213.783 289.440,212.971 288.629 C 212.365 288.022,211.200 287.759,211.200 288.229 M216.000 293.429 C 216.000 293.554,216.249 293.906,216.552 294.210 C 217.236 294.893,217.761 294.476,217.148 293.737 C 216.697 293.194,216.000 293.007,216.000 293.429 M235.439 296.738 C 235.300 296.961,235.382 297.265,235.620 297.412 C 236.235 297.793,236.632 297.272,236.118 296.758 C 235.831 296.471,235.607 296.464,235.439 296.738 M220.493 298.800 C 221.073 299.729,221.600 299.844,221.600 299.043 C 221.600 298.736,221.315 298.376,220.967 298.243 C 220.004 297.873,219.952 297.934,220.493 298.800 M236.278 299.856 C 235.958 300.175,236.319 300.800,236.824 300.800 C 237.031 300.800,237.200 300.530,237.200 300.200 C 237.200 299.581,236.728 299.405,236.278 299.856 M37.200 301.200 C 37.200 301.420,37.470 301.600,37.800 301.600 C 38.130 301.600,38.400 301.420,38.400 301.200 C 38.400 300.980,38.130 300.800,37.800 300.800 C 37.470 300.800,37.200 300.980,37.200 301.200 M237.239 302.953 C 236.885 303.380,236.919 303.560,237.390 303.741 C 237.809 303.902,238.000 303.729,238.000 303.187 C 238.000 302.255,237.855 302.210,237.239 302.953 M224.694 303.945 C 225.185 304.799,225.472 304.978,225.825 304.648 C 226.185 304.311,226.105 304.038,225.488 303.503 C 224.287 302.461,223.951 302.649,224.694 303.945 M238.100 305.865 C 237.404 306.146,237.473 306.800,238.200 306.800 C 238.530 306.800,238.800 306.530,238.800 306.200 C 238.800 305.870,238.755 305.614,238.700 305.632 C 238.645 305.649,238.375 305.754,238.100 305.865 M228.789 308.778 C 229.333 309.196,229.919 309.450,230.092 309.343 C 230.575 309.045,229.350 307.999,228.529 308.009 C 227.913 308.016,227.953 308.135,228.789 308.778 M238.656 309.078 C 238.205 309.528,238.381 310.000,239.000 310.000 C 239.330 310.000,239.600 309.831,239.600 309.624 C 239.600 309.119,238.975 308.758,238.656 309.078 M43.660 310.380 C 43.832 310.896,44.381 310.988,44.430 310.510 C 44.447 310.351,44.244 310.148,43.980 310.060 C 43.716 309.972,43.572 310.116,43.660 310.380 M239.200 312.600 C 239.200 312.930,239.380 313.200,239.600 313.200 C 239.820 313.200,240.000 312.930,240.000 312.600 C 240.000 312.270,239.820 312.000,239.600 312.000 C 239.380 312.000,239.200 312.270,239.200 312.600 M232.400 313.029 C 232.400 313.453,233.636 314.497,233.867 314.267 C 233.992 314.141,233.817 313.760,233.476 313.419 C 232.841 312.784,232.400 312.624,232.400 313.029 M240.000 315.600 C 240.000 315.820,240.270 316.000,240.600 316.000 C 240.930 316.000,241.200 315.820,241.200 315.600 C 241.200 315.380,240.930 315.200,240.600 315.200 C 240.270 315.200,240.000 315.380,240.000 315.600 M236.700 317.865 C 236.975 317.976,237.200 318.302,237.200 318.591 C 237.200 319.134,238.363 319.770,238.714 319.419 C 238.969 319.164,237.130 317.621,236.600 317.645 C 236.380 317.655,236.425 317.754,236.700 317.865 M241.383 322.125 C 240.983 323.719,241.413 324.374,242.017 323.089 C 242.401 322.271,242.421 321.861,242.091 321.531 C 241.762 321.202,241.576 321.358,241.383 322.125 M345.200 323.800 C 345.200 324.167,345.394 324.402,345.630 324.323 C 345.867 324.245,346.060 324.009,346.060 323.800 C 346.060 323.591,345.867 323.356,345.630 323.277 C 345.394 323.198,345.200 323.433,345.200 323.800 M338.283 331.363 C 337.062 332.412,336.929 332.800,337.791 332.800 C 338.378 332.800,339.864 330.931,339.537 330.604 C 339.443 330.509,338.878 330.851,338.283 331.363 M63.600 333.984 C 63.600 334.430,65.642 336.400,66.106 336.400 C 66.278 336.400,65.846 335.770,65.145 335.000 C 63.784 333.504,63.600 333.383,63.600 333.984 M331.323 338.297 C 330.841 338.892,330.520 339.453,330.610 339.544 C 330.933 339.866,332.800 338.371,332.800 337.791 C 332.800 336.914,332.307 337.083,331.323 338.297 M323.277 345.630 C 323.356 345.867,323.591 346.060,323.800 346.060 C 324.009 346.060,324.245 345.867,324.323 345.630 C 324.402 345.394,324.167 345.200,323.800 345.200 C 323.433 345.200,323.198 345.394,323.277 345.630 M89.039 355.538 C 88.900 355.761,88.982 356.065,89.220 356.212 C 89.835 356.593,90.232 356.072,89.718 355.558 C 89.431 355.271,89.207 355.264,89.039 355.538 M307.039 357.938 C 306.900 358.161,306.982 358.465,307.220 358.612 C 307.835 358.993,308.232 358.472,307.718 357.958 C 307.431 357.671,307.207 357.664,307.039 357.938 M106.000 366.800 C 106.000 367.020,106.270 367.200,106.600 367.200 C 106.930 367.200,107.200 367.020,107.200 366.800 C 107.200 366.580,106.930 366.400,106.600 366.400 C 106.270 366.400,106.000 366.580,106.000 366.800 M121.878 374.256 C 121.558 374.575,121.919 375.200,122.424 375.200 C 122.631 375.200,122.800 374.930,122.800 374.600 C 122.800 373.981,122.328 373.805,121.878 374.256 M275.660 375.180 C 275.832 375.696,276.381 375.788,276.430 375.310 C 276.447 375.150,276.244 374.948,275.980 374.860 C 275.716 374.772,275.572 374.916,275.660 375.180 M131.200 378.600 C 131.200 378.967,131.393 379.202,131.630 379.123 C 131.867 379.045,132.060 378.809,132.060 378.600 C 132.060 378.391,131.867 378.156,131.630 378.077 C 131.393 377.998,131.200 378.233,131.200 378.600 M256.877 382.430 C 256.955 382.667,257.191 382.860,257.400 382.860 C 257.609 382.860,257.845 382.667,257.923 382.430 C 258.002 382.194,257.767 382.000,257.400 382.000 C 257.033 382.000,256.798 382.194,256.877 382.430 M230.400 388.600 C 230.400 388.967,230.594 389.202,230.830 389.123 C 231.067 389.045,231.260 388.809,231.260 388.600 C 231.260 388.391,231.067 388.156,230.830 388.077 C 230.594 387.998,230.400 388.233,230.400 388.600 M174.256 389.078 C 173.805 389.528,173.981 390.000,174.600 390.000 C 174.930 390.000,175.200 389.831,175.200 389.624 C 175.200 389.119,174.575 388.758,174.256 389.078 " stroke="none" fill="#fcec9e" fill-rule="evenodd"></path><path id="path2" d="M149.414 85.835 C 149.041 86.404,148.836 86.970,148.959 87.092 C 149.081 87.214,149.295 87.019,149.433 86.657 C 149.665 86.053,153.364 86.000,195.400 86.000 C 235.666 86.000,241.142 85.928,241.345 85.400 C 241.548 84.869,236.328 84.800,195.833 84.800 L 150.092 84.800 149.414 85.835 M218.300 85.500 C 205.815 85.559,185.385 85.559,172.900 85.500 C 160.415 85.441,170.630 85.393,195.600 85.393 C 220.570 85.393,230.785 85.441,218.300 85.500 M243.543 93.156 C 243.874 93.366,243.985 93.819,243.827 94.316 C 243.678 94.784,243.772 95.259,244.046 95.428 C 244.363 95.624,244.418 95.553,244.211 95.217 C 244.030 94.925,244.120 94.573,244.423 94.386 C 245.027 94.013,244.278 92.795,243.451 92.806 C 243.185 92.810,243.223 92.953,243.543 93.156 M244.643 96.633 C 244.267 97.611,244.349 97.708,245.000 97.057 C 245.680 96.377,245.767 96.000,245.243 96.000 C 245.046 96.000,244.776 96.285,244.643 96.633 M153.300 97.423 C 153.025 97.722,152.800 98.194,152.800 98.472 C 152.800 98.750,153.088 98.566,153.441 98.063 C 154.162 97.033,154.065 96.593,153.300 97.423 M245.600 98.287 C 245.600 98.533,245.475 99.064,245.322 99.467 C 245.054 100.175,245.070 100.175,245.777 99.474 C 246.323 98.933,246.393 98.633,246.054 98.294 C 245.724 97.964,245.600 97.962,245.600 98.287 M154.200 99.731 C 153.980 100.006,153.752 100.494,153.694 100.816 C 153.625 101.198,153.798 101.132,154.194 100.624 C 154.527 100.196,154.800 99.701,154.800 99.524 C 154.800 99.092,154.677 99.134,154.200 99.731 M246.414 101.174 C 245.848 102.232,245.895 102.530,246.533 101.933 C 246.827 101.659,247.067 101.202,247.067 100.918 C 247.067 100.203,246.898 100.269,246.414 101.174 M154.871 102.254 C 154.580 102.570,154.415 103.046,154.504 103.313 C 154.598 103.595,154.875 103.407,155.165 102.865 C 155.758 101.757,155.611 101.451,154.871 102.254 M246.800 104.200 C 246.800 104.530,247.115 104.797,247.500 104.794 C 248.048 104.789,248.081 104.713,247.655 104.442 C 247.194 104.151,247.194 104.063,247.655 103.880 C 248.035 103.729,247.988 103.654,247.500 103.632 C 247.115 103.614,246.800 103.870,246.800 104.200 M165.653 135.074 C 165.258 135.502,165.230 135.769,165.550 136.037 C 165.794 136.240,165.906 136.287,165.800 136.140 C 165.694 135.994,165.811 135.628,166.060 135.327 C 166.689 134.570,166.326 134.344,165.653 135.074 M168.745 143.958 C 169.206 144.249,169.206 144.337,168.745 144.520 C 168.365 144.671,168.412 144.746,168.900 144.768 C 169.285 144.786,169.600 144.530,169.600 144.200 C 169.600 143.870,169.285 143.603,168.900 143.606 C 168.352 143.611,168.319 143.687,168.745 143.958 M169.700 146.623 C 169.425 146.922,169.200 147.394,169.200 147.672 C 169.200 147.950,169.488 147.766,169.841 147.263 C 170.562 146.233,170.465 145.793,169.700 146.623 M261.219 146.977 C 260.947 147.305,260.817 147.804,260.931 148.087 C 261.066 148.423,261.148 148.370,261.168 147.933 C 261.186 147.567,261.425 147.186,261.700 147.088 C 261.975 146.990,262.091 146.791,261.957 146.645 C 261.823 146.500,261.491 146.649,261.219 146.977 M261.790 149.630 C 261.646 150.087,261.633 150.567,261.763 150.697 C 261.894 150.827,262.000 150.633,262.000 150.267 C 262.000 149.900,262.180 149.600,262.400 149.600 C 262.620 149.600,262.800 149.420,262.800 149.200 C 262.800 148.470,262.058 148.786,261.790 149.630 M262.592 152.024 C 262.446 152.484,262.433 152.967,262.563 153.097 C 262.694 153.227,262.800 153.023,262.800 152.643 C 262.800 152.263,262.980 152.064,263.200 152.200 C 263.420 152.336,263.600 152.267,263.600 152.047 C 263.600 151.233,262.849 151.216,262.592 152.024 M173.762 159.538 C 173.977 159.886,165.301 160.024,138.724 160.098 L 103.400 160.196 138.578 160.300 C 171.288 160.397,175.439 160.290,173.973 159.383 C 173.653 159.185,173.578 159.241,173.762 159.538 M105.200 162.353 C 105.200 162.548,105.692 162.801,106.292 162.916 C 107.314 163.111,107.335 163.088,106.616 162.562 C 105.737 161.919,105.200 161.840,105.200 162.353 M109.600 167.301 C 109.600 167.592,109.960 167.857,110.400 167.890 C 110.840 167.923,111.200 167.878,111.200 167.789 C 111.200 167.701,110.840 167.435,110.400 167.200 C 109.787 166.872,109.600 166.896,109.600 167.301 M113.600 172.400 C 113.600 172.620,113.971 172.800,114.424 172.800 C 114.877 172.800,115.136 172.620,115.000 172.400 C 114.864 172.180,114.493 172.000,114.176 172.000 C 113.859 172.000,113.600 172.180,113.600 172.400 M269.600 173.600 C 269.600 173.820,269.870 174.000,270.200 174.000 C 270.530 174.000,270.800 173.820,270.800 173.600 C 270.800 173.380,270.530 173.200,270.200 173.200 C 269.870 173.200,269.600 173.380,269.600 173.600 M117.600 177.200 C 117.600 177.420,117.949 177.600,118.376 177.600 C 118.803 177.600,119.264 177.780,119.400 178.000 C 119.536 178.220,119.862 178.399,120.124 178.397 C 120.386 178.396,120.060 178.037,119.400 177.600 C 118.059 176.712,117.600 176.610,117.600 177.200 M270.600 177.384 C 271.040 177.754,271.355 178.224,271.300 178.428 C 271.245 178.633,271.395 178.800,271.633 178.800 C 272.336 178.800,271.834 177.915,270.778 177.290 C 269.838 176.735,269.831 176.739,270.600 177.384 M272.268 180.566 C 272.135 180.915,272.186 181.200,272.383 181.200 C 272.580 181.200,272.824 181.515,272.924 181.900 C 273.078 182.488,273.114 182.472,273.147 181.800 C 273.207 180.619,272.584 179.745,272.268 180.566 M121.916 182.076 C 122.178 182.338,122.709 182.596,123.096 182.651 C 123.721 182.738,123.713 182.685,123.024 182.175 C 122.082 181.478,121.243 181.403,121.916 182.076 M126.400 187.387 C 126.400 187.744,126.635 187.885,126.998 187.746 C 127.326 187.619,127.496 187.355,127.374 187.158 C 127.025 186.593,126.400 186.740,126.400 187.387 M274.152 188.581 C 273.879 189.292,274.279 190.011,274.924 189.968 C 275.267 189.946,275.261 189.881,274.900 189.735 C 274.625 189.624,274.400 189.293,274.400 189.000 C 274.400 188.707,274.625 188.376,274.900 188.265 C 275.292 188.107,275.289 188.056,274.887 188.032 C 274.606 188.014,274.275 188.261,274.152 188.581 M131.200 192.364 C 131.750 192.814,132.380 193.183,132.600 193.185 C 133.028 193.188,132.305 192.634,131.000 191.960 C 130.469 191.685,130.536 191.821,131.200 192.364 M276.552 195.781 C 276.279 196.492,276.679 197.211,277.324 197.168 C 277.667 197.146,277.661 197.081,277.300 196.935 C 277.025 196.824,276.800 196.493,276.800 196.200 C 276.800 195.907,277.025 195.576,277.300 195.465 C 277.692 195.307,277.689 195.256,277.287 195.232 C 277.006 195.214,276.675 195.461,276.552 195.781 M134.800 197.443 C 134.800 197.825,135.024 198.000,135.351 197.874 C 135.654 197.758,136.104 197.864,136.351 198.111 C 136.598 198.358,136.800 198.409,136.800 198.224 C 136.800 197.852,135.572 196.833,135.100 196.813 C 134.935 196.806,134.800 197.089,134.800 197.443 M141.314 203.720 C 141.801 204.226,142.274 204.587,142.364 204.523 C 142.598 204.355,141.142 202.800,140.752 202.800 C 140.574 202.800,140.827 203.214,141.314 203.720 M144.000 207.586 C 144.000 207.814,144.213 208.000,144.474 208.000 C 144.735 208.000,145.409 208.405,145.971 208.900 L 146.994 209.800 146.202 208.863 C 145.227 207.711,144.000 206.999,144.000 207.586 M146.890 212.147 C 147.249 212.506,147.961 212.795,148.471 212.788 C 149.520 212.774,148.959 212.330,147.219 211.796 C 146.311 211.517,146.286 211.544,146.890 212.147 M151.200 217.111 C 151.200 217.328,151.650 217.593,152.200 217.698 C 152.750 217.803,153.200 217.734,153.200 217.545 C 153.200 217.355,153.035 217.200,152.833 217.200 C 152.631 217.200,152.181 217.091,151.833 216.957 C 151.485 216.824,151.200 216.893,151.200 217.111 M155.200 221.442 C 155.200 221.805,156.185 222.593,156.810 222.729 C 157.134 222.800,157.939 223.340,158.599 223.929 L 159.797 225.000 158.825 223.896 C 157.882 222.825,155.200 221.009,155.200 221.442 M160.000 227.200 C 160.000 227.420,160.405 227.597,160.900 227.594 C 161.628 227.589,161.685 227.514,161.200 227.200 C 160.424 226.699,160.000 226.699,160.000 227.200 M219.397 230.263 C 219.505 230.408,219.393 230.768,219.148 231.063 C 218.808 231.473,218.848 231.600,219.316 231.600 C 219.916 231.600,220.029 230.631,219.478 230.212 C 219.325 230.095,219.288 230.118,219.397 230.263 M163.600 232.024 C 163.600 232.304,163.714 232.420,163.853 232.281 C 163.992 232.142,164.442 232.208,164.853 232.428 C 165.359 232.699,165.600 232.694,165.600 232.414 C 165.600 232.186,165.435 232.000,165.233 232.000 C 165.031 232.000,164.581 231.891,164.233 231.757 C 163.860 231.614,163.600 231.724,163.600 232.024 M168.460 237.180 C 168.548 237.444,168.751 237.647,168.910 237.630 C 169.388 237.581,169.296 237.032,168.780 236.860 C 168.516 236.772,168.372 236.916,168.460 237.180 M172.400 242.000 C 172.400 242.220,172.701 242.400,173.069 242.400 C 173.436 242.400,174.030 242.625,174.388 242.900 C 174.746 243.175,174.615 242.995,174.097 242.500 C 173.098 241.545,172.400 241.339,172.400 242.000 M222.255 243.400 C 222.115 243.765,222.255 244.000,222.613 244.000 C 222.936 244.000,223.200 243.730,223.200 243.400 C 223.200 243.070,223.039 242.800,222.843 242.800 C 222.646 242.800,222.382 243.070,222.255 243.400 M221.751 244.852 C 221.800 245.111,222.246 245.473,222.741 245.656 C 223.312 245.868,223.551 245.845,223.397 245.595 C 223.263 245.378,222.908 245.200,222.610 245.200 C 222.311 245.200,221.975 245.016,221.863 244.790 C 221.751 244.565,221.701 244.592,221.751 244.852 M176.238 246.862 C 176.371 247.077,176.581 247.153,176.703 247.030 C 176.826 246.907,177.168 247.007,177.463 247.252 C 177.858 247.580,178.000 247.579,178.000 247.249 C 178.000 247.002,177.865 246.786,177.700 246.769 C 177.535 246.753,177.084 246.678,176.698 246.605 C 176.312 246.531,176.105 246.646,176.238 246.862 M180.933 252.162 C 180.933 252.471,181.173 252.632,181.467 252.519 C 181.760 252.407,182.000 252.154,182.000 251.957 C 182.000 251.761,181.760 251.600,181.467 251.600 C 181.173 251.600,180.933 251.853,180.933 252.162 M224.414 252.774 C 223.848 253.832,223.895 254.130,224.533 253.533 C 224.827 253.259,225.067 252.802,225.067 252.518 C 225.067 251.803,224.898 251.869,224.414 252.774 M225.749 259.462 C 225.559 260.217,225.673 260.664,226.142 261.007 C 226.569 261.319,226.749 261.898,226.653 262.645 C 226.570 263.280,226.591 263.530,226.698 263.200 C 226.805 262.870,227.097 262.461,227.346 262.292 C 227.657 262.081,227.516 261.745,226.900 261.228 C 225.984 260.458,225.674 259.200,226.400 259.200 C 226.620 259.200,226.800 259.020,226.800 258.800 C 226.800 257.951,226.002 258.453,225.749 259.462 M189.326 261.867 C 190.035 262.701,191.821 263.481,191.377 262.763 C 191.254 262.563,190.883 262.400,190.553 262.400 C 190.186 262.400,190.065 262.206,190.241 261.900 C 190.399 261.625,190.381 261.533,190.201 261.697 C 190.021 261.860,189.587 261.773,189.237 261.503 C 188.797 261.165,188.824 261.278,189.326 261.867 M193.600 267.153 C 193.600 267.348,194.092 267.601,194.692 267.716 C 195.714 267.911,195.735 267.888,195.016 267.362 C 194.137 266.719,193.600 266.640,193.600 267.153 M228.152 268.581 C 227.879 269.292,228.279 270.011,228.924 269.968 C 229.267 269.946,229.261 269.881,228.900 269.735 C 228.625 269.624,228.400 269.293,228.400 269.000 C 228.400 268.707,228.625 268.376,228.900 268.265 C 229.292 268.107,229.289 268.056,228.887 268.032 C 228.606 268.014,228.275 268.261,228.152 268.581 M197.600 272.000 C 197.600 272.220,197.765 272.400,197.967 272.400 C 198.169 272.400,198.664 272.505,199.067 272.633 C 199.738 272.846,199.734 272.812,199.024 272.233 C 198.134 271.508,197.600 271.421,197.600 272.000 M202.228 277.154 C 202.108 277.349,202.459 277.594,203.008 277.699 C 203.816 277.854,203.921 277.786,203.555 277.345 C 203.033 276.717,202.542 276.646,202.228 277.154 M206.000 281.953 C 206.000 282.148,206.492 282.401,207.092 282.516 C 208.114 282.711,208.135 282.688,207.416 282.162 C 206.537 281.519,206.000 281.440,206.000 281.953 M210.000 286.629 C 210.000 287.211,211.117 287.898,211.589 287.607 C 211.981 287.364,211.906 287.178,211.280 286.843 C 210.357 286.349,210.000 286.289,210.000 286.629 M214.400 292.000 C 214.400 292.220,214.771 292.400,215.224 292.400 C 215.677 292.400,215.936 292.220,215.800 292.000 C 215.664 291.780,215.293 291.600,214.976 291.600 C 214.659 291.600,214.400 291.780,214.400 292.000 M218.400 296.753 C 218.400 296.948,218.892 297.201,219.492 297.316 C 220.514 297.511,220.535 297.488,219.816 296.962 C 218.937 296.319,218.400 296.240,218.400 296.753 M236.562 298.338 C 236.719 298.592,236.657 298.800,236.424 298.800 C 236.191 298.800,236.000 298.950,236.000 299.133 C 236.000 299.317,236.270 299.467,236.600 299.467 C 237.307 299.467,237.402 298.572,236.738 298.162 C 236.452 297.985,236.385 298.052,236.562 298.338 M222.400 301.557 C 222.400 301.942,223.373 302.408,224.133 302.387 C 224.390 302.380,224.251 302.110,223.824 301.787 C 222.942 301.121,222.400 301.033,222.400 301.557 M237.054 301.802 C 236.915 302.165,237.056 302.400,237.413 302.400 C 238.060 302.400,238.207 301.775,237.642 301.426 C 237.445 301.304,237.181 301.474,237.054 301.802 M226.519 306.442 C 226.779 306.859,227.309 307.200,227.696 307.200 C 228.701 307.200,228.570 306.944,227.223 306.271 C 226.100 305.711,226.068 305.719,226.519 306.442 M238.400 307.829 C 238.400 307.954,238.670 308.327,239.000 308.657 C 239.533 309.190,239.600 309.165,239.600 308.429 C 239.600 307.959,239.340 307.600,239.000 307.600 C 238.670 307.600,238.400 307.703,238.400 307.829 M231.200 311.586 C 231.200 311.814,231.481 312.000,231.824 312.000 C 232.167 312.000,232.336 312.180,232.200 312.400 C 232.064 312.620,232.143 312.800,232.376 312.800 C 233.084 312.800,232.850 312.055,232.000 311.600 C 231.458 311.310,231.200 311.305,231.200 311.586 M239.760 315.019 C 239.619 315.579,239.616 316.149,239.752 316.285 C 239.888 316.422,240.000 316.143,240.000 315.667 C 240.000 315.190,240.180 314.800,240.400 314.800 C 240.620 314.800,240.800 314.620,240.800 314.400 C 240.800 313.570,240.005 314.043,239.760 315.019 M239.660 321.580 C 239.832 322.096,240.381 322.188,240.430 321.710 C 240.447 321.550,240.244 321.348,239.980 321.260 C 239.716 321.172,239.572 321.316,239.660 321.580 " stroke="none" fill="#fcdc42" fill-rule="evenodd"></path><path id="path3" d="M172.900 85.500 C 185.385 85.559,205.815 85.559,218.300 85.500 C 230.785 85.441,220.570 85.393,195.600 85.393 C 170.630 85.393,160.415 85.441,172.900 85.500 M248.000 107.000 C 248.000 107.330,248.180 107.600,248.400 107.600 C 248.620 107.600,248.800 107.330,248.800 107.000 C 248.800 106.670,248.620 106.400,248.400 106.400 C 248.180 106.400,248.000 106.670,248.000 107.000 M251.300 115.888 C 251.025 115.986,250.800 116.335,250.800 116.662 C 250.800 117.167,250.898 117.159,251.448 116.610 C 252.152 115.906,252.090 115.606,251.300 115.888 M159.600 118.400 C 159.600 118.620,159.870 118.800,160.200 118.800 C 160.530 118.800,160.800 118.620,160.800 118.400 C 160.800 118.180,160.530 118.000,160.200 118.000 C 159.870 118.000,159.600 118.180,159.600 118.400 M254.800 128.400 C 254.800 128.620,255.070 128.800,255.400 128.800 C 255.730 128.800,256.000 128.620,256.000 128.400 C 256.000 128.180,255.730 128.000,255.400 128.000 C 255.070 128.000,254.800 128.180,254.800 128.400 M256.400 133.400 C 256.400 133.730,256.580 134.000,256.800 134.000 C 257.020 134.000,257.200 133.730,257.200 133.400 C 257.200 133.070,257.020 132.800,256.800 132.800 C 256.580 132.800,256.400 133.070,256.400 133.400 M104.800 159.600 C 104.800 159.864,116.608 160.000,139.424 160.000 C 162.404 160.000,173.964 159.865,173.800 159.600 C 173.638 159.338,161.663 159.200,139.176 159.200 C 116.525 159.200,104.800 159.336,104.800 159.600 M265.039 159.538 C 264.900 159.761,264.982 160.065,265.220 160.212 C 265.835 160.593,266.232 160.072,265.718 159.558 C 265.431 159.271,265.207 159.264,265.039 159.538 M106.000 163.153 C 106.000 163.348,106.492 163.601,107.092 163.716 C 108.114 163.911,108.135 163.888,107.416 163.362 C 106.537 162.719,106.000 162.640,106.000 163.153 M114.400 173.200 C 115.176 173.701,115.600 173.701,115.600 173.200 C 115.600 172.980,115.195 172.803,114.700 172.806 C 113.972 172.811,113.915 172.886,114.400 173.200 M273.200 183.613 C 272.667 183.957,272.667 184.043,273.200 184.387 C 273.587 184.637,273.847 184.637,273.933 184.387 C 274.198 183.620,273.815 183.216,273.200 183.613 M126.800 188.000 C 126.800 188.220,127.070 188.400,127.400 188.400 C 127.730 188.400,128.000 188.220,128.000 188.000 C 128.000 187.780,127.730 187.600,127.400 187.600 C 127.070 187.600,126.800 187.780,126.800 188.000 M274.400 189.000 C 274.400 189.330,274.580 189.600,274.800 189.600 C 275.020 189.600,275.200 189.330,275.200 189.000 C 275.200 188.670,275.020 188.400,274.800 188.400 C 274.580 188.400,274.400 188.670,274.400 189.000 M279.238 202.955 C 278.753 203.539,279.366 204.367,279.893 203.840 C 280.025 203.708,279.878 203.597,279.567 203.594 C 279.093 203.589,279.097 203.527,279.588 203.216 C 279.912 203.011,280.073 202.739,279.945 202.612 C 279.818 202.485,279.500 202.639,279.238 202.955 M148.170 213.152 C 148.290 213.345,148.761 213.601,149.217 213.720 C 149.897 213.898,149.961 213.835,149.574 213.369 C 149.068 212.759,147.807 212.564,148.170 213.152 M283.150 215.000 C 283.123 215.110,283.078 215.425,283.050 215.700 C 283.011 216.094,275.867 216.243,249.400 216.403 L 215.800 216.607 249.500 216.703 C 276.116 216.780,283.208 216.905,283.240 217.300 C 283.282 217.834,283.893 216.138,283.960 215.300 C 283.997 214.834,283.260 214.560,283.150 215.000 M152.170 217.952 C 152.290 218.145,152.795 218.406,153.294 218.532 C 154.168 218.752,154.173 218.740,153.424 218.180 C 152.564 217.538,151.832 217.404,152.170 217.952 M218.184 228.827 C 218.039 229.061,218.028 229.361,218.160 229.493 C 218.292 229.625,218.403 229.478,218.406 229.167 C 218.411 228.700,218.481 228.706,218.800 229.200 C 219.131 229.713,219.189 229.698,219.194 229.100 C 219.201 228.325,218.595 228.161,218.184 228.827 M164.570 232.752 C 164.690 232.945,165.195 233.206,165.694 233.332 C 166.568 233.552,166.573 233.540,165.824 232.980 C 164.964 232.338,164.232 232.204,164.570 232.752 M223.300 246.665 C 223.025 246.776,222.800 247.042,222.800 247.257 C 222.800 247.472,222.967 247.544,223.171 247.418 C 223.376 247.291,223.621 247.596,223.717 248.094 C 223.844 248.756,223.906 248.650,223.946 247.700 C 223.975 246.985,223.955 246.414,223.900 246.432 C 223.845 246.449,223.575 246.554,223.300 246.665 M177.282 247.647 C 177.384 247.951,177.632 248.203,177.833 248.206 C 178.035 248.209,178.437 248.363,178.727 248.546 C 179.016 248.730,179.326 248.808,179.414 248.719 C 179.503 248.630,179.018 248.229,178.337 247.826 C 177.426 247.288,177.147 247.241,177.282 247.647 M203.859 278.397 C 204.869 278.805,205.463 279.600,204.757 279.600 C 204.487 279.600,204.375 279.708,204.507 279.840 C 204.639 279.972,204.950 279.954,205.199 279.800 C 205.794 279.433,204.525 277.990,203.638 278.025 C 203.203 278.043,203.273 278.161,203.859 278.397 M206.970 282.752 C 207.090 282.945,207.595 283.206,208.094 283.332 C 208.968 283.552,208.973 283.540,208.224 282.980 C 207.364 282.338,206.632 282.204,206.970 282.752 M233.000 287.200 C 232.681 287.716,233.110 288.409,233.724 288.368 C 234.067 288.346,234.061 288.281,233.700 288.135 C 233.425 288.024,233.200 287.758,233.200 287.543 C 233.200 287.328,233.380 287.264,233.600 287.400 C 233.820 287.536,234.000 287.457,234.000 287.224 C 234.000 286.687,233.327 286.671,233.000 287.200 M215.326 292.660 C 215.469 292.802,215.994 293.132,216.493 293.392 C 216.992 293.652,217.351 294.089,217.290 294.362 C 217.230 294.636,217.378 294.737,217.620 294.588 C 218.173 294.246,216.522 292.400,215.664 292.400 C 215.335 292.400,215.183 292.517,215.326 292.660 M219.200 297.553 C 219.200 297.748,219.692 298.001,220.292 298.116 C 221.314 298.311,221.335 298.288,220.616 297.762 C 219.737 297.119,219.200 297.040,219.200 297.553 M227.600 307.600 C 227.600 307.820,227.870 308.000,228.200 308.000 C 228.530 308.000,228.800 307.820,228.800 307.600 C 228.800 307.380,228.530 307.200,228.200 307.200 C 227.870 307.200,227.600 307.380,227.600 307.600 M239.600 311.600 C 239.247 311.828,239.194 311.990,239.472 311.994 C 239.732 311.997,240.022 312.405,240.118 312.900 C 240.243 313.551,240.306 313.440,240.346 312.500 C 240.407 311.045,240.425 311.067,239.600 311.600 M232.800 312.477 C 232.800 312.587,233.160 313.093,233.600 313.600 C 234.040 314.107,234.400 314.343,234.400 314.123 C 234.400 313.904,234.040 313.398,233.600 313.000 C 233.160 312.602,232.800 312.366,232.800 312.477 M236.745 317.558 C 237.045 317.748,237.135 317.985,236.945 318.086 C 236.755 318.187,236.803 318.222,237.051 318.166 C 237.299 318.109,237.745 318.273,238.041 318.531 C 238.337 318.789,238.241 318.595,237.827 318.100 C 237.414 317.605,236.879 317.203,236.638 317.206 C 236.397 317.209,236.445 317.368,236.745 317.558 " stroke="none" fill="#fce465" fill-rule="evenodd"></path><path id="path4" d="M149.043 85.433 C 148.709 86.302,148.738 86.486,149.166 86.221 C 149.367 86.097,149.614 86.221,149.715 86.498 C 149.816 86.774,149.877 86.505,149.849 85.900 C 149.795 84.680,149.416 84.461,149.043 85.433 M160.000 116.167 C 160.000 116.478,159.775 116.838,159.500 116.967 C 159.102 117.152,159.104 117.248,159.507 117.436 C 159.786 117.565,160.281 117.938,160.607 118.264 C 160.948 118.605,161.200 118.669,161.200 118.416 C 161.200 118.173,160.931 117.872,160.603 117.746 C 160.199 117.591,160.083 117.207,160.246 116.558 C 160.378 116.031,160.377 115.600,160.243 115.600 C 160.110 115.600,160.000 115.855,160.000 116.167 M250.446 116.486 C 250.421 116.863,250.760 117.365,251.200 117.600 C 251.742 117.890,252.000 117.895,252.000 117.614 C 252.000 117.386,251.743 117.200,251.429 117.200 C 251.115 117.200,250.776 116.885,250.676 116.500 C 250.507 115.854,250.489 115.853,250.446 116.486 M160.200 119.781 C 160.640 120.106,161.225 120.566,161.500 120.802 C 161.775 121.038,162.000 121.084,162.000 120.905 C 162.000 120.469,160.688 119.427,159.972 119.294 C 159.639 119.233,159.734 119.436,160.200 119.781 M162.219 122.900 C 162.374 123.306,162.299 123.600,162.043 123.600 C 161.799 123.600,161.600 123.819,161.600 124.086 C 161.600 124.390,161.856 124.316,162.283 123.889 C 162.834 123.338,162.868 123.108,162.459 122.703 C 162.051 122.298,162.005 122.337,162.219 122.900 M163.200 125.533 C 163.200 125.790,162.930 126.000,162.600 126.000 C 162.270 126.000,162.000 126.180,162.000 126.400 C 162.000 127.058,163.094 126.852,163.367 126.143 C 163.505 125.781,163.525 125.391,163.409 125.276 C 163.294 125.161,163.200 125.277,163.200 125.533 M254.400 128.314 C 254.400 128.708,256.024 130.110,256.235 129.898 C 256.323 129.811,255.945 129.349,255.397 128.872 C 254.849 128.395,254.400 128.144,254.400 128.314 M257.200 133.600 C 257.200 134.260,257.349 134.800,257.531 134.800 C 257.713 134.800,257.782 134.260,257.685 133.600 C 257.588 132.940,257.440 132.400,257.355 132.400 C 257.270 132.400,257.200 132.940,257.200 133.600 M170.439 149.753 C 169.980 150.306,171.013 151.120,171.524 150.609 C 171.639 150.494,171.504 150.400,171.224 150.400 C 170.935 150.400,170.814 150.140,170.945 149.800 C 171.232 149.051,171.037 149.033,170.439 149.753 M170.800 152.018 C 170.800 152.174,171.031 152.494,171.314 152.729 C 171.701 153.049,171.829 152.979,171.829 152.445 C 171.829 152.053,171.597 151.733,171.314 151.733 C 171.031 151.733,170.800 151.861,170.800 152.018 M172.849 156.361 C 172.546 156.553,172.421 156.911,172.572 157.155 C 173.004 157.853,173.429 157.677,173.429 156.800 C 173.429 156.360,173.422 156.003,173.414 156.006 C 173.406 156.009,173.152 156.169,172.849 156.361 M265.600 161.013 C 265.600 161.336,265.870 161.600,266.200 161.600 C 266.530 161.600,266.800 161.439,266.800 161.243 C 266.800 161.046,266.530 160.782,266.200 160.655 C 265.835 160.515,265.600 160.655,265.600 161.013 M104.400 161.553 C 104.400 161.748,104.892 162.001,105.492 162.116 C 106.514 162.311,106.535 162.288,105.816 161.762 C 104.937 161.119,104.400 161.040,104.400 161.553 M266.200 163.195 C 265.435 163.469,265.441 163.495,266.330 163.777 C 267.384 164.113,267.684 163.975,267.278 163.343 C 267.120 163.097,266.654 163.033,266.200 163.195 M266.006 165.086 C 265.999 165.628,267.263 166.415,268.074 166.373 C 268.363 166.358,268.150 166.138,267.600 165.884 C 267.050 165.630,266.468 165.237,266.306 165.011 C 266.116 164.746,266.010 164.772,266.006 165.086 M108.895 166.804 C 109.171 167.246,109.458 167.425,109.533 167.201 C 109.607 166.978,109.878 166.899,110.134 167.027 C 110.390 167.155,110.251 166.976,109.824 166.630 C 108.748 165.757,108.295 165.842,108.895 166.804 M113.046 171.775 C 113.167 172.091,113.520 172.252,113.831 172.133 C 114.506 171.874,114.187 171.200,113.389 171.200 C 113.063 171.200,112.918 171.443,113.046 171.775 M116.713 176.095 C 117.179 176.656,118.800 177.338,118.800 176.973 C 118.800 176.889,118.215 176.518,117.500 176.148 C 116.401 175.580,116.279 175.572,116.713 176.095 M121.056 179.878 C 120.509 180.424,120.847 181.092,121.900 181.542 C 122.891 181.967,122.927 181.956,122.260 181.433 C 121.853 181.114,121.631 180.674,121.766 180.454 C 122.051 179.993,121.438 179.495,121.056 179.878 M271.815 180.684 C 271.625 181.440,271.727 181.904,272.152 182.214 C 272.487 182.460,272.706 183.007,272.638 183.430 C 272.570 183.854,272.590 183.986,272.682 183.725 C 272.774 183.463,273.153 183.179,273.525 183.093 C 274.045 182.972,273.945 182.812,273.084 182.396 C 272.138 181.939,272.006 181.685,272.216 180.728 C 272.533 179.284,272.176 179.245,271.815 180.684 M273.619 185.377 C 273.347 185.705,273.217 186.204,273.331 186.487 C 273.466 186.823,273.548 186.770,273.568 186.333 C 273.586 185.967,273.825 185.586,274.100 185.488 C 274.375 185.390,274.491 185.191,274.357 185.045 C 274.223 184.900,273.891 185.049,273.619 185.377 M125.200 186.151 C 125.200 186.234,125.470 186.526,125.800 186.800 C 126.291 187.208,126.400 187.180,126.400 186.649 C 126.400 186.292,126.130 186.000,125.800 186.000 C 125.470 186.000,125.200 186.068,125.200 186.151 M129.600 191.151 C 129.600 191.672,130.633 192.434,130.933 192.133 C 131.234 191.833,130.472 190.800,129.951 190.800 C 129.758 190.800,129.600 190.958,129.600 191.151 M134.023 196.628 C 134.280 196.938,134.662 197.085,134.872 196.956 C 135.338 196.668,134.992 196.275,134.166 196.154 C 133.684 196.083,133.654 196.183,134.023 196.628 M142.089 205.771 C 142.134 206.305,142.312 206.655,142.485 206.548 C 142.940 206.266,142.873 204.800,142.404 204.800 C 142.187 204.800,142.045 205.237,142.089 205.771 M146.400 211.151 C 146.400 211.355,146.940 211.710,147.600 211.940 C 148.260 212.170,148.800 212.282,148.800 212.189 C 148.800 212.097,148.260 211.741,147.600 211.400 C 146.940 211.059,146.400 210.946,146.400 211.151 M282.529 213.481 C 282.931 213.585,283.173 213.894,283.068 214.168 C 282.962 214.442,283.129 214.667,283.438 214.667 C 283.747 214.667,284.000 214.553,284.000 214.413 C 284.000 213.917,283.030 213.201,282.420 213.246 C 281.971 213.280,282.001 213.345,282.529 213.481 M150.400 215.973 C 150.400 216.137,150.850 216.477,151.400 216.727 C 151.950 216.978,152.399 217.052,152.397 216.891 C 152.395 216.731,151.945 216.392,151.397 216.138 C 150.849 215.883,150.400 215.809,150.400 215.973 M155.044 219.766 C 155.247 220.296,155.194 220.443,154.873 220.245 C 154.563 220.054,154.494 220.179,154.664 220.623 C 154.900 221.238,154.948 221.237,155.301 220.605 C 155.557 220.148,155.530 219.771,155.218 219.461 C 154.865 219.111,154.823 219.185,155.044 219.766 M159.370 226.352 C 159.490 226.545,159.995 226.806,160.494 226.932 C 161.368 227.152,161.373 227.140,160.624 226.580 C 159.764 225.938,159.032 225.804,159.370 226.352 M163.526 231.222 C 164.105 231.454,164.345 231.781,164.167 232.097 C 163.950 232.480,164.015 232.477,164.438 232.083 C 165.063 231.502,164.363 230.794,163.200 230.831 C 162.870 230.842,163.017 231.018,163.526 231.222 M218.528 232.195 C 218.575 232.662,218.938 233.025,219.405 233.072 C 219.981 233.132,220.014 233.099,219.525 232.952 C 219.153 232.842,218.758 232.447,218.648 232.075 C 218.501 231.586,218.468 231.619,218.528 232.195 M167.219 233.951 C 167.585 234.702,167.569 234.982,167.141 235.281 C 166.697 235.593,166.703 235.633,167.175 235.505 C 168.020 235.277,168.093 234.671,167.383 233.784 C 166.784 233.035,166.777 233.043,167.219 233.951 M171.600 241.153 C 171.600 241.348,172.092 241.601,172.692 241.716 C 173.714 241.911,173.735 241.888,173.016 241.362 C 172.137 240.719,171.600 240.640,171.600 241.153 M175.707 245.555 C 175.776 246.475,177.067 247.431,177.067 246.562 C 177.067 246.253,176.917 246.000,176.733 246.000 C 176.550 246.000,176.400 245.730,176.400 245.400 C 176.400 245.070,176.231 244.800,176.025 244.800 C 175.819 244.800,175.675 245.140,175.707 245.555 M188.562 259.538 C 188.719 259.792,188.687 260.000,188.490 260.000 C 188.294 260.000,188.133 260.270,188.133 260.600 C 188.133 261.472,188.671 261.335,188.916 260.400 C 189.031 259.961,188.934 259.483,188.701 259.339 C 188.451 259.184,188.394 259.267,188.562 259.538 M192.989 266.019 C 192.857 266.231,193.076 266.522,193.475 266.665 C 193.874 266.807,194.335 266.996,194.500 267.085 C 195.056 267.386,194.805 266.982,194.014 266.305 C 193.557 265.913,193.128 265.793,192.989 266.019 M195.953 268.070 C 196.515 268.716,196.765 269.351,196.583 269.670 C 196.340 270.099,196.386 270.104,196.827 269.695 C 197.280 269.273,197.175 269.007,196.197 268.095 L 195.023 267.000 195.953 268.070 M201.200 276.400 C 201.200 276.620,201.571 276.800,202.024 276.800 C 202.477 276.800,202.736 276.620,202.600 276.400 C 202.464 276.180,202.093 276.000,201.776 276.000 C 201.459 276.000,201.200 276.180,201.200 276.400 M205.200 281.153 C 205.200 281.348,205.652 281.593,206.203 281.699 C 207.016 281.854,207.121 281.786,206.755 281.345 C 206.249 280.736,205.200 280.607,205.200 281.153 M213.800 291.200 C 213.936 291.420,214.442 291.597,214.924 291.594 C 215.636 291.589,215.688 291.515,215.200 291.200 C 214.412 290.691,213.485 290.691,213.800 291.200 M217.805 295.992 C 217.697 296.166,218.057 296.394,218.605 296.499 C 219.152 296.603,219.600 296.555,219.600 296.391 C 219.600 295.962,218.038 295.615,217.805 295.992 M221.949 299.276 C 221.779 299.688,221.743 301.191,221.907 301.027 C 222.016 300.918,222.487 301.012,222.953 301.236 C 223.754 301.622,223.760 301.612,223.060 301.049 C 222.653 300.721,222.431 300.274,222.566 300.054 C 222.702 299.835,222.630 299.542,222.407 299.404 C 222.183 299.266,221.977 299.208,221.949 299.276 M238.860 320.780 C 238.948 321.044,239.150 321.247,239.310 321.230 C 239.788 321.181,239.696 320.632,239.180 320.460 C 238.916 320.372,238.772 320.516,238.860 320.780 " stroke="none" fill="#fcd924" fill-rule="evenodd"></path></g></svg>