<svg id="svg" version="1.1" xmlns="http://www.w3.org/2000/svg" xmlns:xlink="http://www.w3.org/1999/xlink" width="400" height="400" viewBox="0, 0, 400,400"><g id="svgg"><path id="path0" d="M182.800 9.800 C 182.800 10.130,182.980 10.400,183.200 10.400 C 183.420 10.400,183.600 10.130,183.600 9.800 C 183.600 9.470,183.420 9.200,183.200 9.200 C 182.980 9.200,182.800 9.470,182.800 9.800 M238.217 12.772 C 237.944 13.214,238.575 13.692,238.944 13.322 C 239.325 12.942,239.254 12.400,238.824 12.400 C 238.617 12.400,238.344 12.568,238.217 12.772 M148.400 16.233 C 148.400 16.940,149.261 16.817,149.508 16.075 C 149.595 15.814,149.382 15.600,149.033 15.600 C 148.685 15.600,148.400 15.885,148.400 16.233 M140.656 17.878 C 140.219 18.314,140.373 18.667,141.000 18.667 C 141.330 18.667,141.600 18.527,141.600 18.357 C 141.600 17.906,140.955 17.579,140.656 17.878 M133.600 20.600 C 133.600 20.930,133.780 21.200,134.000 21.200 C 134.220 21.200,134.400 20.930,134.400 20.600 C 134.400 20.270,134.220 20.000,134.000 20.000 C 133.780 20.000,133.600 20.270,133.600 20.600 M129.600 22.200 C 129.600 22.567,129.793 22.802,130.030 22.723 C 130.267 22.645,130.460 22.409,130.460 22.200 C 130.460 21.991,130.267 21.756,130.030 21.677 C 129.793 21.598,129.600 21.833,129.600 22.200 M278.800 26.254 C 278.800 26.553,279.056 26.677,279.400 26.545 C 279.730 26.418,280.000 26.184,280.000 26.024 C 280.000 25.864,279.730 25.733,279.400 25.733 C 279.070 25.733,278.800 25.968,278.800 26.254 M118.678 26.656 C 118.358 26.975,118.719 27.600,119.224 27.600 C 119.431 27.600,119.600 27.330,119.600 27.000 C 119.600 26.381,119.128 26.205,118.678 26.656 M291.299 32.497 C 291.365 32.697,291.591 32.860,291.800 32.860 C 292.009 32.860,292.235 32.697,292.301 32.497 C 292.368 32.297,292.142 32.133,291.800 32.133 C 291.458 32.133,291.232 32.297,291.299 32.497 M93.600 41.000 C 93.600 41.257,93.840 41.467,94.133 41.467 C 94.427 41.467,94.667 41.257,94.667 41.000 C 94.667 40.743,94.427 40.533,94.133 40.533 C 93.840 40.533,93.600 40.743,93.600 41.000 M334.400 64.351 C 334.400 64.863,335.576 65.757,335.867 65.467 C 336.157 65.176,335.263 64.000,334.751 64.000 C 334.558 64.000,334.400 64.158,334.400 64.351 M51.417 79.172 C 51.144 79.614,51.775 80.092,52.144 79.722 C 52.525 79.342,52.454 78.800,52.024 78.800 C 51.817 78.800,51.544 78.968,51.417 79.172 M46.075 86.025 C 46.171 86.314,46.486 86.629,46.775 86.725 C 47.075 86.825,47.225 86.675,47.125 86.375 C 47.029 86.086,46.714 85.771,46.425 85.675 C 46.125 85.575,45.975 85.725,46.075 86.025 M42.060 91.580 C 42.148 91.844,42.351 92.047,42.510 92.030 C 42.988 91.981,42.896 91.432,42.380 91.260 C 42.116 91.172,41.972 91.316,42.060 91.580 M40.533 94.133 C 40.533 94.427,40.743 94.667,41.000 94.667 C 41.257 94.667,41.467 94.427,41.467 94.133 C 41.467 93.840,41.257 93.600,41.000 93.600 C 40.743 93.600,40.533 93.840,40.533 94.133 M192.667 110.667 C 192.520 110.813,192.400 111.083,192.400 111.267 C 192.400 111.940,273.086 111.674,273.345 111.000 C 273.587 110.368,193.297 110.037,192.667 110.667 M21.692 130.075 C 21.779 130.336,22.109 130.620,22.425 130.705 C 22.900 130.834,22.905 130.795,22.455 130.479 C 21.994 130.156,21.994 130.063,22.455 129.880 C 22.822 129.734,22.760 129.653,22.267 129.632 C 21.863 129.614,21.605 129.814,21.692 130.075 M20.000 134.000 C 20.000 134.220,20.270 134.400,20.600 134.400 C 20.930 134.400,21.200 134.220,21.200 134.000 C 21.200 133.780,20.930 133.600,20.600 133.600 C 20.270 133.600,20.000 133.780,20.000 134.000 M19.384 136.027 C 19.239 136.261,19.216 136.549,19.333 136.667 C 19.620 136.953,20.400 136.448,20.400 135.976 C 20.400 135.465,19.709 135.499,19.384 136.027 M17.878 140.656 C 17.579 140.955,17.906 141.600,18.357 141.600 C 18.527 141.600,18.667 141.330,18.667 141.000 C 18.667 140.373,18.314 140.219,17.878 140.656 M389.078 174.256 C 388.758 174.575,389.119 175.200,389.624 175.200 C 389.831 175.200,390.000 174.930,390.000 174.600 C 390.000 173.981,389.528 173.805,389.078 174.256 M134.720 174.880 C 135.093 175.253,135.307 175.253,135.680 174.880 C 136.053 174.507,135.947 174.400,135.200 174.400 C 134.453 174.400,134.347 174.507,134.720 174.880 M92.200 175.200 C 92.064 175.420,92.323 175.600,92.776 175.600 C 93.229 175.600,93.600 175.420,93.600 175.200 C 93.600 174.980,93.341 174.800,93.024 174.800 C 92.707 174.800,92.336 174.980,92.200 175.200 M307.600 199.200 C 307.283 199.396,307.156 199.689,307.318 199.852 C 307.481 200.014,307.823 199.937,308.080 199.680 C 308.684 199.076,308.347 198.738,307.600 199.200 M77.600 213.600 C 77.600 213.820,77.870 214.000,78.200 214.000 C 78.530 214.000,78.800 213.820,78.800 213.600 C 78.800 213.380,78.530 213.200,78.200 213.200 C 77.870 213.200,77.600 213.380,77.600 213.600 M388.077 230.830 C 388.156 231.067,388.391 231.260,388.600 231.260 C 388.809 231.260,389.045 231.067,389.123 230.830 C 389.202 230.594,388.967 230.400,388.600 230.400 C 388.233 230.400,387.998 230.594,388.077 230.830 M12.588 238.420 C 12.207 239.035,12.728 239.432,13.242 238.918 C 13.529 238.631,13.536 238.407,13.262 238.239 C 13.039 238.100,12.735 238.182,12.588 238.420 M141.600 240.721 C 141.600 241.336,141.777 241.507,142.234 241.332 C 142.582 241.198,142.717 240.977,142.534 240.840 C 142.350 240.703,142.065 240.428,141.900 240.229 C 141.735 240.030,141.600 240.251,141.600 240.721 M105.600 252.000 C 105.600 252.220,105.870 252.400,106.200 252.400 C 106.530 252.400,106.800 252.220,106.800 252.000 C 106.800 251.780,106.530 251.600,106.200 251.600 C 105.870 251.600,105.600 251.780,105.600 252.000 M382.000 257.400 C 382.000 257.767,382.194 258.002,382.430 257.923 C 382.667 257.845,382.860 257.609,382.860 257.400 C 382.860 257.191,382.667 256.955,382.430 256.877 C 382.194 256.798,382.000 257.033,382.000 257.400 M58.800 262.000 C 58.800 262.220,59.070 262.400,59.400 262.400 C 59.730 262.400,60.000 262.220,60.000 262.000 C 60.000 261.780,59.730 261.600,59.400 261.600 C 59.070 261.600,58.800 261.780,58.800 262.000 M335.600 272.600 C 335.600 272.930,335.780 273.200,336.000 273.200 C 336.220 273.200,336.400 272.930,336.400 272.600 C 336.400 272.270,336.220 272.000,336.000 272.000 C 335.780 272.000,335.600 272.270,335.600 272.600 M374.933 276.133 C 374.933 276.427,375.143 276.667,375.400 276.667 C 375.657 276.667,375.867 276.427,375.867 276.133 C 375.867 275.840,375.657 275.600,375.400 275.600 C 375.143 275.600,374.933 275.840,374.933 276.133 M32.133 291.800 C 32.133 292.142,32.297 292.368,32.497 292.301 C 32.697 292.235,32.860 292.009,32.860 291.800 C 32.860 291.591,32.697 291.365,32.497 291.299 C 32.297 291.232,32.133 291.458,32.133 291.800 M34.875 297.225 C 34.971 297.514,35.286 297.829,35.575 297.925 C 35.875 298.025,36.025 297.875,35.925 297.575 C 35.829 297.286,35.514 296.971,35.225 296.875 C 34.925 296.775,34.775 296.925,34.875 297.225 M37.200 301.200 C 37.200 301.420,37.470 301.600,37.800 301.600 C 38.130 301.600,38.400 301.420,38.400 301.200 C 38.400 300.980,38.130 300.800,37.800 300.800 C 37.470 300.800,37.200 300.980,37.200 301.200 M39.056 303.078 C 38.619 303.514,38.773 303.867,39.400 303.867 C 39.730 303.867,40.000 303.727,40.000 303.557 C 40.000 303.106,39.355 302.779,39.056 303.078 M43.660 310.380 C 43.832 310.896,44.381 310.988,44.430 310.510 C 44.447 310.351,44.244 310.148,43.980 310.060 C 43.716 309.972,43.572 310.116,43.660 310.380 M345.200 323.800 C 345.200 324.167,345.394 324.402,345.630 324.323 C 345.867 324.245,346.060 324.009,346.060 323.800 C 346.060 323.591,345.867 323.356,345.630 323.277 C 345.394 323.198,345.200 323.433,345.200 323.800 M337.645 331.746 C 337.285 332.179,337.371 332.282,338.063 332.246 C 338.542 332.221,339.009 331.975,339.100 331.700 C 339.324 331.027,338.213 331.062,337.645 331.746 M331.680 337.680 C 331.048 338.312,331.062 339.315,331.700 339.090 C 331.975 338.993,332.173 338.606,332.140 338.229 C 332.101 337.784,332.282 337.623,332.661 337.768 C 332.985 337.892,333.134 337.816,332.997 337.595 C 332.673 337.070,332.263 337.097,331.680 337.680 M323.277 345.630 C 323.356 345.867,323.591 346.060,323.800 346.060 C 324.009 346.060,324.245 345.867,324.323 345.630 C 324.402 345.394,324.167 345.200,323.800 345.200 C 323.433 345.200,323.198 345.394,323.277 345.630 M88.933 355.867 C 88.933 356.160,89.173 356.400,89.467 356.400 C 89.760 356.400,90.000 356.160,90.000 355.867 C 90.000 355.573,89.760 355.333,89.467 355.333 C 89.173 355.333,88.933 355.573,88.933 355.867 M306.933 358.200 C 306.933 358.457,307.173 358.667,307.467 358.667 C 307.760 358.667,308.000 358.457,308.000 358.200 C 308.000 357.943,307.760 357.733,307.467 357.733 C 307.173 357.733,306.933 357.943,306.933 358.200 M106.000 366.800 C 106.000 367.020,106.270 367.200,106.600 367.200 C 106.930 367.200,107.200 367.020,107.200 366.800 C 107.200 366.580,106.930 366.400,106.600 366.400 C 106.270 366.400,106.000 366.580,106.000 366.800 M121.878 374.256 C 121.558 374.575,121.919 375.200,122.424 375.200 C 122.631 375.200,122.800 374.930,122.800 374.600 C 122.800 373.981,122.328 373.805,121.878 374.256 M275.600 375.400 C 275.600 375.657,275.840 375.867,276.133 375.867 C 276.427 375.867,276.667 375.657,276.667 375.400 C 276.667 375.143,276.427 374.933,276.133 374.933 C 275.840 374.933,275.600 375.143,275.600 375.400 M131.200 378.600 C 131.200 378.967,131.393 379.202,131.630 379.123 C 131.867 379.045,132.060 378.809,132.060 378.600 C 132.060 378.391,131.867 378.156,131.630 378.077 C 131.393 377.998,131.200 378.233,131.200 378.600 M256.877 382.430 C 256.955 382.667,257.191 382.860,257.400 382.860 C 257.609 382.860,257.845 382.667,257.923 382.430 C 258.002 382.194,257.767 382.000,257.400 382.000 C 257.033 382.000,256.798 382.194,256.877 382.430 M251.400 383.600 C 251.264 383.820,251.276 384.199,251.426 384.443 C 251.695 384.878,252.379 384.211,252.394 383.500 C 252.403 383.062,251.688 383.133,251.400 383.600 M230.400 388.600 C 230.400 388.967,230.594 389.202,230.830 389.123 C 231.067 389.045,231.260 388.809,231.260 388.600 C 231.260 388.391,231.067 388.156,230.830 388.077 C 230.594 387.998,230.400 388.233,230.400 388.600 M174.256 389.078 C 173.805 389.528,173.981 390.000,174.600 390.000 C 174.930 390.000,175.200 389.831,175.200 389.624 C 175.200 389.119,174.575 388.758,174.256 389.078 " stroke="none" fill="#f4bea6" fill-rule="evenodd"></path><path id="path1" d="M138.184 18.827 C 138.039 19.061,138.028 19.361,138.160 19.493 C 138.292 19.625,138.403 19.478,138.406 19.167 C 138.411 18.700,138.481 18.706,138.800 19.200 C 139.131 19.713,139.189 19.698,139.194 19.100 C 139.201 18.325,138.595 18.161,138.184 18.827 M300.617 37.572 C 300.321 38.051,301.074 38.525,301.607 38.196 C 302.054 37.919,301.760 37.200,301.200 37.200 C 301.006 37.200,300.744 37.368,300.617 37.572 M310.133 44.267 C 310.133 44.560,310.373 44.800,310.667 44.800 C 310.960 44.800,311.200 44.560,311.200 44.267 C 311.200 43.973,310.960 43.733,310.667 43.733 C 310.373 43.733,310.133 43.973,310.133 44.267 M78.832 51.867 C 78.853 52.360,78.934 52.422,79.080 52.055 C 79.263 51.594,79.356 51.594,79.679 52.055 C 79.995 52.505,80.034 52.500,79.905 52.025 C 79.671 51.157,78.795 51.028,78.832 51.867 M73.200 56.533 C 73.200 56.827,73.470 57.067,73.800 57.067 C 74.130 57.067,74.400 56.827,74.400 56.533 C 74.400 56.240,74.130 56.000,73.800 56.000 C 73.470 56.000,73.200 56.240,73.200 56.533 M56.000 73.800 C 56.000 74.130,56.240 74.400,56.533 74.400 C 56.827 74.400,57.067 74.130,57.067 73.800 C 57.067 73.470,56.827 73.200,56.533 73.200 C 56.240 73.200,56.000 73.470,56.000 73.800 M366.217 106.372 C 365.921 106.851,366.674 107.325,367.207 106.996 C 367.654 106.719,367.360 106.000,366.800 106.000 C 366.606 106.000,366.344 106.168,366.217 106.372 M193.072 112.755 C 193.181 113.170,193.074 113.631,192.835 113.778 C 192.596 113.926,192.400 114.487,192.400 115.024 C 192.400 115.561,192.220 116.000,192.000 116.000 C 191.780 116.000,191.600 116.355,191.600 116.788 C 191.600 117.221,191.240 118.217,190.800 119.000 C 190.360 119.783,190.000 120.779,190.000 121.212 C 190.000 121.645,189.820 122.000,189.600 122.000 C 189.380 122.000,189.200 122.360,189.200 122.800 C 189.200 123.240,188.961 123.600,188.669 123.600 C 188.307 123.600,188.194 123.981,188.315 124.800 C 188.444 125.684,188.331 126.000,187.883 126.000 C 187.472 126.000,187.343 126.259,187.484 126.800 C 187.631 127.362,187.496 127.600,187.033 127.600 C 186.478 127.600,186.447 127.740,186.837 128.468 C 187.215 129.175,187.180 129.425,186.651 129.812 C 186.293 130.074,186.000 130.583,186.000 130.944 C 186.000 131.305,185.724 131.600,185.386 131.600 C 184.880 131.600,184.853 131.752,185.237 132.468 C 185.616 133.177,185.580 133.425,185.044 133.818 C 184.682 134.082,184.492 134.573,184.620 134.909 C 184.749 135.244,184.662 135.638,184.427 135.783 C 184.192 135.928,184.000 136.397,184.000 136.824 C 184.000 137.357,183.724 137.600,183.120 137.600 C 182.436 137.600,182.347 137.707,182.720 138.080 C 183.379 138.739,183.325 140.000,182.637 140.000 C 182.272 140.000,182.148 140.280,182.284 140.800 C 182.457 141.461,182.294 141.602,181.347 141.612 C 180.374 141.622,180.306 141.686,180.900 142.032 C 181.749 142.526,181.833 144.000,181.013 144.000 C 180.656 144.000,180.515 144.235,180.654 144.597 C 180.783 144.934,180.611 145.298,180.259 145.433 C 179.808 145.606,179.699 145.996,179.867 146.836 C 180.046 147.732,179.953 148.000,179.463 148.000 C 179.062 148.000,178.910 148.222,179.054 148.597 C 179.185 148.937,179.008 149.299,178.644 149.438 C 178.210 149.605,178.079 149.976,178.235 150.598 C 178.362 151.101,178.270 151.633,178.032 151.780 C 177.795 151.927,177.600 152.487,177.600 153.024 C 177.600 153.561,177.420 154.000,177.200 154.000 C 176.980 154.000,176.800 154.360,176.800 154.800 C 176.800 155.354,176.523 155.610,175.900 155.632 C 175.405 155.649,175.225 155.754,175.500 155.865 C 176.194 156.145,176.140 158.000,175.437 158.000 C 175.072 158.000,174.948 158.280,175.084 158.800 C 175.222 159.327,175.096 159.600,174.716 159.600 C 174.302 159.600,174.188 159.940,174.315 160.800 C 174.444 161.684,174.331 162.000,173.883 162.000 C 173.472 162.000,173.343 162.259,173.484 162.800 C 173.624 163.334,173.496 163.600,173.102 163.600 C 172.681 163.600,172.568 163.900,172.710 164.643 C 172.820 165.216,172.750 165.801,172.555 165.943 C 171.952 166.380,171.200 167.950,171.200 168.771 C 171.200 169.201,171.020 169.664,170.800 169.800 C 170.580 169.936,170.400 170.487,170.400 171.024 C 170.400 171.561,170.201 172.000,169.957 172.000 C 169.714 172.000,169.624 172.287,169.759 172.637 C 169.921 173.061,169.738 173.343,169.211 173.481 C 168.547 173.655,168.491 173.822,168.860 174.512 C 169.204 175.154,169.172 175.432,168.716 175.768 C 168.393 176.006,168.210 176.437,168.307 176.726 C 168.405 177.016,168.115 177.349,167.664 177.467 C 166.964 177.650,166.914 177.796,167.322 178.465 C 167.710 179.102,167.681 179.338,167.165 179.724 C 166.816 179.986,166.606 180.425,166.698 180.700 C 166.791 180.975,166.583 181.308,166.236 181.441 C 165.800 181.609,165.680 181.978,165.845 182.638 C 166.010 183.292,165.891 183.667,165.468 183.829 C 165.128 183.960,164.948 184.320,165.067 184.630 C 165.186 184.940,164.996 185.304,164.644 185.438 C 164.199 185.609,164.079 185.974,164.246 186.642 C 164.392 187.221,164.311 187.600,164.043 187.600 C 163.800 187.600,163.600 187.949,163.600 188.376 C 163.600 188.803,163.420 189.264,163.200 189.400 C 162.980 189.536,162.800 190.087,162.800 190.624 C 162.800 191.411,162.587 191.609,161.700 191.646 C 161.023 191.675,160.869 191.763,161.300 191.876 C 162.042 192.070,162.315 194.000,161.600 194.000 C 161.380 194.000,161.200 194.360,161.200 194.800 C 161.200 195.240,160.961 195.600,160.669 195.600 C 160.307 195.600,160.194 195.981,160.315 196.800 C 160.420 197.520,160.313 198.000,160.045 198.000 C 159.800 198.000,159.600 198.276,159.600 198.613 C 159.600 198.949,159.341 199.324,159.025 199.446 C 158.709 199.567,158.546 199.916,158.664 200.222 C 158.934 200.926,157.948 203.200,157.372 203.200 C 157.118 203.200,157.012 203.697,157.115 204.400 C 157.244 205.284,157.131 205.600,156.683 205.600 C 156.272 205.600,156.143 205.859,156.284 206.400 C 156.422 206.927,156.296 207.200,155.916 207.200 C 155.502 207.200,155.388 207.540,155.515 208.400 C 155.641 209.259,155.527 209.600,155.115 209.600 C 154.702 209.600,154.589 209.941,154.715 210.800 C 154.820 211.520,154.713 212.000,154.445 212.000 C 154.200 212.000,154.000 212.360,154.000 212.800 C 154.000 213.240,153.800 213.600,153.557 213.600 C 153.282 213.600,153.210 213.985,153.366 214.609 C 153.544 215.315,153.437 215.688,153.012 215.851 C 152.678 215.979,152.495 216.230,152.606 216.410 C 152.717 216.589,152.546 216.996,152.227 217.315 C 151.900 217.643,151.744 218.264,151.869 218.743 C 152.015 219.302,151.872 219.674,151.448 219.837 C 151.094 219.973,150.912 220.257,151.043 220.469 C 151.173 220.681,150.907 220.952,150.450 221.071 C 149.787 221.244,149.698 221.436,150.010 222.018 C 150.611 223.142,150.479 223.600,149.551 223.600 C 148.829 223.600,148.779 223.693,149.217 224.220 C 149.651 224.744,149.598 224.875,148.875 225.064 C 148.189 225.244,148.096 225.433,148.410 226.018 C 148.962 227.051,148.894 227.600,148.213 227.600 C 147.853 227.600,147.715 227.834,147.857 228.203 C 148.120 228.890,146.953 231.600,146.394 231.600 C 146.191 231.600,146.129 231.871,146.257 232.203 C 146.602 233.104,145.251 235.705,144.573 235.445 C 144.123 235.272,144.102 235.374,144.465 235.956 C 145.096 236.967,144.103 239.200,143.022 239.200 C 142.414 239.200,142.347 239.307,142.720 239.680 C 143.379 240.339,143.325 241.600,142.637 241.600 C 142.272 241.600,142.148 241.880,142.284 242.400 C 142.422 242.927,142.296 243.200,141.916 243.200 C 141.502 243.200,141.388 243.540,141.515 244.400 C 141.642 245.271,141.529 245.600,141.101 245.600 C 140.695 245.600,140.568 245.897,140.693 246.553 C 140.793 247.077,140.678 247.628,140.438 247.777 C 140.197 247.925,140.000 248.397,140.000 248.824 C 140.000 249.251,139.820 249.600,139.600 249.600 C 139.380 249.600,139.200 249.932,139.200 250.339 C 139.200 251.410,138.001 253.648,137.570 253.381 C 137.361 253.252,137.373 253.603,137.597 254.191 C 137.905 255.001,137.860 255.279,137.396 255.457 C 137.068 255.583,136.800 256.026,136.800 256.443 C 136.800 256.859,136.524 257.200,136.186 257.200 C 135.694 257.200,135.658 257.360,136.004 258.008 C 136.505 258.943,136.225 259.600,135.327 259.600 C 134.808 259.600,134.789 259.705,135.217 260.220 C 135.651 260.744,135.598 260.875,134.875 261.064 C 134.149 261.254,134.086 261.413,134.460 262.112 C 134.804 262.754,134.772 263.032,134.316 263.368 C 133.993 263.606,133.806 264.025,133.898 264.300 C 133.991 264.575,133.783 264.908,133.436 265.041 C 133.000 265.209,132.880 265.578,133.045 266.238 C 133.205 266.876,133.091 267.267,132.702 267.416 C 132.330 267.559,132.186 267.995,132.306 268.620 C 132.414 269.187,132.305 269.600,132.047 269.600 C 131.801 269.600,131.600 269.960,131.600 270.400 C 131.600 270.949,131.333 271.200,130.751 271.200 C 130.053 271.200,129.988 271.304,130.385 271.782 C 130.651 272.103,130.753 272.553,130.611 272.782 C 130.432 273.072,161.639 273.200,232.479 273.200 L 334.604 273.200 335.042 271.800 C 335.441 270.528,335.409 270.400,334.698 270.400 C 334.186 270.400,333.990 270.203,334.132 269.833 C 334.252 269.521,334.072 269.160,333.732 269.029 C 333.309 268.867,333.190 268.492,333.355 267.838 C 333.521 267.174,333.400 266.809,332.956 266.638 C 332.604 266.504,332.414 266.140,332.533 265.830 C 332.652 265.520,332.470 265.159,332.129 265.028 C 331.722 264.872,331.587 264.494,331.735 263.925 C 331.877 263.386,331.724 262.886,331.330 262.598 C 330.819 262.224,330.787 261.972,331.163 261.268 C 331.553 260.540,331.522 260.400,330.967 260.400 C 330.514 260.400,330.369 260.160,330.507 259.635 C 330.643 259.115,330.464 258.805,329.950 258.671 C 329.314 258.505,329.255 258.307,329.586 257.436 C 329.877 256.671,329.852 256.399,329.490 256.397 C 328.936 256.393,328.000 254.600,328.000 253.544 C 328.000 253.161,327.820 252.736,327.600 252.600 C 327.380 252.464,327.200 252.003,327.200 251.576 C 327.200 251.149,327.020 250.800,326.800 250.800 C 326.580 250.800,326.400 250.350,326.400 249.800 C 326.400 249.250,326.200 248.800,325.955 248.800 C 325.687 248.800,325.580 248.320,325.685 247.600 C 325.812 246.740,325.698 246.400,325.284 246.400 C 324.904 246.400,324.778 246.127,324.916 245.600 C 325.057 245.059,324.928 244.800,324.517 244.800 C 324.069 244.800,323.956 244.484,324.085 243.600 C 324.206 242.781,324.093 242.400,323.731 242.400 C 323.439 242.400,323.200 242.040,323.200 241.600 C 323.200 241.160,323.020 240.800,322.800 240.800 C 322.219 240.800,322.308 238.904,322.900 238.665 C 323.175 238.554,322.974 238.449,322.453 238.432 C 321.662 238.405,321.538 238.234,321.700 237.390 C 321.806 236.834,321.692 236.249,321.446 236.090 C 320.697 235.605,319.879 233.693,320.134 233.027 C 320.267 232.682,320.209 232.400,320.006 232.400 C 319.447 232.400,318.280 229.690,318.543 229.003 C 318.685 228.634,318.547 228.400,318.187 228.400 C 317.506 228.400,317.438 227.851,317.990 226.818 C 318.304 226.233,318.211 226.044,317.525 225.864 C 316.802 225.675,316.749 225.544,317.183 225.020 C 317.621 224.493,317.571 224.400,316.849 224.400 C 315.921 224.400,315.789 223.942,316.390 222.818 C 316.702 222.236,316.613 222.044,315.950 221.871 C 315.490 221.751,315.238 221.462,315.385 221.224 C 315.531 220.988,315.355 220.681,314.993 220.542 C 314.572 220.380,314.410 220.003,314.544 219.493 C 314.659 219.054,314.494 218.436,314.177 218.120 C 313.749 217.692,313.708 217.346,314.015 216.772 C 314.340 216.165,314.297 216.000,313.814 216.000 C 313.467 216.000,313.200 215.653,313.200 215.200 C 313.200 214.760,313.000 214.400,312.755 214.400 C 312.487 214.400,312.380 213.920,312.485 213.200 C 312.606 212.381,312.493 212.000,312.131 212.000 C 311.839 212.000,311.600 211.640,311.600 211.200 C 311.600 210.760,311.400 210.400,311.155 210.400 C 310.887 210.400,310.780 209.920,310.885 209.200 C 311.006 208.381,310.893 208.000,310.531 208.000 C 310.239 208.000,310.000 207.728,310.000 207.395 C 310.000 207.062,309.841 206.477,309.647 206.095 C 308.577 203.993,308.316 203.195,308.522 202.660 C 308.647 202.333,308.491 201.967,308.175 201.846 C 307.859 201.724,307.600 201.349,307.600 201.013 C 307.600 200.676,307.400 200.400,307.155 200.400 C 306.887 200.400,306.780 199.920,306.885 199.200 C 307.006 198.381,306.893 198.000,306.531 198.000 C 306.239 198.000,306.000 197.651,306.000 197.224 C 306.000 196.797,305.803 196.325,305.562 196.177 C 305.322 196.028,305.207 195.477,305.307 194.953 C 305.427 194.326,305.303 194.000,304.945 194.000 C 304.157 194.000,304.275 192.513,305.100 192.032 C 305.694 191.686,305.626 191.622,304.653 191.612 C 303.706 191.602,303.543 191.461,303.716 190.800 C 303.852 190.280,303.728 190.000,303.363 190.000 C 302.675 190.000,302.621 188.739,303.280 188.080 C 303.653 187.707,303.564 187.600,302.880 187.600 C 302.267 187.600,302.000 187.358,302.000 186.800 C 302.000 186.360,301.799 186.000,301.553 186.000 C 301.295 186.000,301.186 185.587,301.294 185.020 C 301.414 184.395,301.270 183.959,300.898 183.816 C 300.509 183.667,300.395 183.276,300.555 182.638 C 300.720 181.978,300.600 181.609,300.164 181.441 C 299.817 181.308,299.609 180.975,299.702 180.700 C 299.794 180.425,299.584 179.986,299.235 179.724 C 298.719 179.338,298.690 179.102,299.078 178.465 C 299.486 177.797,299.436 177.650,298.738 177.468 C 298.257 177.342,298.035 177.067,298.200 176.800 C 298.354 176.551,298.169 176.119,297.789 175.842 C 297.236 175.437,297.186 175.173,297.540 174.512 C 297.910 173.821,297.853 173.655,297.186 173.481 C 296.512 173.304,296.452 173.116,296.786 172.236 C 297.077 171.471,297.052 171.199,296.690 171.197 C 296.180 171.194,295.200 169.430,295.200 168.515 C 295.200 167.906,294.364 166.319,293.845 165.943 C 293.650 165.801,293.580 165.216,293.690 164.643 C 293.826 163.932,293.716 163.600,293.345 163.600 C 293.045 163.600,292.800 163.251,292.800 162.824 C 292.800 162.397,292.603 161.925,292.362 161.777 C 292.122 161.628,292.007 161.077,292.107 160.553 C 292.232 159.897,292.105 159.600,291.699 159.600 C 291.271 159.600,291.158 159.271,291.285 158.400 C 291.412 157.540,291.298 157.200,290.884 157.200 C 290.504 157.200,290.378 156.927,290.516 156.400 C 290.652 155.880,290.528 155.600,290.163 155.600 C 289.465 155.600,289.425 154.337,290.100 153.656 C 290.501 153.253,290.468 153.203,289.933 153.406 C 289.167 153.698,287.755 151.215,288.131 150.236 C 288.251 149.923,288.072 149.560,287.732 149.429 C 287.309 149.267,287.190 148.892,287.355 148.238 C 287.521 147.574,287.400 147.209,286.956 147.038 C 286.592 146.899,286.415 146.537,286.546 146.197 C 286.685 145.835,286.544 145.600,286.187 145.600 C 285.480 145.600,285.410 144.350,286.080 143.680 C 286.453 143.307,286.354 143.200,285.633 143.200 C 284.904 143.200,284.751 143.030,284.916 142.400 C 285.052 141.880,284.928 141.600,284.563 141.600 C 283.875 141.600,283.821 140.339,284.480 139.680 C 284.853 139.307,284.764 139.200,284.080 139.200 C 283.123 139.200,282.984 138.751,283.590 137.618 C 283.902 137.036,283.813 136.844,283.150 136.671 C 282.693 136.552,282.427 136.281,282.557 136.069 C 282.688 135.857,282.507 135.573,282.155 135.438 C 281.710 135.267,281.588 134.902,281.755 134.238 C 281.920 133.578,281.800 133.209,281.364 133.041 C 281.017 132.908,280.809 132.575,280.902 132.300 C 280.994 132.025,280.807 131.606,280.484 131.368 C 280.028 131.032,279.996 130.754,280.340 130.112 C 280.710 129.421,280.653 129.255,279.986 129.081 C 279.312 128.904,279.252 128.716,279.586 127.836 C 279.908 126.990,279.863 126.800,279.343 126.800 C 278.904 126.800,278.771 126.553,278.916 126.000 C 279.057 125.459,278.928 125.200,278.517 125.200 C 278.069 125.200,277.956 124.884,278.085 124.000 C 278.188 123.302,278.081 122.799,277.831 122.797 C 277.325 122.793,276.400 120.948,276.400 119.944 C 276.400 119.561,276.220 119.136,276.000 119.000 C 275.780 118.864,275.600 118.403,275.600 117.976 C 275.600 117.549,275.420 117.200,275.200 117.200 C 274.980 117.200,274.800 116.750,274.800 116.200 C 274.800 115.650,274.600 115.200,274.355 115.200 C 274.087 115.200,273.980 114.720,274.085 114.000 C 274.206 113.181,274.093 112.800,273.731 112.800 C 273.439 112.800,273.200 112.620,273.200 112.400 C 273.200 112.136,259.546 112.000,233.037 112.000 C 193.872 112.000,192.880 112.019,193.072 112.755 M378.032 131.733 C 377.995 132.572,378.871 132.443,379.105 131.575 C 379.234 131.100,379.195 131.095,378.879 131.545 C 378.556 132.006,378.463 132.006,378.280 131.545 C 378.134 131.178,378.053 131.240,378.032 131.733 M104.000 148.600 C 104.000 149.150,103.800 149.600,103.557 149.600 C 103.286 149.600,103.209 149.981,103.359 150.579 C 103.533 151.273,103.400 151.677,102.902 151.967 C 102.516 152.192,102.357 152.381,102.549 152.388 C 102.741 152.395,102.676 152.668,102.404 152.996 C 102.132 153.323,101.732 153.481,101.515 153.347 C 101.291 153.209,101.310 153.459,101.560 153.925 C 102.212 155.143,102.100 155.600,101.151 155.600 C 100.429 155.600,100.379 155.693,100.817 156.220 C 101.251 156.744,101.198 156.875,100.475 157.064 C 99.773 157.248,99.693 157.426,100.028 158.052 C 100.507 158.947,100.211 159.600,99.327 159.600 C 98.852 159.600,98.808 159.728,99.144 160.133 C 99.471 160.527,99.444 160.861,99.038 161.416 C 98.736 161.829,98.578 162.398,98.686 162.680 C 98.794 162.962,98.596 163.304,98.244 163.438 C 97.800 163.609,97.679 163.974,97.845 164.638 C 98.010 165.292,97.891 165.667,97.468 165.829 C 97.128 165.960,96.948 166.320,97.067 166.630 C 97.186 166.940,97.021 167.294,96.701 167.417 C 96.331 167.559,96.187 167.995,96.305 168.615 C 96.427 169.255,96.278 169.672,95.871 169.828 C 95.530 169.959,95.348 170.321,95.468 170.633 C 95.614 171.014,95.404 171.200,94.829 171.200 C 94.106 171.200,94.036 171.321,94.386 171.974 C 95.018 173.154,94.888 173.597,93.900 173.632 C 93.405 173.649,93.225 173.754,93.500 173.865 C 94.194 174.145,94.140 176.000,93.437 176.000 C 93.072 176.000,92.948 176.280,93.084 176.800 C 93.222 177.327,93.096 177.600,92.716 177.600 C 92.302 177.600,92.188 177.940,92.315 178.800 C 92.447 179.702,92.334 180.000,91.858 180.000 C 91.461 180.000,91.311 180.223,91.454 180.597 C 91.580 180.925,91.427 181.292,91.113 181.412 C 90.737 181.556,90.602 182.033,90.717 182.815 C 90.821 183.523,90.711 184.000,90.445 184.000 C 90.200 184.000,90.000 184.349,90.000 184.776 C 90.000 185.203,89.820 185.664,89.600 185.800 C 89.380 185.936,89.200 186.397,89.200 186.824 C 89.200 187.251,88.961 187.600,88.669 187.600 C 88.307 187.600,88.194 187.981,88.315 188.800 C 88.444 189.684,88.331 190.000,87.883 190.000 C 87.472 190.000,87.343 190.259,87.484 190.800 C 87.650 191.433,87.495 191.601,86.747 191.606 C 86.219 191.610,85.990 191.742,86.229 191.906 C 87.108 192.508,87.237 193.665,86.448 193.872 C 85.936 194.005,85.757 194.316,85.893 194.835 C 86.031 195.360,85.886 195.600,85.433 195.600 C 84.878 195.600,84.847 195.740,85.237 196.468 C 85.613 197.172,85.581 197.424,85.070 197.798 C 84.676 198.086,84.523 198.586,84.665 199.125 C 84.813 199.694,84.678 200.072,84.271 200.228 C 83.930 200.359,83.748 200.720,83.867 201.030 C 83.986 201.340,83.796 201.704,83.444 201.838 C 82.999 202.009,82.879 202.374,83.046 203.042 C 83.277 203.963,82.932 204.234,81.800 204.019 C 81.580 203.977,81.625 204.172,81.900 204.451 C 82.626 205.190,82.514 205.600,81.586 205.600 C 80.905 205.600,80.840 205.727,81.186 206.374 C 81.818 207.554,81.688 207.997,80.700 208.032 C 80.205 208.049,80.025 208.154,80.300 208.265 C 80.991 208.544,80.928 209.576,80.203 209.854 C 79.799 210.009,79.683 210.393,79.846 211.042 C 80.016 211.719,79.919 212.000,79.513 212.000 C 79.102 212.000,78.989 212.342,79.115 213.200 C 79.247 214.102,79.134 214.400,78.658 214.400 C 78.261 214.400,78.111 214.623,78.254 214.997 C 78.383 215.332,78.213 215.697,77.867 215.830 C 77.528 215.960,77.346 216.316,77.464 216.622 C 77.801 217.500,76.689 219.600,75.888 219.600 C 75.304 219.600,75.248 219.743,75.586 220.374 C 76.148 221.423,76.106 222.000,75.469 222.000 C 75.107 222.000,74.994 222.381,75.115 223.200 C 75.244 224.084,75.131 224.400,74.683 224.400 C 74.272 224.400,74.143 224.659,74.284 225.200 C 74.422 225.727,74.296 226.000,73.916 226.000 C 73.502 226.000,73.388 226.340,73.515 227.200 C 73.644 228.084,73.531 228.400,73.083 228.400 C 72.672 228.400,72.543 228.659,72.684 229.200 C 72.822 229.727,72.696 230.000,72.316 230.000 C 71.902 230.000,71.788 230.340,71.915 231.200 C 72.020 231.920,71.913 232.400,71.645 232.400 C 71.400 232.400,71.200 232.850,71.200 233.400 C 71.200 233.950,71.020 234.400,70.800 234.400 C 70.580 234.400,70.400 234.749,70.400 235.176 C 70.400 235.603,70.204 236.074,69.965 236.222 C 69.726 236.369,69.624 236.850,69.739 237.289 C 69.886 237.852,69.716 238.149,69.166 238.293 C 68.538 238.457,68.477 238.611,68.857 239.069 C 69.240 239.530,69.166 239.684,68.475 239.864 C 67.773 240.048,67.693 240.226,68.028 240.852 C 68.507 241.747,68.211 242.400,67.327 242.400 C 66.808 242.400,66.789 242.505,67.217 243.020 C 67.651 243.544,67.598 243.675,66.875 243.864 C 66.149 244.054,66.086 244.213,66.460 244.912 C 66.809 245.563,66.768 245.834,66.270 246.198 C 65.876 246.486,65.723 246.986,65.865 247.525 C 66.013 248.094,65.878 248.472,65.471 248.628 C 65.130 248.759,64.948 249.120,65.067 249.430 C 65.186 249.740,64.996 250.104,64.644 250.238 C 64.200 250.409,64.079 250.774,64.245 251.438 C 64.410 252.092,64.291 252.467,63.868 252.629 C 63.528 252.760,63.348 253.121,63.468 253.433 C 63.614 253.814,63.404 254.000,62.829 254.000 C 62.106 254.000,62.036 254.121,62.386 254.774 C 63.018 255.954,62.888 256.397,61.900 256.432 C 61.405 256.449,61.225 256.554,61.500 256.665 C 62.176 256.938,62.136 258.373,61.444 258.638 C 61.123 258.762,60.974 259.178,61.091 259.626 C 61.222 260.127,61.090 260.400,60.716 260.400 C 60.302 260.400,60.188 260.740,60.315 261.600 C 60.447 262.502,60.334 262.800,59.858 262.800 C 59.461 262.800,59.311 263.023,59.454 263.397 C 59.580 263.725,59.427 264.092,59.113 264.212 C 58.737 264.356,58.602 264.833,58.717 265.615 C 58.821 266.323,58.711 266.800,58.445 266.800 C 58.200 266.800,58.000 267.061,58.000 267.380 C 58.000 267.699,57.753 268.104,57.452 268.280 C 57.150 268.456,56.925 269.050,56.952 269.600 C 56.978 270.150,56.808 270.566,56.573 270.524 C 56.319 270.479,56.216 270.925,56.318 271.624 C 56.448 272.511,56.332 272.800,55.845 272.800 C 55.017 272.800,55.008 273.441,55.833 273.757 C 57.467 274.384,97.581 274.016,97.335 273.376 C 97.176 272.961,97.377 272.679,97.938 272.532 C 98.651 272.346,98.713 272.185,98.340 271.488 C 97.986 270.827,98.036 270.563,98.589 270.158 C 98.969 269.881,99.178 269.488,99.053 269.286 C 98.928 269.083,99.070 268.584,99.368 268.176 C 99.667 267.767,99.822 267.202,99.714 266.920 C 99.606 266.638,99.804 266.296,100.156 266.162 C 100.600 265.991,100.721 265.626,100.555 264.962 C 100.395 264.324,100.509 263.933,100.898 263.784 C 101.270 263.641,101.414 263.205,101.294 262.580 C 101.162 261.887,101.285 261.600,101.716 261.600 C 102.128 261.600,102.257 261.341,102.116 260.800 C 101.951 260.170,102.104 260.000,102.833 260.000 C 103.554 260.000,103.653 259.893,103.280 259.520 C 102.467 258.707,102.704 257.603,103.700 257.568 C 104.195 257.551,104.375 257.446,104.100 257.335 C 103.414 257.058,103.468 255.625,104.175 255.354 C 104.491 255.233,104.652 254.880,104.533 254.570 C 104.414 254.260,104.573 253.908,104.887 253.788 C 105.263 253.644,105.398 253.167,105.283 252.385 C 105.153 251.498,105.268 251.200,105.742 251.200 C 106.142 251.200,106.290 250.978,106.143 250.597 C 105.758 249.593,107.153 247.097,107.933 247.394 C 108.468 247.597,108.501 247.547,108.100 247.144 C 107.439 246.478,107.459 245.200,108.131 245.200 C 108.493 245.200,108.606 244.819,108.485 244.000 C 108.380 243.280,108.487 242.800,108.755 242.800 C 109.000 242.800,109.200 242.440,109.200 242.000 C 109.200 241.560,109.439 241.200,109.731 241.200 C 110.093 241.200,110.206 240.819,110.085 240.000 C 109.959 239.141,110.073 238.800,110.485 238.800 C 110.898 238.800,111.011 238.459,110.885 237.600 C 110.780 236.880,110.887 236.400,111.155 236.400 C 111.400 236.400,111.600 236.040,111.600 235.600 C 111.600 235.160,111.839 234.800,112.131 234.800 C 112.493 234.800,112.606 234.419,112.485 233.600 C 112.371 232.822,112.482 232.400,112.801 232.400 C 113.098 232.400,113.209 232.079,113.082 231.593 C 112.966 231.149,113.117 230.541,113.417 230.241 C 113.716 229.941,113.843 229.577,113.698 229.432 C 113.554 229.287,113.828 229.066,114.308 228.940 C 115.026 228.752,115.108 228.576,114.772 227.948 C 114.302 227.070,114.585 226.400,115.427 226.400 C 115.909 226.400,115.922 226.260,115.503 225.576 C 115.084 224.889,115.106 224.672,115.635 224.276 C 115.984 224.014,116.190 223.563,116.093 223.274 C 115.995 222.984,116.290 222.649,116.748 222.529 C 117.452 222.346,117.512 222.184,117.140 221.488 C 116.791 220.837,116.832 220.566,117.330 220.202 C 117.724 219.914,117.877 219.414,117.735 218.875 C 117.587 218.306,117.722 217.928,118.129 217.772 C 118.470 217.641,118.652 217.280,118.533 216.970 C 118.414 216.660,118.604 216.296,118.956 216.162 C 119.400 215.991,119.521 215.626,119.355 214.962 C 119.195 214.324,119.309 213.933,119.698 213.784 C 120.070 213.641,120.214 213.205,120.094 212.580 C 119.986 212.013,120.095 211.600,120.353 211.600 C 120.599 211.600,120.800 211.240,120.800 210.800 C 120.800 210.242,121.067 210.000,121.680 210.000 C 122.364 210.000,122.453 209.893,122.080 209.520 C 121.435 208.875,121.469 207.600,122.131 207.600 C 122.493 207.600,122.606 207.219,122.485 206.400 C 122.356 205.516,122.469 205.200,122.917 205.200 C 123.328 205.200,123.457 204.941,123.316 204.400 C 123.178 203.873,123.304 203.600,123.684 203.600 C 124.098 203.600,124.212 203.260,124.085 202.400 C 123.959 201.541,124.073 201.200,124.485 201.200 C 124.898 201.200,125.011 200.859,124.885 200.000 C 124.780 199.280,124.887 198.800,125.155 198.800 C 125.400 198.800,125.600 198.524,125.600 198.187 C 125.600 197.851,125.843 197.482,126.141 197.367 C 126.471 197.241,126.609 196.779,126.494 196.180 C 126.365 195.506,126.487 195.200,126.884 195.200 C 127.298 195.200,127.412 194.860,127.285 194.000 C 127.156 193.116,127.269 192.800,127.717 192.800 C 128.128 192.800,128.257 192.541,128.116 192.000 C 127.978 191.473,128.104 191.200,128.484 191.200 C 128.898 191.200,129.012 190.860,128.885 190.000 C 128.750 189.081,128.863 188.800,129.369 188.800 C 129.921 188.800,129.953 188.660,129.563 187.932 C 129.185 187.225,129.220 186.975,129.749 186.588 C 130.107 186.326,130.400 185.817,130.400 185.456 C 130.400 185.095,130.676 184.800,131.014 184.800 C 131.520 184.800,131.547 184.648,131.163 183.932 C 130.787 183.228,130.819 182.976,131.330 182.602 C 131.724 182.314,131.877 181.814,131.735 181.275 C 131.584 180.697,131.723 180.328,132.152 180.163 C 132.506 180.027,132.688 179.743,132.557 179.531 C 132.427 179.319,132.693 179.048,133.150 178.929 C 133.813 178.756,133.902 178.564,133.590 177.982 C 132.984 176.849,133.123 176.400,134.080 176.400 C 134.764 176.400,134.853 176.293,134.480 175.920 C 133.810 175.250,133.880 174.000,134.587 174.000 C 134.955 174.000,135.085 173.767,134.935 173.376 C 134.777 172.962,134.975 172.679,135.526 172.535 C 136.235 172.350,136.286 172.205,135.878 171.535 C 135.493 170.904,135.517 170.659,136.000 170.276 C 136.345 170.002,136.546 169.332,136.473 168.700 C 136.381 167.899,136.524 167.600,136.997 167.600 C 137.386 167.600,137.533 167.415,137.362 167.139 C 137.206 166.886,137.349 166.480,137.681 166.237 C 138.013 165.995,138.266 165.347,138.242 164.798 C 138.211 164.057,138.391 163.816,138.943 163.863 C 139.485 163.908,139.566 163.806,139.243 163.483 C 138.614 162.854,138.694 161.600,139.363 161.600 C 139.728 161.600,139.852 161.320,139.716 160.800 C 139.551 160.170,139.704 160.000,140.433 160.000 C 141.154 160.000,141.253 159.893,140.880 159.520 C 140.235 158.875,140.269 157.600,140.931 157.600 C 141.293 157.600,141.406 157.219,141.285 156.400 C 141.156 155.516,141.269 155.200,141.717 155.200 C 142.128 155.200,142.257 154.941,142.116 154.400 C 141.978 153.873,142.104 153.600,142.484 153.600 C 142.898 153.600,143.012 153.260,142.885 152.400 C 142.758 151.529,142.871 151.200,143.299 151.200 C 143.719 151.200,143.832 150.900,143.690 150.157 C 143.574 149.551,143.702 148.984,143.996 148.802 C 145.720 147.737,143.441 147.600,123.976 147.600 L 104.000 147.600 104.000 148.600 M9.400 182.800 C 9.240 183.058,9.290 183.450,9.510 183.670 C 9.776 183.936,10.006 183.913,10.200 183.600 C 10.360 183.342,10.310 182.950,10.090 182.730 C 9.824 182.464,9.594 182.487,9.400 182.800 M9.371 216.800 C 9.371 217.240,9.564 217.600,9.800 217.600 C 10.036 217.600,10.229 217.240,10.229 216.800 C 10.229 216.360,10.036 216.000,9.800 216.000 C 9.564 216.000,9.371 216.360,9.371 216.800 M25.600 279.500 C 25.600 279.812,25.814 279.995,26.075 279.908 C 26.800 279.667,26.903 278.933,26.211 278.933 C 25.875 278.933,25.600 279.188,25.600 279.500 M359.200 304.933 C 359.200 305.227,359.470 305.467,359.800 305.467 C 360.130 305.467,360.400 305.227,360.400 304.933 C 360.400 304.640,360.130 304.400,359.800 304.400 C 359.470 304.400,359.200 304.640,359.200 304.933 M55.148 324.937 C 55.393 325.232,55.465 325.602,55.309 325.758 C 55.152 325.914,55.329 325.925,55.702 325.782 C 56.283 325.559,56.300 325.443,55.818 324.961 C 55.102 324.245,54.557 324.225,55.148 324.937 M64.800 335.081 C 64.800 335.543,65.935 336.609,66.158 336.357 C 66.234 336.271,65.960 335.854,65.548 335.430 C 65.137 335.007,64.800 334.849,64.800 335.081 M304.400 359.800 C 304.400 360.130,304.640 360.400,304.933 360.400 C 305.227 360.400,305.467 360.130,305.467 359.800 C 305.467 359.470,305.227 359.200,304.933 359.200 C 304.640 359.200,304.400 359.470,304.400 359.800 M98.000 362.086 C 98.000 362.259,98.360 362.400,98.800 362.400 C 99.240 362.400,99.600 362.259,99.600 362.086 C 99.600 361.913,99.240 361.771,98.800 361.771 C 98.360 361.771,98.000 361.913,98.000 362.086 M127.333 377.000 C 127.333 377.330,127.573 377.600,127.867 377.600 C 128.160 377.600,128.400 377.330,128.400 377.000 C 128.400 376.670,128.160 376.400,127.867 376.400 C 127.573 376.400,127.333 376.670,127.333 377.000 " stroke="none" fill="#ec7434" fill-rule="evenodd"></path><path id="path2" d="M232.561 111.900 C 261.979 111.976,273.071 112.127,273.470 112.458 C 273.904 112.819,273.966 112.776,273.766 112.257 C 273.535 111.653,270.240 111.608,232.857 111.698 L 192.200 111.796 232.561 111.900 M191.200 114.229 C 191.200 114.354,191.470 114.727,191.800 115.057 C 192.451 115.708,192.533 115.611,192.157 114.633 C 191.929 114.038,191.200 113.730,191.200 114.229 M275.336 116.549 C 275.863 116.973,275.990 117.400,275.784 118.052 C 275.512 118.908,275.535 118.922,276.173 118.284 C 276.941 117.516,276.751 116.995,275.478 116.380 C 274.656 115.983,274.647 115.994,275.336 116.549 M187.200 124.324 C 187.200 124.539,187.485 124.824,187.833 124.957 C 188.223 125.107,188.406 125.018,188.308 124.725 C 188.109 124.127,187.200 123.798,187.200 124.324 M278.962 125.661 C 278.806 125.914,278.998 126.355,279.389 126.641 C 279.781 126.928,279.997 127.430,279.871 127.760 C 279.714 128.167,279.827 128.288,280.220 128.137 C 281.029 127.827,280.944 127.346,279.957 126.655 C 279.493 126.330,279.233 125.870,279.380 125.632 C 279.527 125.394,279.557 125.200,279.447 125.200 C 279.337 125.200,279.119 125.407,278.962 125.661 M186.632 125.949 C 186.478 126.197,186.543 126.400,186.776 126.400 C 187.512 126.400,187.235 127.135,186.400 127.400 C 185.458 127.699,185.319 128.800,186.224 128.800 C 186.567 128.800,186.729 128.608,186.584 128.373 C 186.439 128.139,186.633 127.718,187.016 127.438 C 187.542 127.053,187.614 126.754,187.311 126.213 C 187.042 125.732,186.819 125.645,186.632 125.949 M184.000 132.200 C 184.000 132.530,184.264 132.800,184.587 132.800 C 184.945 132.800,185.085 132.565,184.945 132.200 C 184.818 131.870,184.554 131.600,184.357 131.600 C 184.161 131.600,184.000 131.870,184.000 132.200 M282.267 133.467 C 281.781 133.953,281.990 134.379,282.600 134.145 C 282.930 134.018,283.200 133.754,283.200 133.557 C 283.200 133.138,282.649 133.084,282.267 133.467 M184.000 134.971 C 184.000 135.285,183.685 135.624,183.300 135.724 C 182.773 135.862,182.823 135.919,183.500 135.954 C 184.149 135.987,184.400 135.777,184.400 135.200 C 184.400 134.760,184.310 134.400,184.200 134.400 C 184.090 134.400,184.000 134.657,184.000 134.971 M285.841 144.236 C 285.552 144.991,285.859 145.602,286.524 145.594 C 286.813 145.590,286.764 145.430,286.400 145.186 C 285.881 144.839,285.904 144.705,286.576 144.192 C 287.206 143.712,287.233 143.600,286.719 143.600 C 286.371 143.600,285.976 143.886,285.841 144.236 M178.880 145.680 C 178.275 146.285,178.259 146.831,178.850 146.700 C 179.097 146.645,179.383 146.825,179.483 147.100 C 179.584 147.375,179.382 147.600,179.033 147.600 C 178.685 147.600,178.400 147.786,178.400 148.014 C 178.400 148.295,178.658 148.290,179.200 148.000 C 180.092 147.523,180.158 147.269,179.615 146.411 C 179.369 146.022,179.405 145.717,179.721 145.517 C 179.999 145.340,180.024 145.210,179.780 145.206 C 179.549 145.203,179.144 145.416,178.880 145.680 M103.800 146.800 C 103.636 147.065,110.389 147.200,123.757 147.200 C 141.910 147.200,143.997 147.265,144.321 147.844 C 144.649 148.432,144.703 148.430,144.936 147.823 C 145.086 147.433,145.028 147.259,144.795 147.403 C 144.578 147.537,144.400 147.367,144.400 147.024 C 144.400 146.272,104.263 146.051,103.800 146.800 M102.800 147.552 C 102.800 147.830,103.070 148.327,103.400 148.657 C 104.167 149.424,104.158 148.842,103.387 147.824 C 103.058 147.388,102.800 147.269,102.800 147.552 M287.588 148.023 C 287.003 149.116,287.219 149.257,288.085 148.348 C 288.462 147.953,288.606 147.528,288.405 147.403 C 288.205 147.279,287.837 147.558,287.588 148.023 M177.089 149.844 C 176.666 150.267,176.736 150.887,177.175 150.615 C 177.382 150.488,177.736 150.702,177.963 151.092 C 178.190 151.481,178.381 151.609,178.388 151.376 C 178.407 150.704,177.408 149.526,177.089 149.844 M142.828 151.884 C 142.916 152.874,143.472 153.711,143.680 153.169 C 143.801 152.854,143.652 152.365,143.350 152.082 C 143.047 151.800,142.813 151.711,142.828 151.884 M100.400 153.924 C 100.400 154.139,100.685 154.424,101.033 154.557 C 101.423 154.707,101.606 154.618,101.508 154.325 C 101.309 153.727,100.400 153.398,100.400 153.924 M141.055 157.711 C 140.360 158.219,140.498 159.600,141.243 159.600 C 141.781 159.600,141.672 158.893,141.100 158.679 C 140.754 158.549,140.846 158.297,141.400 157.859 C 142.353 157.104,142.058 156.977,141.055 157.711 M98.753 159.500 C 98.727 159.665,98.736 159.964,98.774 160.163 C 98.811 160.363,98.608 160.675,98.321 160.857 C 97.939 161.100,97.999 161.189,98.547 161.194 C 99.091 161.198,99.238 160.989,99.090 160.421 C 98.958 159.916,99.117 159.581,99.543 159.467 C 100.116 159.315,100.111 159.287,99.500 159.246 C 99.115 159.221,98.779 159.335,98.753 159.500 M292.226 160.922 C 292.369 161.295,292.658 161.600,292.870 161.600 C 293.081 161.600,293.143 161.949,293.008 162.376 C 292.831 162.933,293.020 163.277,293.681 163.598 C 294.573 164.031,294.577 164.026,293.802 163.406 C 293.127 162.867,293.094 162.713,293.590 162.406 C 293.913 162.207,294.092 161.987,293.988 161.917 C 293.885 161.848,293.387 161.443,292.883 161.018 C 292.098 160.356,292.003 160.343,292.226 160.922 M138.812 162.000 C 138.812 162.690,139.480 163.870,139.711 163.588 C 139.796 163.485,139.629 162.950,139.339 162.400 C 139.048 161.849,138.812 161.669,138.812 162.000 M96.800 163.800 C 96.391 164.293,96.422 164.400,96.975 164.400 C 97.345 164.400,97.545 164.235,97.421 164.034 C 97.297 163.833,97.421 163.577,97.698 163.466 C 98.011 163.340,98.030 163.251,97.749 163.232 C 97.501 163.214,97.074 163.470,96.800 163.800 M138.349 165.100 C 138.912 166.157,139.600 166.285,139.600 165.333 C 139.600 164.967,139.482 164.785,139.337 164.930 C 139.192 165.075,138.803 164.970,138.471 164.697 C 137.946 164.264,137.931 164.315,138.349 165.100 M137.100 167.632 C 136.715 167.856,136.400 168.224,136.400 168.448 C 136.400 168.673,136.693 168.564,137.052 168.206 C 137.410 167.847,137.950 167.649,138.252 167.764 C 138.553 167.880,138.800 167.801,138.800 167.587 C 138.800 167.090,137.995 167.111,137.100 167.632 M169.425 171.256 C 168.783 171.880,168.742 172.095,169.184 172.505 C 169.610 172.901,169.658 172.895,169.419 172.473 C 169.238 172.156,169.413 171.732,169.859 171.406 C 170.266 171.109,170.509 170.784,170.399 170.684 C 170.290 170.585,169.851 170.842,169.425 171.256 M136.255 171.800 C 136.386 172.140,136.265 172.400,135.976 172.400 C 135.696 172.400,135.582 172.516,135.724 172.657 C 136.021 172.955,137.200 172.072,137.200 171.551 C 137.200 171.358,136.936 171.200,136.613 171.200 C 136.255 171.200,136.115 171.435,136.255 171.800 M92.100 177.288 C 91.605 177.527,91.206 178.010,91.213 178.361 C 91.224 178.926,91.284 178.930,91.731 178.400 C 92.009 178.070,92.489 177.575,92.798 177.300 C 93.465 176.707,93.312 176.704,92.100 177.288 M299.078 177.457 C 299.340 177.564,299.455 177.912,299.333 178.230 C 299.176 178.639,299.303 178.735,299.766 178.558 C 300.495 178.278,299.899 177.172,299.051 177.232 C 298.745 177.253,298.754 177.326,299.078 177.457 M299.678 179.871 C 300.119 179.988,300.267 180.281,300.102 180.712 C 299.877 181.297,299.921 181.306,300.480 180.787 C 301.163 180.152,300.718 179.577,299.600 179.653 C 299.153 179.683,299.173 179.738,299.678 179.871 M89.600 182.029 C 89.600 182.264,89.905 182.759,90.278 183.129 C 90.912 183.757,90.938 183.754,90.678 183.067 C 90.525 182.664,90.400 182.169,90.400 181.967 C 90.400 181.765,90.220 181.600,90.000 181.600 C 89.780 181.600,89.600 181.793,89.600 182.029 M301.081 182.133 C 300.968 182.427,301.129 182.667,301.438 182.667 C 301.747 182.667,302.000 182.427,302.000 182.133 C 302.000 181.840,301.839 181.600,301.643 181.600 C 301.446 181.600,301.193 181.840,301.081 182.133 M131.455 184.200 C 131.582 184.530,131.846 184.800,132.043 184.800 C 132.239 184.800,132.400 184.530,132.400 184.200 C 132.400 183.870,132.136 183.600,131.813 183.600 C 131.455 183.600,131.315 183.835,131.455 184.200 M130.511 185.713 C 130.665 186.114,130.586 186.400,130.321 186.400 C 130.071 186.400,129.973 186.506,130.103 186.637 C 130.233 186.767,130.605 186.722,130.929 186.537 C 131.441 186.243,131.436 186.124,130.883 185.613 C 130.320 185.093,130.278 185.104,130.511 185.713 M304.643 192.633 C 304.304 193.515,304.307 193.522,305.200 194.000 C 305.742 194.290,306.000 194.295,306.000 194.014 C 306.000 193.786,305.730 193.600,305.400 193.600 C 305.070 193.600,304.800 193.420,304.800 193.200 C 304.800 192.980,305.070 192.800,305.400 192.800 C 305.730 192.800,306.000 192.620,306.000 192.400 C 306.000 191.754,304.908 191.942,304.643 192.633 M160.032 196.839 C 160.014 197.190,159.655 197.640,159.233 197.839 C 158.542 198.164,158.528 198.257,159.089 198.768 C 159.627 199.259,159.686 199.259,159.521 198.768 C 159.416 198.456,159.595 198.004,159.920 197.765 C 160.245 197.526,160.410 197.076,160.287 196.765 C 160.111 196.320,160.056 196.336,160.032 196.839 M124.122 202.133 C 124.275 202.536,124.400 203.031,124.400 203.233 C 124.400 203.435,124.580 203.600,124.800 203.600 C 125.417 203.600,125.274 202.817,124.522 202.071 C 123.888 201.443,123.862 201.446,124.122 202.133 M308.590 202.830 C 308.446 203.287,308.433 203.767,308.563 203.897 C 308.694 204.027,308.800 203.833,308.800 203.467 C 308.800 203.100,308.980 202.800,309.200 202.800 C 309.420 202.800,309.600 202.620,309.600 202.400 C 309.600 201.670,308.858 201.986,308.590 202.830 M309.200 205.184 C 309.200 205.427,309.480 205.733,309.823 205.864 C 310.166 205.996,310.355 206.341,310.243 206.631 C 310.115 206.967,310.252 207.078,310.620 206.937 C 311.261 206.691,311.415 206.000,310.829 206.000 C 310.624 206.000,310.174 205.717,309.829 205.371 C 309.483 205.026,309.200 204.941,309.200 205.184 M122.000 209.200 C 122.000 209.420,122.270 209.600,122.600 209.600 C 122.930 209.600,123.200 209.420,123.200 209.200 C 123.200 208.980,122.930 208.800,122.600 208.800 C 122.270 208.800,122.000 208.980,122.000 209.200 M154.287 209.500 C 154.198 209.665,154.274 210.250,154.456 210.800 C 154.784 211.798,154.785 211.798,154.651 210.714 C 154.577 210.117,154.715 209.546,154.958 209.446 C 155.257 209.322,155.246 209.253,154.924 209.232 C 154.662 209.214,154.375 209.335,154.287 209.500 M311.600 211.215 C 311.600 211.441,311.880 211.733,312.223 211.864 C 312.566 211.996,312.755 212.341,312.643 212.631 C 312.515 212.967,312.652 213.078,313.020 212.937 C 313.761 212.653,313.775 212.697,312.600 211.675 C 312.050 211.197,311.600 210.990,311.600 211.215 M78.100 211.865 C 77.393 212.150,77.478 212.800,78.224 212.800 C 78.567 212.800,78.744 212.634,78.619 212.430 C 78.493 212.227,78.707 211.978,79.095 211.877 C 79.562 211.755,79.598 211.688,79.200 211.678 C 78.870 211.670,78.375 211.754,78.100 211.865 M78.800 213.600 C 78.800 213.820,78.530 214.000,78.200 214.000 C 77.870 214.000,77.600 214.186,77.600 214.414 C 77.600 214.695,77.858 214.690,78.400 214.400 C 79.112 214.019,79.521 213.200,79.000 213.200 C 78.890 213.200,78.800 213.380,78.800 213.600 M119.687 215.191 C 119.965 215.636,120.329 216.000,120.496 216.000 C 121.074 216.000,120.797 215.391,119.991 214.887 C 119.241 214.419,119.219 214.441,119.687 215.191 M76.400 216.200 C 75.992 216.691,76.020 216.800,76.551 216.800 C 76.908 216.800,77.200 216.530,77.200 216.200 C 77.200 215.870,77.132 215.600,77.049 215.600 C 76.966 215.600,76.674 215.870,76.400 216.200 M314.281 216.533 C 314.168 216.827,314.329 217.067,314.638 217.067 C 314.947 217.067,315.200 216.827,315.200 216.533 C 315.200 216.240,315.039 216.000,314.843 216.000 C 314.646 216.000,314.393 216.240,314.281 216.533 M117.455 221.800 C 117.586 222.140,117.465 222.400,117.176 222.400 C 116.896 222.400,116.782 222.516,116.924 222.657 C 117.221 222.955,118.400 222.072,118.400 221.551 C 118.400 221.358,118.136 221.200,117.813 221.200 C 117.455 221.200,117.315 221.435,117.455 221.800 M70.933 230.465 C 70.933 230.778,71.173 231.259,71.467 231.533 C 71.760 231.807,72.000 231.879,72.000 231.692 C 72.000 231.506,71.760 231.025,71.467 230.624 C 71.079 230.094,70.933 230.050,70.933 230.465 M70.800 233.357 C 70.800 233.737,70.620 233.936,70.400 233.800 C 70.180 233.664,70.000 233.743,70.000 233.976 C 70.000 234.209,70.186 234.400,70.413 234.400 C 70.912 234.400,71.399 233.265,71.049 232.916 C 70.912 232.779,70.800 232.977,70.800 233.357 M112.681 234.267 C 112.793 234.560,113.046 234.800,113.243 234.800 C 113.439 234.800,113.600 234.560,113.600 234.267 C 113.600 233.973,113.347 233.733,113.038 233.733 C 112.729 233.733,112.568 233.973,112.681 234.267 M110.271 240.240 C 110.397 240.569,110.181 241.072,109.790 241.358 C 109.266 241.741,109.207 241.957,109.566 242.179 C 109.834 242.345,110.161 242.372,110.293 242.240 C 110.425 242.108,110.283 242.000,109.978 242.000 C 109.646 242.000,109.781 241.749,110.311 241.377 C 111.341 240.656,111.439 240.177,110.620 239.863 C 110.227 239.712,110.114 239.833,110.271 240.240 M141.144 243.192 C 140.337 243.869,140.287 244.043,140.800 244.392 C 141.333 244.755,141.333 244.848,140.800 245.230 C 140.267 245.613,140.267 245.642,140.800 245.486 C 141.152 245.384,141.357 244.936,141.295 244.403 C 141.238 243.903,141.508 243.255,141.895 242.960 C 142.283 242.666,142.485 242.420,142.344 242.413 C 142.204 242.406,141.664 242.756,141.144 243.192 M107.638 245.600 C 107.602 246.448,108.296 247.437,108.667 247.067 C 108.837 246.896,108.784 246.631,108.548 246.478 C 108.313 246.325,108.017 245.930,107.892 245.600 C 107.689 245.067,107.660 245.067,107.638 245.600 M139.876 246.981 C 139.557 247.300,139.214 247.480,139.114 247.381 C 139.015 247.281,138.933 247.433,138.933 247.718 C 138.933 248.002,139.194 248.478,139.512 248.776 C 140.008 249.239,140.052 249.194,139.818 248.458 C 139.669 247.986,139.719 247.600,139.930 247.600 C 140.142 247.600,140.418 247.330,140.545 247.000 C 140.835 246.244,140.619 246.238,139.876 246.981 M326.400 249.596 C 326.400 249.832,326.683 250.134,327.030 250.267 C 327.474 250.437,327.586 250.801,327.410 251.503 C 327.175 252.439,327.200 252.457,327.841 251.816 C 328.482 251.175,328.460 251.078,327.461 250.151 C 326.877 249.610,326.400 249.361,326.400 249.596 M105.200 251.927 C 105.200 252.561,106.282 253.714,106.518 253.332 C 106.651 253.118,106.408 252.642,105.980 252.275 C 105.551 251.908,105.200 251.752,105.200 251.927 M328.800 255.800 C 328.800 256.130,329.115 256.397,329.500 256.394 C 330.048 256.389,330.081 256.313,329.655 256.042 C 329.194 255.751,329.194 255.663,329.655 255.480 C 330.035 255.329,329.988 255.254,329.500 255.232 C 329.115 255.214,328.800 255.470,328.800 255.800 M330.400 259.584 C 330.400 259.827,330.670 260.129,331.000 260.255 C 331.330 260.382,331.600 260.736,331.600 261.043 C 331.600 261.349,331.780 261.600,332.000 261.600 C 332.220 261.600,332.400 261.330,332.400 261.000 C 332.400 260.670,332.233 260.400,332.029 260.400 C 331.824 260.400,331.374 260.117,331.029 259.771 C 330.683 259.426,330.400 259.341,330.400 259.584 M60.100 260.012 C 59.605 260.211,59.200 260.560,59.200 260.787 C 59.200 261.395,59.531 261.296,60.492 260.400 C 61.440 259.517,61.409 259.486,60.100 260.012 M133.680 261.280 C 133.020 261.940,133.079 262.400,133.824 262.400 C 134.179 262.400,134.329 262.209,134.172 261.955 C 134.021 261.711,134.146 261.353,134.449 261.161 C 134.752 260.969,134.811 260.809,134.580 260.806 C 134.349 260.803,133.944 261.016,133.680 261.280 M100.892 265.275 C 101.091 265.873,102.000 266.202,102.000 265.676 C 102.000 265.461,101.715 265.176,101.367 265.043 C 100.977 264.893,100.794 264.982,100.892 265.275 M131.733 265.800 C 131.733 266.130,131.968 266.400,132.254 266.400 C 132.553 266.400,132.677 266.144,132.545 265.800 C 132.418 265.470,132.184 265.200,132.024 265.200 C 131.864 265.200,131.733 265.470,131.733 265.800 M98.636 271.748 C 98.751 272.050,98.566 272.404,98.223 272.536 C 97.880 272.667,97.614 273.096,97.632 273.487 C 97.656 274.049,97.712 274.073,97.895 273.600 C 98.022 273.270,98.458 272.765,98.863 272.477 C 99.748 271.849,99.824 271.200,99.013 271.200 C 98.679 271.200,98.516 271.437,98.636 271.748 M129.502 272.467 C 129.607 272.870,129.852 273.200,130.047 273.200 C 130.241 273.200,130.400 272.870,130.400 272.467 C 130.400 272.063,130.155 271.733,129.855 271.733 C 129.523 271.733,129.385 272.020,129.502 272.467 " stroke="none" fill="#ec9165" fill-rule="evenodd"></path><path id="path3" d="M273.200 111.156 C 273.200 111.692,274.445 112.888,274.719 112.615 C 274.841 112.492,274.550 112.026,274.071 111.580 C 273.592 111.134,273.200 110.943,273.200 111.156 M192.000 112.600 C 192.000 112.930,192.180 113.200,192.400 113.200 C 192.620 113.200,192.800 112.930,192.800 112.600 C 192.800 112.270,192.620 112.000,192.400 112.000 C 192.180 112.000,192.000 112.270,192.000 112.600 M275.200 115.800 C 275.200 116.130,275.380 116.400,275.600 116.400 C 275.820 116.400,276.000 116.130,276.000 115.800 C 276.000 115.470,275.820 115.200,275.600 115.200 C 275.380 115.200,275.200 115.470,275.200 115.800 M190.400 116.776 C 190.400 117.203,190.580 117.664,190.800 117.800 C 191.027 117.940,191.200 117.604,191.200 117.024 C 191.200 116.461,191.020 116.000,190.800 116.000 C 190.580 116.000,190.400 116.349,190.400 116.776 M280.800 129.487 C 280.800 129.733,280.675 130.264,280.522 130.667 C 280.254 131.375,280.270 131.375,280.977 130.674 C 281.523 130.133,281.593 129.833,281.254 129.494 C 280.924 129.164,280.800 129.162,280.800 129.487 M183.200 134.800 C 183.200 135.240,183.380 135.600,183.600 135.600 C 183.820 135.600,184.000 135.240,184.000 134.800 C 184.000 134.360,183.820 134.000,183.600 134.000 C 183.380 134.000,183.200 134.360,183.200 134.800 M284.643 140.233 C 284.296 141.136,284.329 141.202,285.000 140.945 C 285.330 140.818,285.600 140.464,285.600 140.157 C 285.600 139.399,284.943 139.451,284.643 140.233 M179.200 144.800 C 179.200 145.020,179.470 145.200,179.800 145.200 C 180.130 145.200,180.400 145.020,180.400 144.800 C 180.400 144.580,180.130 144.400,179.800 144.400 C 179.470 144.400,179.200 144.580,179.200 144.800 M286.800 146.400 C 286.800 146.620,287.070 146.800,287.400 146.800 C 287.730 146.800,288.000 146.620,288.000 146.400 C 288.000 146.180,287.730 146.000,287.400 146.000 C 287.070 146.000,286.800 146.180,286.800 146.400 M144.800 148.200 C 144.800 148.530,144.980 148.800,145.200 148.800 C 145.420 148.800,145.600 148.530,145.600 148.200 C 145.600 147.870,145.420 147.600,145.200 147.600 C 144.980 147.600,144.800 147.870,144.800 148.200 M177.854 148.602 C 177.715 148.965,177.856 149.200,178.213 149.200 C 178.860 149.200,179.007 148.575,178.442 148.226 C 178.245 148.104,177.981 148.274,177.854 148.602 M102.243 149.930 C 102.082 150.192,102.230 150.688,102.574 151.032 C 103.245 151.703,103.325 151.462,102.841 150.227 C 102.631 149.691,102.447 149.600,102.243 149.930 M143.891 150.425 C 144.001 150.846,144.250 151.092,144.445 150.972 C 144.972 150.646,144.875 150.114,144.245 149.873 C 143.857 149.724,143.751 149.889,143.891 150.425 M288.656 149.878 C 288.178 150.356,288.398 151.200,289.000 151.200 C 289.330 151.200,289.600 150.941,289.600 150.624 C 289.600 149.955,289.029 149.504,288.656 149.878 M176.110 152.800 C 176.076 153.257,176.296 153.600,176.625 153.600 C 176.941 153.600,177.200 153.240,177.200 152.800 C 177.200 152.360,176.968 152.000,176.685 152.000 C 176.402 152.000,176.143 152.360,176.110 152.800 M289.860 154.587 C 289.626 155.198,290.273 155.860,290.693 155.440 C 290.825 155.308,290.713 155.200,290.443 155.200 C 290.173 155.200,290.066 155.017,290.204 154.793 C 290.342 154.570,290.651 154.508,290.889 154.655 C 291.149 154.815,291.209 154.737,291.038 154.462 C 290.646 153.828,290.131 153.883,289.860 154.587 M175.200 155.000 C 175.200 155.330,175.515 155.597,175.900 155.594 C 176.448 155.589,176.481 155.513,176.055 155.242 C 175.594 154.951,175.594 154.863,176.055 154.680 C 176.435 154.529,176.388 154.454,175.900 154.432 C 175.515 154.414,175.200 154.670,175.200 155.000 M292.400 160.176 C 292.400 160.493,292.580 160.864,292.800 161.000 C 293.020 161.136,293.200 160.877,293.200 160.424 C 293.200 159.971,293.020 159.600,292.800 159.600 C 292.580 159.600,292.400 159.859,292.400 160.176 M140.500 160.265 C 139.804 160.546,139.873 161.200,140.600 161.200 C 140.930 161.200,141.200 160.930,141.200 160.600 C 141.200 160.270,141.155 160.014,141.100 160.032 C 141.045 160.049,140.775 160.154,140.500 160.265 M97.200 162.800 C 97.200 163.020,97.470 163.200,97.800 163.200 C 98.130 163.200,98.400 163.020,98.400 162.800 C 98.400 162.580,98.130 162.400,97.800 162.400 C 97.470 162.400,97.200 162.580,97.200 162.800 M294.067 164.275 C 293.420 165.484,293.484 165.774,294.232 165.025 C 294.580 164.677,294.790 164.170,294.699 163.897 C 294.597 163.592,294.355 163.737,294.067 164.275 M137.600 166.800 C 137.600 167.020,137.870 167.200,138.200 167.200 C 138.530 167.200,138.800 167.020,138.800 166.800 C 138.800 166.580,138.530 166.400,138.200 166.400 C 137.870 166.400,137.600 166.580,137.600 166.800 M169.200 170.600 C 169.200 170.930,169.380 171.200,169.600 171.200 C 169.820 171.200,170.000 170.930,170.000 170.600 C 170.000 170.270,169.820 170.000,169.600 170.000 C 169.380 170.000,169.200 170.270,169.200 170.600 M167.600 174.557 C 167.600 174.864,167.870 175.218,168.200 175.345 C 168.871 175.602,168.904 175.536,168.557 174.633 C 168.257 173.851,167.600 173.799,167.600 174.557 M297.843 174.633 C 297.467 175.611,297.549 175.708,298.200 175.057 C 298.880 174.377,298.967 174.000,298.443 174.000 C 298.246 174.000,297.976 174.285,297.843 174.633 M166.133 178.183 C 166.133 178.503,166.353 178.850,166.621 178.953 C 166.937 179.074,167.038 178.869,166.908 178.370 C 166.672 177.468,166.133 177.338,166.133 178.183 M132.255 181.800 C 132.382 182.130,132.646 182.400,132.843 182.400 C 133.039 182.400,133.200 182.130,133.200 181.800 C 133.200 181.470,132.936 181.200,132.613 181.200 C 132.255 181.200,132.115 181.435,132.255 181.800 M163.788 184.420 C 163.407 185.035,163.928 185.432,164.442 184.918 C 164.729 184.631,164.736 184.407,164.462 184.239 C 164.239 184.100,163.935 184.182,163.788 184.420 M301.840 184.640 C 301.694 185.022,301.786 185.529,302.046 185.767 C 302.388 186.081,302.446 186.072,302.256 185.734 C 302.113 185.478,302.221 185.185,302.498 185.084 C 302.869 184.948,302.884 184.776,302.553 184.423 C 302.211 184.058,302.044 184.109,301.840 184.640 M129.722 187.333 C 129.875 187.736,130.000 188.267,130.000 188.513 C 130.000 188.838,130.124 188.836,130.454 188.506 C 130.793 188.167,130.723 187.867,130.177 187.326 C 129.470 186.625,129.454 186.625,129.722 187.333 M160.400 192.800 C 160.400 193.244,160.667 193.600,161.000 193.600 C 161.333 193.600,161.600 193.244,161.600 192.800 C 161.600 192.356,161.333 192.000,161.000 192.000 C 160.667 192.000,160.400 192.356,160.400 192.800 M84.800 194.600 C 84.800 194.930,84.980 195.200,85.200 195.200 C 85.420 195.200,85.600 194.930,85.600 194.600 C 85.600 194.270,85.420 194.000,85.200 194.000 C 84.980 194.000,84.800 194.270,84.800 194.600 M305.867 194.267 C 305.452 194.682,305.553 196.000,306.000 196.000 C 306.220 196.000,306.400 195.550,306.400 195.000 C 306.400 193.953,306.308 193.826,305.867 194.267 M159.056 195.878 C 158.605 196.328,158.781 196.800,159.400 196.800 C 159.730 196.800,160.000 196.631,160.000 196.424 C 160.000 195.919,159.375 195.558,159.056 195.878 M83.200 198.429 C 83.200 198.664,83.505 199.159,83.878 199.529 C 84.512 200.157,84.538 200.154,84.278 199.467 C 84.125 199.064,84.000 198.569,84.000 198.367 C 84.000 198.165,83.820 198.000,83.600 198.000 C 83.380 198.000,83.200 198.193,83.200 198.429 M125.092 200.430 C 125.324 201.316,126.000 201.474,126.000 200.643 C 126.000 200.336,125.750 199.990,125.445 199.873 C 125.056 199.723,124.951 199.890,125.092 200.430 M124.000 204.000 C 123.683 204.196,123.556 204.489,123.718 204.652 C 123.881 204.814,124.223 204.737,124.480 204.480 C 125.084 203.876,124.747 203.538,124.000 204.000 M309.600 205.000 C 309.600 205.330,309.780 205.600,310.000 205.600 C 310.220 205.600,310.400 205.330,310.400 205.000 C 310.400 204.670,310.220 204.400,310.000 204.400 C 309.780 204.400,309.600 204.670,309.600 205.000 M311.030 209.067 C 310.889 209.434,310.970 209.929,311.211 210.167 C 311.525 210.479,311.573 210.405,311.381 209.900 C 311.226 209.494,311.301 209.200,311.557 209.200 C 311.801 209.200,312.000 209.020,312.000 208.800 C 312.000 208.152,311.308 208.343,311.030 209.067 M153.600 210.800 C 153.600 211.240,153.780 211.600,154.000 211.600 C 154.220 211.600,154.400 211.240,154.400 210.800 C 154.400 210.360,154.220 210.000,154.000 210.000 C 153.780 210.000,153.600 210.360,153.600 210.800 M152.000 214.029 C 152.000 214.264,152.305 214.759,152.678 215.129 C 153.312 215.757,153.338 215.754,153.078 215.067 C 152.925 214.664,152.800 214.169,152.800 213.967 C 152.800 213.765,152.620 213.600,152.400 213.600 C 152.180 213.600,152.000 213.793,152.000 214.029 M119.692 214.475 C 119.779 214.736,120.109 215.020,120.425 215.105 C 120.900 215.234,120.905 215.195,120.455 214.879 C 119.994 214.556,119.994 214.463,120.455 214.280 C 120.822 214.134,120.760 214.053,120.267 214.032 C 119.863 214.014,119.605 214.214,119.692 214.475 M76.933 215.038 C 76.933 215.347,77.173 215.600,77.467 215.600 C 77.760 215.600,78.000 215.439,78.000 215.243 C 78.000 215.046,77.760 214.793,77.467 214.681 C 77.173 214.568,76.933 214.729,76.933 215.038 M313.600 215.000 C 313.600 215.330,313.780 215.600,314.000 215.600 C 314.220 215.600,314.400 215.330,314.400 215.000 C 314.400 214.670,314.220 214.400,314.000 214.400 C 313.780 214.400,313.600 214.670,313.600 215.000 M150.745 218.758 C 151.206 219.049,151.206 219.137,150.745 219.320 C 150.365 219.471,150.412 219.546,150.900 219.568 C 151.285 219.586,151.600 219.330,151.600 219.000 C 151.600 218.670,151.285 218.403,150.900 218.406 C 150.352 218.411,150.319 218.487,150.745 218.758 M315.030 219.067 C 314.889 219.434,314.986 219.929,315.246 220.167 C 315.591 220.484,315.642 220.466,315.435 220.100 C 315.280 219.825,315.343 219.600,315.576 219.600 C 315.809 219.600,316.000 219.330,316.000 219.000 C 316.000 218.192,315.348 218.237,315.030 219.067 M118.254 219.398 C 118.381 219.726,118.645 219.896,118.842 219.774 C 119.407 219.425,119.260 218.800,118.613 218.800 C 118.256 218.800,118.115 219.035,118.254 219.398 M149.600 220.587 C 149.600 220.944,149.835 221.085,150.198 220.946 C 150.526 220.819,150.696 220.555,150.574 220.358 C 150.225 219.793,149.600 219.940,149.600 220.587 M146.400 228.351 C 146.400 228.818,146.569 229.200,146.776 229.200 C 147.469 229.200,147.598 228.496,146.996 227.996 C 146.500 227.585,146.400 227.645,146.400 228.351 M319.042 229.035 C 318.671 230.002,318.750 230.400,319.315 230.400 C 319.889 230.400,320.137 228.932,319.616 228.610 C 319.434 228.497,319.175 228.688,319.042 229.035 M113.510 230.623 C 113.188 230.945,113.628 232.400,114.047 232.400 C 114.241 232.400,114.400 232.130,114.400 231.800 C 114.400 231.470,114.175 231.197,113.900 231.194 C 113.567 231.190,113.600 231.058,114.000 230.800 C 114.330 230.587,114.405 230.409,114.167 230.406 C 113.928 230.403,113.633 230.500,113.510 230.623 M319.600 231.600 C 319.600 231.820,319.870 232.000,320.200 232.000 C 320.530 232.000,320.800 231.820,320.800 231.600 C 320.800 231.380,320.530 231.200,320.200 231.200 C 319.870 231.200,319.600 231.380,319.600 231.600 M144.933 232.200 C 144.933 232.530,145.168 232.800,145.454 232.800 C 145.753 232.800,145.877 232.544,145.745 232.200 C 145.618 231.870,145.384 231.600,145.224 231.600 C 145.064 231.600,144.933 231.870,144.933 232.200 M70.000 232.976 C 70.000 233.293,70.180 233.664,70.400 233.800 C 70.620 233.936,70.800 233.677,70.800 233.224 C 70.800 232.771,70.620 232.400,70.400 232.400 C 70.180 232.400,70.000 232.659,70.000 232.976 M320.979 232.766 C 321.103 232.967,320.979 233.223,320.702 233.334 C 320.399 233.456,320.478 233.549,320.900 233.568 C 321.285 233.586,321.600 233.330,321.600 233.000 C 321.600 232.670,321.409 232.400,321.176 232.400 C 320.943 232.400,320.855 232.565,320.979 232.766 M144.000 234.800 C 144.000 235.020,144.270 235.200,144.600 235.200 C 144.930 235.200,145.200 235.020,145.200 234.800 C 145.200 234.580,144.930 234.400,144.600 234.400 C 144.270 234.400,144.000 234.580,144.000 234.800 M111.200 238.200 C 111.200 238.530,111.380 238.800,111.600 238.800 C 111.820 238.800,112.000 238.530,112.000 238.200 C 112.000 237.870,111.820 237.600,111.600 237.600 C 111.380 237.600,111.200 237.870,111.200 238.200 M322.800 239.600 C 322.800 240.044,323.067 240.400,323.400 240.400 C 324.073 240.400,324.100 240.327,323.757 239.433 C 323.414 238.539,322.800 238.646,322.800 239.600 M324.104 241.094 C 323.727 241.223,323.747 241.404,324.187 241.844 C 324.505 242.162,324.664 242.688,324.540 243.012 C 324.416 243.335,324.514 243.600,324.757 243.600 C 325.237 243.600,325.267 243.072,324.860 241.762 C 324.717 241.301,324.377 241.000,324.104 241.094 M66.480 242.480 C 65.916 243.044,65.853 243.600,66.353 243.600 C 66.548 243.600,66.801 243.240,66.916 242.800 C 67.160 241.866,67.122 241.838,66.480 242.480 M139.600 246.200 C 139.600 246.530,139.780 246.800,140.000 246.800 C 140.220 246.800,140.400 246.530,140.400 246.200 C 140.400 245.870,140.220 245.600,140.000 245.600 C 139.780 245.600,139.600 245.870,139.600 246.200 M64.610 246.784 C 64.271 247.333,64.571 247.745,65.162 247.542 C 65.404 247.458,65.435 247.176,65.237 246.857 C 64.987 246.455,64.825 246.436,64.610 246.784 M326.800 249.400 C 326.800 249.730,326.980 250.000,327.200 250.000 C 327.420 250.000,327.600 249.730,327.600 249.400 C 327.600 249.070,327.420 248.800,327.200 248.800 C 326.980 248.800,326.800 249.070,326.800 249.400 M63.600 249.600 C 63.600 249.820,63.870 250.000,64.200 250.000 C 64.530 250.000,64.800 249.820,64.800 249.600 C 64.800 249.380,64.530 249.200,64.200 249.200 C 63.870 249.200,63.600 249.380,63.600 249.600 M106.400 250.200 C 106.400 250.750,106.569 251.200,106.776 251.200 C 107.359 251.200,107.662 250.486,107.200 250.200 C 106.973 250.060,106.891 249.777,107.017 249.572 C 107.144 249.368,107.057 249.200,106.824 249.200 C 106.591 249.200,106.400 249.650,106.400 250.200 M138.000 250.200 C 138.000 250.530,138.180 250.800,138.400 250.800 C 138.620 250.800,138.800 250.530,138.800 250.200 C 138.800 249.870,138.620 249.600,138.400 249.600 C 138.180 249.600,138.000 249.870,138.000 250.200 M136.400 254.224 C 136.400 254.567,136.580 254.736,136.800 254.600 C 137.020 254.464,137.200 254.528,137.200 254.743 C 137.200 254.958,136.975 255.224,136.700 255.335 C 136.339 255.481,136.333 255.546,136.676 255.568 C 137.335 255.612,137.650 254.996,137.359 254.236 C 137.045 253.419,136.400 253.411,136.400 254.224 M104.800 254.400 C 104.800 254.620,105.070 254.800,105.400 254.800 C 105.730 254.800,106.000 254.620,106.000 254.400 C 106.000 254.180,105.730 254.000,105.400 254.000 C 105.070 254.000,104.800 254.180,104.800 254.400 M104.062 256.221 C 104.138 256.613,104.442 257.014,104.738 257.113 C 105.082 257.228,105.227 257.035,105.138 256.579 C 105.062 256.187,104.758 255.786,104.462 255.687 C 104.118 255.572,103.973 255.765,104.062 256.221 M60.584 257.227 C 60.439 257.461,60.416 257.749,60.533 257.867 C 60.820 258.153,61.600 257.648,61.600 257.176 C 61.600 256.665,60.909 256.699,60.584 257.227 M101.757 262.633 C 101.891 262.981,102.000 263.341,102.000 263.433 C 102.000 263.525,102.180 263.600,102.400 263.600 C 102.620 263.600,102.800 263.240,102.800 262.800 C 102.800 262.332,102.533 262.000,102.157 262.000 C 101.735 262.000,101.598 262.218,101.757 262.633 M58.679 262.957 C 58.515 263.374,58.475 263.809,58.591 263.924 C 58.955 264.289,59.276 263.691,59.124 262.931 C 58.983 262.235,58.962 262.236,58.679 262.957 M332.400 263.167 C 332.400 263.369,332.275 263.864,332.122 264.267 C 331.862 264.954,331.888 264.957,332.522 264.329 C 333.274 263.583,333.417 262.800,332.800 262.800 C 332.580 262.800,332.400 262.965,332.400 263.167 M132.400 264.200 C 132.400 264.530,132.580 264.800,132.800 264.800 C 133.020 264.800,133.200 264.530,133.200 264.200 C 133.200 263.870,133.020 263.600,132.800 263.600 C 132.580 263.600,132.400 263.870,132.400 264.200 M100.892 264.475 C 100.979 264.736,101.309 265.020,101.625 265.105 C 102.100 265.234,102.105 265.195,101.655 264.879 C 101.194 264.556,101.194 264.463,101.655 264.280 C 102.022 264.134,101.960 264.053,101.467 264.032 C 101.063 264.014,100.805 264.214,100.892 264.475 M130.800 268.400 C 130.800 268.844,131.067 269.200,131.400 269.200 C 132.073 269.200,132.100 269.127,131.757 268.233 C 131.414 267.339,130.800 267.446,130.800 268.400 M99.600 269.224 C 99.600 269.677,99.780 269.936,100.000 269.800 C 100.220 269.664,100.400 269.293,100.400 268.976 C 100.400 268.659,100.220 268.400,100.000 268.400 C 99.780 268.400,99.600 268.771,99.600 269.224 M334.626 269.558 C 334.504 269.755,334.674 270.019,335.002 270.146 C 335.365 270.285,335.600 270.144,335.600 269.787 C 335.600 269.140,334.975 268.993,334.626 269.558 " stroke="none" fill="#f4a47c" fill-rule="evenodd"></path><path id="path4" d="M273.810 110.784 C 273.471 111.333,273.771 111.745,274.362 111.542 C 274.604 111.458,274.635 111.176,274.437 110.857 C 274.187 110.455,274.025 110.436,273.810 110.784 M192.141 113.540 C 191.473 113.742,191.391 113.901,191.774 114.253 C 192.146 114.596,192.380 114.523,192.736 113.953 C 192.995 113.539,193.160 113.218,193.103 113.240 C 193.047 113.262,192.613 113.397,192.141 113.540 M274.800 116.641 C 274.800 116.760,275.070 117.127,275.400 117.457 C 275.920 117.978,276.000 117.979,276.000 117.471 C 276.000 117.149,275.730 116.782,275.400 116.655 C 275.070 116.529,274.800 116.522,274.800 116.641 M189.600 117.957 C 189.600 118.457,190.729 118.838,190.985 118.424 C 191.101 118.237,190.912 117.975,190.565 117.842 C 189.726 117.520,189.600 117.535,189.600 117.957 M277.298 121.066 C 277.021 121.177,276.892 121.425,277.010 121.617 C 277.270 122.036,278.400 121.662,278.400 121.157 C 278.400 120.772,278.090 120.746,277.298 121.066 M188.000 121.924 C 188.000 122.139,188.285 122.424,188.633 122.557 C 189.023 122.707,189.206 122.618,189.108 122.325 C 188.909 121.727,188.000 121.398,188.000 121.924 M281.220 131.563 C 280.656 132.617,280.676 132.705,281.600 133.200 C 282.142 133.490,282.400 133.495,282.400 133.214 C 282.400 132.986,282.130 132.800,281.800 132.800 C 281.004 132.800,281.035 132.132,281.851 131.675 C 282.273 131.439,282.351 131.217,282.071 131.044 C 281.834 130.898,281.451 131.131,281.220 131.563 M185.200 133.200 C 185.200 133.420,184.930 133.600,184.600 133.600 C 184.270 133.600,184.000 133.786,184.000 134.014 C 184.000 134.295,184.258 134.290,184.800 134.000 C 185.512 133.619,185.921 132.800,185.400 132.800 C 185.290 132.800,185.200 132.980,185.200 133.200 M281.727 134.600 C 281.782 135.143,282.128 135.421,282.804 135.466 C 283.639 135.520,283.658 135.500,282.925 135.341 C 282.443 135.236,281.958 134.847,281.848 134.475 C 281.702 133.989,281.669 134.024,281.727 134.600 M182.400 136.037 C 182.400 136.237,182.657 136.400,182.971 136.400 C 183.285 136.400,183.624 136.715,183.724 137.100 C 183.869 137.655,183.917 137.623,183.954 136.947 C 183.983 136.406,183.707 136.017,183.200 135.884 C 182.760 135.769,182.400 135.838,182.400 136.037 M180.800 140.000 C 180.800 140.220,181.070 140.400,181.400 140.400 C 181.730 140.400,182.014 140.715,182.032 141.100 C 182.051 141.540,182.140 141.609,182.269 141.287 C 182.490 140.738,181.735 139.600,181.151 139.600 C 180.958 139.600,180.800 139.780,180.800 140.000 M285.211 141.787 C 284.943 142.109,284.817 142.604,284.931 142.887 C 285.060 143.209,285.149 143.140,285.168 142.700 C 285.186 142.315,285.470 142.000,285.800 142.000 C 286.130 142.000,286.400 141.820,286.400 141.600 C 286.400 141.014,285.771 141.112,285.211 141.787 M179.740 144.151 C 180.172 144.499,180.354 144.950,180.178 145.235 C 179.985 145.547,180.043 145.621,180.338 145.438 C 181.049 144.999,180.890 144.472,179.900 143.992 C 179.059 143.585,179.049 143.595,179.740 144.151 M287.048 145.410 C 286.195 146.262,286.231 146.681,287.200 147.200 C 287.742 147.490,288.000 147.495,288.000 147.214 C 288.000 146.986,287.730 146.800,287.400 146.800 C 286.603 146.800,286.641 146.404,287.499 145.777 C 287.884 145.496,288.085 145.152,287.947 145.014 C 287.809 144.875,287.404 145.053,287.048 145.410 M144.400 146.900 C 144.400 147.295,140.071 147.377,123.800 147.293 C 104.576 147.193,102.147 147.302,103.600 148.200 C 103.820 148.336,104.000 148.253,104.000 148.017 C 104.000 147.715,110.006 147.590,124.100 147.600 C 135.155 147.608,144.380 147.590,144.600 147.560 C 144.820 147.530,145.135 147.527,145.300 147.553 C 145.465 147.579,145.600 147.330,145.600 147.000 C 145.600 146.670,145.330 146.400,145.000 146.400 C 144.670 146.400,144.400 146.625,144.400 146.900 M178.800 148.800 C 178.800 149.020,178.530 149.200,178.200 149.200 C 177.870 149.200,177.600 149.386,177.600 149.614 C 177.600 149.895,177.858 149.890,178.400 149.600 C 179.112 149.219,179.521 148.400,179.000 148.400 C 178.890 148.400,178.800 148.580,178.800 148.800 M288.054 150.620 C 287.987 151.631,288.709 152.410,289.449 152.126 C 290.290 151.803,290.105 151.247,289.233 151.476 C 288.666 151.624,288.419 151.432,288.287 150.738 C 288.134 149.932,288.101 149.915,288.054 150.620 M103.200 151.180 C 103.200 151.496,102.893 151.613,102.400 151.484 C 101.263 151.187,101.091 151.742,102.126 152.372 C 102.607 152.665,102.868 152.764,102.706 152.592 C 102.545 152.420,102.724 152.051,103.106 151.772 C 103.487 151.493,103.664 151.131,103.499 150.966 C 103.335 150.801,103.200 150.898,103.200 151.180 M177.200 152.800 C 177.200 153.460,177.270 154.000,177.355 154.000 C 177.440 154.000,177.588 153.460,177.685 152.800 C 177.782 152.140,177.713 151.600,177.531 151.600 C 177.349 151.600,177.200 152.140,177.200 152.800 M13.333 158.200 C 13.333 158.542,13.497 158.768,13.697 158.701 C 13.897 158.635,14.060 158.409,14.060 158.200 C 14.060 157.991,13.897 157.766,13.697 157.699 C 13.497 157.632,13.333 157.858,13.333 158.200 M292.006 161.051 C 291.995 161.896,293.079 162.493,293.349 161.789 C 293.502 161.390,293.429 161.258,293.151 161.430 C 292.909 161.580,292.553 161.454,292.361 161.151 C 292.160 160.833,292.010 160.790,292.006 161.051 M97.200 161.644 C 97.200 161.793,97.489 162.025,97.842 162.161 C 98.219 162.306,98.386 162.660,98.246 163.024 C 98.102 163.399,98.175 163.539,98.432 163.380 C 98.664 163.237,98.766 162.889,98.659 162.608 C 98.551 162.327,98.665 161.895,98.914 161.646 C 99.248 161.312,99.086 161.218,98.282 161.285 C 97.687 161.334,97.200 161.496,97.200 161.644 M294.667 165.467 C 294.181 165.953,294.390 166.379,295.000 166.145 C 295.330 166.018,295.600 165.754,295.600 165.557 C 295.600 165.138,295.049 165.084,294.667 165.467 M137.777 166.167 C 137.350 166.479,137.136 166.869,137.301 167.034 C 137.465 167.199,137.600 167.123,137.600 166.867 C 137.600 166.610,137.870 166.400,138.200 166.400 C 138.530 166.400,138.800 166.220,138.800 166.000 C 138.800 165.476,138.700 165.493,137.777 166.167 M96.800 166.733 C 96.800 166.990,96.530 167.200,96.200 167.200 C 95.497 167.200,95.447 167.567,96.037 168.400 C 96.414 168.933,96.443 168.933,96.295 168.400 C 96.204 168.070,96.415 167.590,96.764 167.333 C 97.113 167.076,97.264 166.731,97.099 166.566 C 96.935 166.401,96.800 166.477,96.800 166.733 M93.428 171.955 C 93.308 172.150,93.554 172.399,93.975 172.509 C 94.511 172.649,94.676 172.543,94.527 172.155 C 94.286 171.525,93.754 171.428,93.428 171.955 M134.989 172.818 C 134.712 173.266,135.471 174.400,136.049 174.400 C 136.242 174.400,136.400 174.220,136.400 174.000 C 136.400 173.780,136.111 173.600,135.757 173.600 C 135.350 173.600,135.199 173.380,135.345 173.000 C 135.608 172.314,135.375 172.194,134.989 172.818 M167.064 175.469 C 166.595 175.938,166.783 176.400,167.443 176.400 C 167.890 176.400,168.004 176.613,167.819 177.100 C 167.616 177.635,167.664 177.690,168.023 177.334 C 168.382 176.977,168.356 176.673,167.910 176.036 C 167.590 175.579,167.209 175.324,167.064 175.469 M298.654 175.802 C 298.515 176.165,298.656 176.400,299.013 176.400 C 299.660 176.400,299.807 175.775,299.242 175.426 C 299.045 175.304,298.781 175.474,298.654 175.802 M165.200 179.557 C 165.200 179.754,165.470 180.018,165.800 180.145 C 166.130 180.271,166.400 180.561,166.400 180.787 C 166.400 181.014,166.130 181.200,165.800 181.200 C 165.470 181.200,165.200 181.386,165.200 181.614 C 165.200 181.895,165.458 181.890,166.000 181.600 C 166.923 181.106,166.944 181.016,166.386 179.974 C 165.962 179.182,165.200 178.915,165.200 179.557 M300.170 180.034 C 299.483 180.792,299.471 180.917,300.048 181.338 C 300.398 181.594,300.666 182.247,300.642 182.789 C 300.616 183.398,300.830 183.795,301.200 183.826 C 301.589 183.859,301.616 183.816,301.276 183.705 C 300.919 183.587,300.833 183.159,301.007 182.366 C 301.206 181.462,301.122 181.200,300.632 181.200 C 299.790 181.200,299.828 180.536,300.697 180.050 C 301.080 179.835,301.289 179.555,301.161 179.428 C 301.033 179.300,300.587 179.572,300.170 180.034 M131.738 180.617 C 131.608 180.957,131.613 181.347,131.751 181.484 C 131.888 181.621,132.000 181.412,132.000 181.020 C 132.000 180.504,132.221 180.364,132.800 180.516 C 133.239 180.631,133.700 180.562,133.823 180.362 C 133.946 180.163,133.581 180.000,133.011 180.000 C 132.441 180.000,131.868 180.278,131.738 180.617 M131.377 182.567 C 130.950 182.879,130.736 183.269,130.901 183.434 C 131.065 183.599,131.200 183.523,131.200 183.267 C 131.200 183.010,131.470 182.800,131.800 182.800 C 132.130 182.800,132.400 182.620,132.400 182.400 C 132.400 181.876,132.300 181.893,131.377 182.567 M165.600 182.904 C 165.600 183.255,165.285 183.624,164.900 183.724 C 164.244 183.896,164.245 183.910,164.913 183.954 C 165.636 184.001,166.306 182.973,165.849 182.516 C 165.712 182.379,165.600 182.553,165.600 182.904 M164.800 184.800 C 164.800 185.020,164.530 185.200,164.200 185.200 C 163.870 185.200,163.600 185.386,163.600 185.614 C 163.600 185.895,163.858 185.890,164.400 185.600 C 165.112 185.219,165.521 184.400,165.000 184.400 C 164.890 184.400,164.800 184.580,164.800 184.800 M89.600 185.133 C 89.600 185.390,89.240 185.600,88.800 185.600 C 87.900 185.600,87.720 186.207,88.529 186.517 C 89.079 186.728,90.227 185.294,89.828 184.894 C 89.702 184.769,89.600 184.877,89.600 185.133 M302.500 185.865 C 302.225 185.976,302.021 186.457,302.046 186.933 C 302.083 187.610,302.133 187.646,302.276 187.100 C 302.376 186.715,302.715 186.400,303.029 186.400 C 303.343 186.400,303.600 186.220,303.600 186.000 C 303.600 185.574,303.309 185.539,302.500 185.865 M163.246 188.300 C 163.221 188.795,162.952 189.200,162.649 189.200 C 162.346 189.200,161.851 189.505,161.549 189.877 C 161.236 190.262,161.203 190.432,161.472 190.270 C 161.732 190.114,162.066 190.183,162.214 190.423 C 162.569 190.998,163.685 188.854,163.461 188.025 C 163.358 187.643,163.275 187.750,163.246 188.300 M304.080 190.080 C 303.816 190.344,303.614 190.839,303.632 191.180 C 303.659 191.719,303.694 191.721,303.896 191.200 C 304.025 190.870,304.416 190.381,304.765 190.113 C 305.114 189.845,305.211 189.620,304.980 189.613 C 304.749 189.606,304.344 189.816,304.080 190.080 M160.223 194.167 C 161.061 194.780,161.440 194.713,161.016 194.027 C 160.871 193.792,160.459 193.600,160.100 193.600 C 159.554 193.600,159.574 193.693,160.223 194.167 M305.254 195.020 C 305.225 195.471,305.395 196.035,305.634 196.274 C 306.113 196.753,307.708 196.498,307.395 195.992 C 307.287 195.818,306.854 195.765,306.432 195.876 C 305.866 196.024,305.619 195.831,305.487 195.138 C 305.334 194.332,305.301 194.315,305.254 195.020 M84.439 195.753 C 84.085 196.180,84.119 196.360,84.590 196.541 C 85.375 196.842,85.383 197.600,84.600 197.600 C 84.270 197.600,84.000 197.786,84.000 198.014 C 84.000 198.295,84.258 198.290,84.800 198.000 C 85.694 197.522,85.758 197.270,85.209 196.400 C 84.935 195.967,85.019 195.725,85.515 195.528 C 86.117 195.289,86.121 195.253,85.549 195.228 C 85.191 195.213,84.691 195.449,84.439 195.753 M125.164 198.831 C 124.818 199.050,124.781 199.190,125.067 199.194 C 125.324 199.197,125.819 199.309,126.167 199.443 C 126.515 199.576,126.800 199.506,126.800 199.286 C 126.800 198.695,125.812 198.421,125.164 198.831 M84.432 199.347 C 84.409 199.891,84.183 200.037,83.600 199.884 C 82.655 199.637,82.135 200.213,83.002 200.546 C 83.778 200.843,83.776 201.600,83.000 201.600 C 82.670 201.600,82.400 201.786,82.400 202.014 C 82.400 202.291,82.674 202.282,83.224 201.987 C 83.678 201.744,83.977 201.333,83.889 201.073 C 83.802 200.813,83.995 200.404,84.320 200.165 C 84.645 199.926,84.810 199.476,84.687 199.165 C 84.530 198.768,84.454 198.822,84.432 199.347 M307.442 199.887 C 306.871 200.033,306.813 200.161,307.206 200.404 C 307.801 200.771,308.800 200.492,308.800 199.957 C 308.800 199.581,308.664 199.574,307.442 199.887 M123.473 205.045 C 123.714 205.675,124.246 205.772,124.572 205.245 C 124.692 205.050,124.446 204.801,124.025 204.691 C 123.489 204.551,123.324 204.657,123.473 205.045 M80.432 208.900 C 80.414 209.285,80.152 209.600,79.849 209.600 C 79.546 209.600,79.074 209.870,78.800 210.200 C 78.394 210.689,78.416 210.800,78.922 210.800 C 79.262 210.800,79.619 211.025,79.713 211.300 C 79.808 211.575,79.830 211.454,79.762 211.030 C 79.694 210.607,79.924 210.051,80.274 209.795 C 80.624 209.539,80.810 209.076,80.687 208.765 C 80.522 208.349,80.455 208.384,80.432 208.900 M311.855 210.200 C 311.715 210.565,311.855 210.800,312.213 210.800 C 312.536 210.800,312.800 210.530,312.800 210.200 C 312.800 209.870,312.639 209.600,312.443 209.600 C 312.246 209.600,311.982 209.870,311.855 210.200 M120.832 210.700 C 120.814 211.195,120.875 211.600,120.967 211.600 C 121.059 211.600,121.464 211.705,121.867 211.833 C 122.524 212.041,122.534 212.010,121.965 211.533 C 121.616 211.240,121.225 210.730,121.096 210.400 C 120.939 209.995,120.853 210.092,120.832 210.700 M152.800 211.613 C 152.800 212.093,153.825 212.356,154.373 212.017 C 154.709 211.809,154.532 211.642,153.837 211.509 C 153.267 211.400,152.800 211.447,152.800 211.613 M119.378 215.165 C 119.554 215.448,119.391 215.865,118.989 216.158 C 118.202 216.734,118.859 218.658,119.671 218.156 C 119.951 217.983,119.873 217.761,119.451 217.525 C 118.635 217.068,118.604 216.400,119.400 216.400 C 120.106 216.400,120.205 215.374,119.538 214.962 C 119.243 214.779,119.185 214.853,119.378 215.165 M153.200 215.180 C 153.200 215.496,152.893 215.613,152.400 215.484 C 151.263 215.187,151.091 215.742,152.126 216.372 C 152.607 216.665,152.868 216.764,152.706 216.592 C 152.545 216.420,152.724 216.051,153.106 215.772 C 153.487 215.493,153.664 215.131,153.499 214.966 C 153.335 214.801,153.200 214.898,153.200 215.180 M151.600 218.977 C 151.600 219.540,151.387 219.633,150.566 219.427 C 149.896 219.259,149.623 219.314,149.790 219.584 C 150.182 220.217,151.594 220.080,151.862 219.383 C 151.992 219.043,151.987 218.653,151.849 218.516 C 151.712 218.379,151.600 218.586,151.600 218.977 M315.600 220.400 C 315.115 220.714,315.172 220.789,315.900 220.794 C 316.395 220.797,316.800 220.620,316.800 220.400 C 316.800 219.899,316.376 219.899,315.600 220.400 M116.200 222.799 C 115.901 223.284,116.963 224.904,117.336 224.531 C 117.805 224.062,117.617 223.600,116.957 223.600 C 116.550 223.600,116.399 223.380,116.545 223.000 C 116.804 222.323,116.577 222.191,116.200 222.799 M147.515 228.670 C 147.699 229.630,147.629 229.694,146.658 229.450 C 146.032 229.293,145.600 229.351,145.600 229.592 C 145.600 229.817,145.891 230.000,146.247 230.000 C 146.696 230.000,146.830 230.244,146.684 230.800 C 146.380 231.963,146.651 231.781,147.371 230.339 C 148.076 228.925,148.165 228.149,147.658 227.836 C 147.470 227.719,147.406 228.095,147.515 228.670 M318.543 229.003 C 318.195 229.910,319.519 232.408,320.319 232.354 C 320.940 232.311,320.939 232.291,320.300 232.124 C 319.433 231.898,319.369 230.800,320.224 230.800 C 320.567 230.800,320.746 230.637,320.623 230.438 C 320.500 230.238,320.013 230.176,319.541 230.299 C 318.792 230.496,318.709 230.390,318.886 229.462 C 319.107 228.304,318.912 228.042,318.543 229.003 M113.782 229.570 C 113.928 229.807,113.812 230.013,113.524 230.028 C 113.033 230.054,114.247 230.711,114.900 230.772 C 115.498 230.828,115.181 230.180,114.358 229.667 C 113.895 229.378,113.636 229.334,113.782 229.570 M71.149 230.277 C 70.847 230.649,70.810 230.828,71.066 230.674 C 71.322 230.521,71.608 230.531,71.700 230.698 C 71.793 230.864,71.818 230.786,71.757 230.525 C 71.695 230.264,71.949 229.970,72.322 229.871 C 72.918 229.714,72.921 229.687,72.349 229.646 C 71.991 229.621,71.451 229.905,71.149 230.277 M144.166 233.655 C 143.874 234.128,145.567 234.321,145.951 233.859 C 146.220 233.534,146.038 233.400,145.328 233.400 C 144.775 233.400,144.253 233.515,144.166 233.655 M69.200 234.324 C 69.200 234.539,69.485 234.824,69.833 234.957 C 70.223 235.107,70.406 235.018,70.308 234.725 C 70.109 234.127,69.200 233.798,69.200 234.324 M320.708 235.290 C 320.871 235.916,320.996 236.005,321.130 235.590 C 321.235 235.265,321.518 234.868,321.760 234.706 C 322.016 234.535,321.839 234.410,321.337 234.406 C 320.642 234.401,320.520 234.572,320.708 235.290 M111.699 236.497 C 111.766 236.697,111.991 236.860,112.200 236.860 C 112.409 236.860,112.635 236.697,112.701 236.497 C 112.768 236.297,112.542 236.133,112.200 236.133 C 111.858 236.133,111.632 236.297,111.699 236.497 M142.800 237.595 C 142.800 238.065,143.939 238.422,144.183 238.028 C 144.297 237.843,144.033 237.597,143.596 237.483 C 143.158 237.369,142.800 237.419,142.800 237.595 M109.292 242.475 C 109.491 243.073,110.400 243.402,110.400 242.876 C 110.400 242.661,110.115 242.376,109.767 242.243 C 109.377 242.093,109.194 242.182,109.292 242.475 M65.602 243.990 C 65.086 244.316,65.109 244.445,65.763 244.924 C 66.253 245.282,66.409 245.677,66.202 246.039 C 65.957 246.470,65.998 246.494,66.378 246.143 C 66.741 245.809,66.761 245.474,66.451 244.896 C 66.218 244.461,66.142 243.992,66.281 243.853 C 66.651 243.482,66.290 243.556,65.602 243.990 M325.078 244.823 C 324.902 245.498,324.965 245.561,325.431 245.174 C 326.068 244.646,326.186 244.000,325.647 244.000 C 325.452 244.000,325.196 244.370,325.078 244.823 M140.400 247.176 C 140.400 247.460,140.140 247.586,139.813 247.460 C 139.490 247.336,139.102 247.435,138.951 247.679 C 138.785 247.948,138.859 248.011,139.138 247.838 C 139.395 247.680,139.600 247.779,139.600 248.062 C 139.600 248.409,139.816 248.355,140.276 247.895 C 140.648 247.523,140.828 247.095,140.676 246.943 C 140.524 246.791,140.400 246.896,140.400 247.176 M106.464 248.924 C 106.178 249.268,106.336 249.416,107.034 249.458 C 108.089 249.521,108.341 249.016,107.429 248.667 C 107.115 248.546,106.681 248.662,106.464 248.924 M64.800 249.600 C 64.800 249.820,64.530 250.000,64.200 250.000 C 63.870 250.000,63.600 250.186,63.600 250.414 C 63.600 250.695,63.858 250.690,64.400 250.400 C 65.112 250.019,65.521 249.200,65.000 249.200 C 64.890 249.200,64.800 249.380,64.800 249.600 M326.400 250.241 C 326.400 250.360,326.670 250.727,327.000 251.057 C 327.520 251.578,327.600 251.579,327.600 251.071 C 327.600 250.749,327.330 250.382,327.000 250.255 C 326.670 250.129,326.400 250.122,326.400 250.241 M137.200 251.557 C 137.200 252.057,138.329 252.438,138.585 252.024 C 138.701 251.837,138.512 251.575,138.165 251.442 C 137.326 251.120,137.200 251.135,137.200 251.557 M104.600 254.000 C 104.464 254.220,104.452 254.561,104.574 254.758 C 104.696 254.955,104.526 255.219,104.198 255.346 C 103.869 255.472,103.625 255.986,103.654 256.487 L 103.709 257.400 103.882 256.500 C 103.988 255.949,104.346 255.600,104.804 255.600 C 105.216 255.600,105.664 255.420,105.800 255.200 C 105.936 254.980,105.747 254.800,105.381 254.800 C 104.953 254.800,104.797 254.585,104.945 254.200 C 105.204 253.523,104.977 253.391,104.600 254.000 M328.800 254.800 C 328.315 255.114,328.372 255.189,329.100 255.194 C 329.595 255.197,330.000 255.020,330.000 254.800 C 330.000 254.299,329.576 254.299,328.800 254.800 M61.646 257.473 C 61.612 258.114,61.306 258.381,60.500 258.476 L 59.400 258.606 60.400 259.157 C 60.950 259.460,61.268 259.567,61.106 259.394 C 60.945 259.221,61.099 258.869,61.450 258.613 C 61.811 258.349,62.002 257.812,61.890 257.374 C 61.714 256.683,61.688 256.693,61.646 257.473 M102.053 260.400 C 101.979 261.489,102.699 262.261,103.263 261.697 C 103.659 261.301,103.628 261.200,103.109 261.200 C 102.751 261.200,102.376 260.885,102.276 260.500 C 102.146 260.004,102.081 259.975,102.053 260.400 M100.538 264.217 C 100.408 264.557,100.413 264.947,100.551 265.084 C 100.688 265.221,100.800 265.047,100.800 264.696 C 100.800 264.345,101.115 263.976,101.500 263.876 C 102.156 263.704,102.155 263.690,101.487 263.646 C 101.096 263.621,100.668 263.878,100.538 264.217 M133.419 264.100 C 133.608 264.595,133.488 264.800,133.011 264.800 C 132.474 264.800,132.389 265.038,132.593 265.966 C 132.783 266.835,132.687 267.181,132.216 267.325 C 131.737 267.472,131.755 267.501,132.292 267.447 C 132.772 267.398,132.986 267.057,132.958 266.389 C 132.934 265.847,133.204 265.190,133.558 264.929 C 134.087 264.537,134.108 264.361,133.676 263.927 C 133.244 263.492,133.199 263.522,133.419 264.100 M332.820 265.163 C 332.256 266.217,332.276 266.305,333.200 266.800 C 333.742 267.090,334.000 267.095,334.000 266.814 C 334.000 266.586,333.730 266.400,333.400 266.400 C 332.604 266.400,332.635 265.732,333.451 265.275 C 333.873 265.039,333.951 264.817,333.671 264.644 C 333.434 264.498,333.051 264.731,332.820 265.163 M100.177 266.167 C 99.750 266.479,99.534 266.868,99.697 267.030 C 99.860 267.193,99.818 267.538,99.603 267.796 C 99.322 268.134,99.463 268.238,100.107 268.166 C 101.445 268.017,101.455 268.007,100.700 267.568 C 99.842 267.068,99.785 266.400,100.600 266.400 C 100.930 266.400,101.200 266.220,101.200 266.000 C 101.200 265.476,101.100 265.493,100.177 266.167 M56.900 268.088 C 55.847 268.596,55.753 269.020,56.621 269.353 C 56.998 269.497,57.139 269.425,56.981 269.169 C 56.837 268.937,57.053 268.494,57.460 268.186 C 58.335 267.523,58.142 267.489,56.900 268.088 M333.326 268.200 C 333.408 269.011,335.600 269.669,335.600 268.882 C 335.600 268.678,335.167 268.594,334.637 268.695 C 333.945 268.827,333.614 268.671,333.460 268.140 C 333.274 267.496,333.256 267.504,333.326 268.200 M130.189 269.617 C 130.059 269.828,130.220 270.000,130.547 270.000 C 130.874 270.000,131.224 270.315,131.324 270.700 C 131.469 271.252,131.517 271.219,131.554 270.543 C 131.602 269.643,130.595 268.960,130.189 269.617 M157.056 385.878 C 156.619 386.314,156.773 386.667,157.400 386.667 C 157.730 386.667,158.000 386.527,158.000 386.357 C 158.000 385.906,157.355 385.579,157.056 385.878 " stroke="none" fill="#ec8350" fill-rule="evenodd"></path></g></svg>