<svg id="svg" version="1.1" xmlns="http://www.w3.org/2000/svg" xmlns:xlink="http://www.w3.org/1999/xlink" width="400" height="400" viewBox="0, 0, 400,400"><g id="svgg"><path id="path0" d="M348.667 79.867 C 348.181 80.353,348.390 80.779,349.000 80.545 C 349.330 80.418,349.600 80.154,349.600 79.957 C 349.600 79.538,349.049 79.484,348.667 79.867 M194.000 81.357 C 194.000 82.164,192.285 82.470,190.312 82.014 C 187.738 81.421,185.600 81.490,185.600 82.167 C 185.600 82.947,184.852 83.127,183.200 82.744 C 181.098 82.256,180.400 82.332,180.400 83.046 C 180.400 83.596,180.072 83.651,178.200 83.417 C 176.288 83.178,176.000 83.232,176.000 83.822 C 176.000 84.392,175.739 84.461,174.400 84.246 C 173.080 84.035,172.800 84.105,172.800 84.646 C 172.800 85.188,172.520 85.257,171.200 85.046 C 169.896 84.838,169.600 84.908,169.600 85.427 C 169.600 85.920,169.341 86.007,168.451 85.811 C 167.597 85.624,167.237 85.726,167.051 86.211 C 166.865 86.696,166.505 86.799,165.651 86.611 C 164.808 86.426,164.437 86.527,164.260 86.989 C 164.092 87.425,163.723 87.546,163.063 87.380 C 162.399 87.213,162.034 87.335,161.863 87.780 C 161.692 88.225,161.327 88.347,160.663 88.180 C 159.986 88.010,159.634 88.136,159.451 88.612 C 159.309 88.981,158.940 89.186,158.630 89.067 C 158.320 88.948,157.965 89.114,157.842 89.435 C 157.688 89.837,157.303 89.941,156.609 89.766 C 155.831 89.571,155.600 89.667,155.600 90.184 C 155.600 90.672,155.383 90.785,154.800 90.600 C 154.223 90.417,154.000 90.528,154.000 91.000 C 154.000 91.472,153.777 91.583,153.200 91.400 C 152.741 91.254,152.400 91.328,152.400 91.573 C 152.400 91.808,151.860 92.000,151.200 92.000 C 150.540 92.000,150.000 92.201,150.000 92.447 C 150.000 92.696,149.647 92.801,149.200 92.684 C 148.617 92.532,148.400 92.672,148.400 93.200 C 148.400 93.728,148.183 93.868,147.600 93.716 C 147.119 93.590,146.800 93.704,146.800 94.000 C 146.800 94.296,146.481 94.410,146.000 94.284 C 145.472 94.146,145.200 94.272,145.200 94.655 C 145.200 94.974,144.952 95.182,144.648 95.118 C 144.345 95.053,143.719 95.450,143.257 96.000 C 142.542 96.850,142.356 96.910,142.014 96.400 C 141.681 95.903,141.611 95.943,141.606 96.633 C 141.598 97.745,141.192 98.092,140.537 97.548 C 140.123 97.204,140.000 97.261,140.000 97.794 C 140.000 98.331,139.778 98.431,139.009 98.238 C 138.181 98.030,137.975 98.160,137.758 99.025 C 137.541 99.888,137.333 100.020,136.515 99.815 C 135.975 99.679,135.622 99.712,135.731 99.888 C 136.043 100.392,134.909 101.703,134.328 101.509 C 134.041 101.414,133.614 101.710,133.379 102.168 C 133.087 102.737,132.612 102.976,131.876 102.925 C 131.284 102.883,130.778 103.018,130.750 103.225 C 130.722 103.431,130.674 103.825,130.641 104.100 C 130.608 104.387,130.145 104.555,129.557 104.495 C 128.700 104.408,128.376 104.692,127.590 106.220 C 126.790 107.774,126.510 108.014,125.725 107.817 C 125.216 107.689,124.800 107.763,124.800 107.981 C 124.800 108.199,124.215 108.546,123.500 108.752 C 122.785 108.959,122.515 109.144,122.900 109.164 C 123.285 109.184,123.600 109.361,123.600 109.559 C 123.600 110.223,120.718 112.454,120.144 112.234 C 119.243 111.888,112.214 119.134,112.143 120.482 C 112.056 122.155,109.243 124.438,109.164 122.900 C 109.144 122.515,108.959 122.785,108.752 123.500 C 108.546 124.215,108.190 124.800,107.962 124.800 C 107.733 124.800,107.651 125.130,107.779 125.533 C 108.029 126.321,107.336 127.066,105.496 127.987 C 104.660 128.405,104.417 128.790,104.496 129.570 C 104.576 130.364,104.400 130.628,103.728 130.724 C 103.061 130.819,102.873 131.096,102.928 131.900 C 102.976 132.599,102.728 133.095,102.191 133.376 C 101.746 133.609,101.438 134.081,101.506 134.424 C 101.574 134.768,101.195 135.282,100.663 135.566 C 99.970 135.937,99.757 136.316,99.912 136.905 C 100.090 137.588,99.981 137.688,99.263 137.500 C 98.788 137.376,98.500 137.438,98.623 137.637 C 98.746 137.837,98.653 138.000,98.416 138.000 C 98.156 138.000,98.084 138.397,98.236 139.000 C 98.431 139.778,98.333 140.000,97.794 140.000 C 97.227 140.000,97.191 140.107,97.596 140.595 C 97.997 141.078,97.968 141.229,97.445 141.395 C 97.090 141.508,96.518 141.689,96.172 141.798 C 95.766 141.926,95.629 142.262,95.784 142.751 C 95.935 143.226,95.799 143.591,95.419 143.737 C 95.071 143.871,94.914 144.232,95.050 144.585 C 95.198 144.971,95.061 145.200,94.680 145.200 C 94.272 145.200,94.143 145.460,94.284 146.000 C 94.410 146.481,94.296 146.800,94.000 146.800 C 93.704 146.800,93.590 147.119,93.716 147.600 C 93.868 148.183,93.728 148.400,93.200 148.400 C 92.672 148.400,92.532 148.617,92.684 149.200 C 92.801 149.647,92.696 150.000,92.447 150.000 C 92.201 150.000,92.000 150.360,92.000 150.800 C 92.000 151.240,91.798 151.600,91.550 151.600 C 91.263 151.600,91.187 152.036,91.340 152.800 C 91.524 153.718,91.435 154.000,90.963 154.000 C 90.528 154.000,90.421 154.236,90.600 154.800 C 90.785 155.383,90.672 155.600,90.184 155.600 C 89.667 155.600,89.571 155.831,89.766 156.609 C 89.941 157.303,89.837 157.688,89.435 157.842 C 89.114 157.965,88.948 158.320,89.067 158.630 C 89.186 158.940,88.981 159.309,88.612 159.451 C 88.136 159.634,88.010 159.986,88.180 160.663 C 88.347 161.327,88.225 161.692,87.780 161.863 C 87.335 162.034,87.213 162.399,87.380 163.063 C 87.544 163.718,87.426 164.092,87.002 164.255 C 86.617 164.402,86.425 164.888,86.492 165.546 C 86.565 166.256,86.425 166.563,86.063 166.488 C 85.649 166.401,85.588 166.746,85.798 167.988 C 86.022 169.312,85.956 169.600,85.430 169.600 C 84.908 169.600,84.837 169.893,85.046 171.200 C 85.257 172.520,85.188 172.800,84.646 172.800 C 84.105 172.800,84.035 173.080,84.246 174.400 C 84.461 175.739,84.392 176.000,83.822 176.000 C 83.232 176.000,83.178 176.288,83.417 178.200 C 83.651 180.072,83.596 180.400,83.046 180.400 C 82.332 180.400,82.256 181.098,82.744 183.200 C 83.127 184.852,82.947 185.600,82.167 185.600 C 81.490 185.600,81.421 187.738,82.014 190.312 C 82.470 192.285,82.164 194.000,81.357 194.000 C 80.904 194.000,80.800 195.229,80.800 200.600 C 80.800 206.062,80.899 207.200,81.373 207.200 C 82.238 207.200,82.452 208.416,82.004 210.781 C 81.394 213.993,81.475 215.600,82.247 215.600 C 82.804 215.600,82.855 215.957,82.615 218.200 C 82.371 220.475,82.420 220.800,83.006 220.800 C 83.579 220.800,83.636 221.087,83.400 222.800 C 83.162 224.532,83.217 224.800,83.814 224.800 C 84.390 224.800,84.462 225.054,84.253 226.358 C 84.058 227.575,84.144 227.970,84.646 228.162 C 85.136 228.350,85.228 228.728,85.034 229.758 C 84.841 230.788,84.933 231.165,85.422 231.353 C 85.896 231.535,85.998 231.901,85.811 232.749 C 85.622 233.609,85.726 233.963,86.222 234.153 C 86.690 234.333,86.814 234.688,86.645 235.362 C 86.482 236.012,86.600 236.391,87.013 236.550 C 87.426 236.708,87.543 237.087,87.380 237.737 C 87.213 238.401,87.335 238.766,87.780 238.937 C 88.237 239.112,88.347 239.470,88.166 240.191 C 87.971 240.971,88.066 241.200,88.588 241.200 C 89.124 241.200,89.211 241.438,89.011 242.349 C 88.828 243.182,88.928 243.563,89.373 243.734 C 89.727 243.870,89.887 244.230,89.750 244.585 C 89.596 244.989,89.746 245.200,90.189 245.200 C 90.724 245.200,90.811 245.438,90.611 246.349 C 90.428 247.182,90.528 247.563,90.973 247.734 C 91.327 247.870,91.487 248.230,91.350 248.585 C 91.195 248.991,91.347 249.200,91.800 249.200 C 92.227 249.200,92.404 249.414,92.268 249.767 C 92.148 250.079,92.328 250.440,92.667 250.570 C 93.006 250.700,93.186 251.060,93.067 251.370 C 92.948 251.680,93.128 252.040,93.467 252.170 C 93.806 252.300,93.986 252.660,93.867 252.970 C 93.748 253.280,93.928 253.640,94.267 253.770 C 94.606 253.900,94.786 254.260,94.667 254.570 C 94.548 254.880,94.728 255.240,95.067 255.370 C 95.406 255.500,95.586 255.860,95.467 256.170 C 95.348 256.480,95.554 256.852,95.925 256.995 C 96.539 257.234,96.530 257.309,95.824 257.829 C 95.070 258.383,95.074 258.400,95.967 258.400 C 96.746 258.400,96.849 258.552,96.638 259.391 C 96.430 260.219,96.560 260.425,97.428 260.643 C 98.193 260.835,98.415 261.100,98.271 261.652 C 98.143 262.140,98.286 262.400,98.681 262.400 C 99.126 262.400,99.221 262.663,99.038 263.391 C 98.831 264.217,98.960 264.425,99.816 264.640 C 100.688 264.859,100.806 265.060,100.604 265.982 C 100.398 266.922,100.489 267.063,101.283 267.034 C 102.002 267.007,102.201 267.215,102.204 268.000 C 102.207 268.656,102.523 269.138,103.124 269.400 C 103.717 269.659,103.975 270.046,103.857 270.501 C 103.756 270.886,103.838 271.100,104.037 270.977 C 104.237 270.854,104.407 270.988,104.415 271.276 C 104.424 271.564,105.009 272.166,105.715 272.614 C 106.615 273.184,106.964 273.684,106.880 274.281 C 106.803 274.832,107.026 275.218,107.510 275.371 C 108.764 275.770,110.671 277.985,110.076 278.353 C 109.705 278.582,110.006 279.122,111.183 280.335 C 112.072 281.251,112.800 282.175,112.800 282.388 C 112.800 282.601,113.066 282.673,113.391 282.548 C 113.964 282.328,118.800 286.843,118.800 287.599 C 118.800 288.217,122.155 291.336,122.312 290.864 C 122.692 289.725,124.210 291.004,125.451 293.507 C 125.967 294.551,126.311 294.793,127.149 294.707 C 127.998 294.621,128.310 294.850,128.774 295.904 C 129.232 296.945,129.554 297.186,130.374 297.104 C 131.164 297.024,131.429 297.201,131.524 297.872 C 131.619 298.539,131.896 298.727,132.700 298.672 C 133.399 298.624,133.895 298.872,134.176 299.409 C 134.412 299.859,134.904 300.158,135.286 300.082 C 135.746 299.991,136.056 300.284,136.229 300.973 C 136.514 302.109,136.806 302.234,137.515 301.525 C 137.881 301.159,138.091 301.341,138.433 302.323 C 138.808 303.399,139.026 303.559,139.838 303.355 C 140.576 303.169,140.800 303.274,140.800 303.806 C 140.800 304.386,140.901 304.415,141.420 303.983 C 141.944 303.548,142.076 303.604,142.269 304.343 C 142.442 305.002,142.624 305.112,143.013 304.789 C 143.585 304.314,144.220 304.921,143.823 305.563 C 143.700 305.762,143.959 305.831,144.399 305.716 C 144.847 305.599,145.200 305.704,145.200 305.953 C 145.200 306.199,145.560 306.400,146.000 306.400 C 146.440 306.400,146.800 306.653,146.800 306.963 C 146.800 307.328,147.080 307.452,147.600 307.316 C 148.047 307.199,148.400 307.304,148.400 307.553 C 148.400 307.799,148.670 308.000,149.000 308.000 C 149.330 308.000,149.600 308.200,149.600 308.443 C 149.600 308.717,149.984 308.790,150.600 308.636 C 151.352 308.447,151.600 308.542,151.600 309.019 C 151.600 309.472,151.829 309.581,152.400 309.400 C 152.977 309.217,153.200 309.328,153.200 309.800 C 153.200 310.272,153.423 310.383,154.000 310.200 C 154.579 310.016,154.800 310.128,154.800 310.605 C 154.800 311.129,155.046 311.210,156.000 311.000 C 156.930 310.796,157.200 310.876,157.200 311.356 C 157.200 311.740,157.426 311.888,157.797 311.746 C 158.143 311.613,158.501 311.798,158.651 312.188 C 158.834 312.664,159.186 312.790,159.863 312.620 C 160.527 312.453,160.892 312.575,161.063 313.020 C 161.231 313.458,161.600 313.586,162.233 313.427 C 162.805 313.284,163.280 313.405,163.479 313.746 C 163.655 314.049,164.250 314.275,164.800 314.248 C 165.443 314.217,165.760 314.392,165.688 314.737 C 165.601 315.151,165.946 315.212,167.188 315.002 C 168.535 314.774,168.800 314.839,168.800 315.397 C 168.800 315.930,169.041 316.011,170.000 315.800 C 170.960 315.589,171.200 315.670,171.200 316.206 C 171.200 316.779,171.487 316.836,173.200 316.600 C 174.870 316.370,175.200 316.429,175.200 316.955 C 175.200 317.471,175.524 317.540,177.000 317.338 C 178.500 317.132,178.800 317.200,178.800 317.746 C 178.800 318.489,179.833 318.596,181.370 318.011 C 182.594 317.546,183.600 317.855,183.600 318.695 C 183.600 319.309,185.135 319.268,188.061 318.573 C 188.836 318.389,189.347 318.547,189.961 319.161 C 190.694 319.894,191.275 320.000,194.567 320.000 C 197.206 320.000,198.394 320.150,198.535 320.500 C 198.660 320.810,198.749 320.746,198.768 320.330 C 198.797 319.724,199.371 319.682,204.800 319.891 C 210.178 320.098,210.800 320.054,210.800 319.468 C 210.800 318.610,212.346 318.247,213.742 318.778 C 215.371 319.397,217.600 319.319,217.600 318.643 C 217.600 317.909,218.405 317.633,219.400 318.027 C 220.938 318.636,222.294 318.448,222.517 317.596 C 222.697 316.906,222.878 316.849,223.790 317.196 C 225.346 317.788,226.400 317.695,226.400 316.965 C 226.400 316.445,226.692 316.379,228.000 316.600 C 229.338 316.826,229.600 316.760,229.600 316.200 C 229.600 315.640,229.862 315.574,231.200 315.800 C 232.544 316.027,232.800 315.962,232.800 315.392 C 232.800 314.876,233.029 314.771,233.758 314.954 C 234.429 315.122,234.791 315.001,234.964 314.548 C 235.148 314.071,235.523 313.965,236.406 314.141 C 237.331 314.326,237.600 314.237,237.600 313.743 C 237.600 313.283,237.872 313.159,238.580 313.294 C 239.205 313.414,239.641 313.270,239.784 312.898 C 239.937 312.500,240.323 312.394,241.004 312.565 C 241.754 312.754,242.000 312.657,242.000 312.176 C 242.000 311.680,242.258 311.593,243.149 311.789 C 243.982 311.972,244.363 311.872,244.534 311.427 C 244.670 311.073,245.030 310.913,245.385 311.050 C 245.785 311.203,246.000 311.055,246.000 310.625 C 246.000 310.086,246.259 310.012,247.400 310.226 C 248.318 310.399,248.800 310.336,248.800 310.045 C 248.800 309.800,249.051 309.600,249.357 309.600 C 249.664 309.600,250.017 309.333,250.142 309.007 C 250.272 308.669,250.635 308.515,250.985 308.650 C 251.387 308.804,251.600 308.654,251.600 308.216 C 251.600 307.725,251.817 307.615,252.410 307.803 C 252.966 307.980,253.186 307.894,253.110 307.530 C 253.050 307.239,253.270 307.000,253.600 307.000 C 253.930 307.000,254.346 306.771,254.525 306.492 C 254.703 306.212,255.030 306.095,255.251 306.232 C 255.472 306.368,255.884 306.165,256.166 305.779 C 256.523 305.290,256.764 305.218,256.963 305.539 C 257.372 306.202,258.000 306.107,258.000 305.382 C 258.000 305.021,258.283 304.814,258.684 304.882 C 259.106 304.955,259.578 304.569,259.916 303.878 C 260.359 302.972,260.574 302.847,261.032 303.227 C 261.485 303.603,261.600 303.558,261.600 303.006 C 261.600 302.469,261.822 302.369,262.591 302.562 C 263.419 302.770,263.625 302.640,263.842 301.775 C 264.053 300.934,264.276 300.783,265.023 300.970 C 265.760 301.155,265.970 301.021,266.073 300.301 C 266.172 299.599,266.438 299.416,267.276 299.472 C 268.104 299.527,268.380 299.343,268.476 298.672 C 268.571 298.009,268.851 297.816,269.642 297.867 C 270.458 297.920,270.805 297.660,271.242 296.667 C 271.638 295.768,272.070 295.400,272.730 295.400 C 273.367 295.400,274.007 294.894,274.755 293.800 C 275.561 292.623,276.081 292.233,276.725 292.325 C 277.206 292.394,277.600 292.271,277.600 292.052 C 277.600 291.833,277.942 291.545,278.360 291.413 C 278.778 291.280,279.223 290.773,279.348 290.286 C 279.571 289.419,281.345 287.417,284.048 284.981 C 284.791 284.311,285.850 283.226,286.400 282.570 C 287.971 280.696,290.058 279.137,290.677 279.374 C 290.987 279.493,291.148 279.440,291.035 279.256 C 290.921 279.072,291.189 278.533,291.631 278.059 C 292.073 277.585,292.382 276.895,292.317 276.525 C 292.244 276.108,292.844 275.417,293.901 274.700 C 295.299 273.751,295.560 273.380,295.368 272.615 C 295.168 271.820,295.345 271.614,296.577 271.208 C 297.805 270.802,298.003 270.573,297.910 269.666 C 297.823 268.824,297.989 268.573,298.701 268.472 C 299.431 268.368,299.556 268.164,299.362 267.390 C 299.164 266.604,299.305 266.389,300.158 266.175 C 300.993 265.965,301.150 265.739,300.966 265.008 C 300.783 264.278,300.940 264.052,301.775 263.842 C 302.640 263.625,302.770 263.419,302.562 262.591 C 302.369 261.822,302.469 261.600,303.006 261.600 C 303.574 261.600,303.609 261.493,303.203 261.004 C 302.799 260.517,302.845 260.352,303.454 260.104 C 303.864 259.937,304.200 259.550,304.200 259.244 C 304.200 258.938,304.560 258.488,305.000 258.244 C 305.440 258.000,305.871 257.759,305.957 257.710 C 306.043 257.660,305.888 257.347,305.612 257.014 C 305.201 256.519,305.231 256.363,305.778 256.153 C 306.145 256.012,306.353 255.655,306.240 255.359 C 306.126 255.063,306.251 254.681,306.517 254.511 C 306.782 254.340,307.000 253.930,307.000 253.600 C 307.000 253.270,307.239 253.050,307.530 253.110 C 307.894 253.186,307.980 252.966,307.803 252.410 C 307.620 251.832,307.726 251.600,308.173 251.600 C 308.533 251.600,308.800 251.260,308.800 250.800 C 308.800 250.360,308.980 250.000,309.200 250.000 C 309.420 250.000,309.600 249.460,309.600 248.800 C 309.600 248.140,309.763 247.600,309.963 247.600 C 310.162 247.600,310.231 247.240,310.116 246.800 C 309.966 246.229,310.104 246.000,310.596 246.000 C 311.052 246.000,311.206 245.792,311.050 245.385 C 310.913 245.030,311.073 244.670,311.427 244.534 C 311.872 244.363,311.972 243.982,311.789 243.149 C 311.590 242.244,311.677 242.000,312.200 242.000 C 312.729 242.000,312.810 241.757,312.600 240.800 C 312.393 239.857,312.473 239.600,312.976 239.600 C 313.457 239.600,313.554 239.354,313.365 238.604 C 313.194 237.923,313.300 237.537,313.698 237.384 C 314.069 237.241,314.214 236.805,314.095 236.185 C 313.970 235.534,314.122 235.128,314.551 234.963 C 315.001 234.791,315.122 234.428,314.954 233.758 C 314.771 233.029,314.876 232.800,315.392 232.800 C 315.962 232.800,316.027 232.544,315.800 231.200 C 315.572 229.850,315.637 229.600,316.216 229.600 C 316.793 229.600,316.861 229.344,316.646 228.000 C 316.443 226.726,316.514 226.400,316.995 226.400 C 317.694 226.400,317.777 225.317,317.196 223.790 C 316.849 222.878,316.906 222.697,317.596 222.517 C 318.042 222.400,318.400 221.972,318.400 221.553 C 318.400 221.139,318.614 220.800,318.876 220.800 C 319.153 220.800,319.081 220.590,318.704 220.300 C 317.684 219.514,317.610 217.600,318.600 217.600 C 319.320 217.600,319.420 215.431,318.778 213.742 C 318.270 212.407,318.598 210.800,319.378 210.800 C 319.847 210.800,319.941 209.100,319.941 200.600 C 319.941 192.100,319.847 190.400,319.378 190.400 C 318.576 190.400,318.240 188.636,318.758 187.147 C 319.380 185.363,319.323 183.600,318.643 183.600 C 317.850 183.600,317.557 182.566,318.011 181.370 C 318.596 179.833,318.489 178.800,317.746 178.800 C 317.200 178.800,317.132 178.500,317.338 177.000 C 317.540 175.524,317.471 175.200,316.955 175.200 C 316.429 175.200,316.370 174.870,316.600 173.200 C 316.836 171.487,316.779 171.200,316.206 171.200 C 315.670 171.200,315.589 170.960,315.800 170.000 C 316.011 169.041,315.930 168.800,315.397 168.800 C 314.839 168.800,314.774 168.535,315.002 167.188 C 315.212 165.946,315.151 165.601,314.737 165.688 C 314.392 165.760,314.217 165.443,314.248 164.800 C 314.275 164.250,314.049 163.655,313.746 163.479 C 313.393 163.273,313.284 162.806,313.441 162.179 C 313.629 161.430,313.528 161.200,313.012 161.200 C 312.476 161.200,312.389 160.962,312.589 160.051 C 312.778 159.192,312.674 158.837,312.179 158.647 C 311.796 158.501,311.614 158.141,311.746 157.797 C 311.888 157.426,311.740 157.200,311.356 157.200 C 310.876 157.200,310.796 156.930,311.000 156.000 C 311.210 155.046,311.129 154.800,310.605 154.800 C 310.128 154.800,310.016 154.579,310.200 154.000 C 310.383 153.423,310.272 153.200,309.800 153.200 C 309.328 153.200,309.217 152.977,309.400 152.400 C 309.581 151.829,309.472 151.600,309.019 151.600 C 308.542 151.600,308.447 151.352,308.636 150.600 C 308.797 149.957,308.718 149.600,308.415 149.600 C 308.155 149.600,307.992 149.195,308.051 148.700 C 308.111 148.205,307.905 147.350,307.595 146.800 C 307.284 146.250,307.068 145.665,307.115 145.500 C 307.162 145.335,306.828 145.200,306.373 145.200 C 305.712 145.200,305.600 145.030,305.816 144.350 C 305.997 143.778,305.941 143.589,305.643 143.774 C 304.940 144.208,304.283 143.623,304.789 143.013 C 305.112 142.624,305.002 142.442,304.343 142.269 C 303.604 142.076,303.548 141.944,303.983 141.420 C 304.415 140.901,304.386 140.800,303.806 140.800 C 303.274 140.800,303.169 140.576,303.355 139.838 C 303.559 139.026,303.399 138.808,302.323 138.433 C 301.341 138.091,301.159 137.881,301.525 137.515 C 302.048 136.992,302.179 136.242,301.696 136.541 C 301.143 136.883,299.891 135.660,300.137 135.019 C 300.268 134.679,300.188 134.400,299.959 134.400 C 299.269 134.400,298.308 133.217,298.529 132.640 C 298.649 132.327,298.325 131.912,297.760 131.654 C 296.990 131.304,296.834 131.005,297.024 130.246 C 297.233 129.412,297.071 129.220,295.810 128.803 C 294.497 128.370,294.377 128.213,294.596 127.216 C 294.810 126.244,294.667 126.028,293.416 125.435 C 291.486 124.519,290.295 123.209,290.818 122.578 C 291.241 122.069,288.846 119.200,287.999 119.200 C 287.473 119.200,282.000 113.718,282.000 113.191 C 282.000 112.350,278.707 109.579,278.203 109.997 C 277.657 110.451,275.803 108.868,275.402 107.607 C 275.278 107.216,274.641 106.788,273.986 106.657 C 273.129 106.486,272.605 106.019,272.113 104.988 C 271.548 103.802,271.272 103.596,270.506 103.788 C 269.795 103.966,269.505 103.812,269.248 103.119 C 269.032 102.533,268.581 102.215,267.958 102.209 C 267.272 102.203,266.964 101.944,266.872 101.299 C 266.770 100.579,266.560 100.445,265.823 100.630 C 265.076 100.817,264.853 100.666,264.642 99.825 C 264.425 98.960,264.219 98.830,263.391 99.038 C 262.663 99.221,262.400 99.126,262.400 98.681 C 262.400 98.286,262.140 98.143,261.652 98.271 C 261.100 98.415,260.835 98.193,260.643 97.428 C 260.425 96.560,260.219 96.430,259.391 96.638 C 258.552 96.849,258.400 96.746,258.400 95.967 C 258.400 95.074,258.383 95.070,257.829 95.824 C 257.309 96.530,257.234 96.539,256.995 95.925 C 256.852 95.554,256.480 95.348,256.170 95.467 C 255.860 95.586,255.500 95.406,255.370 95.067 C 255.240 94.728,254.880 94.548,254.570 94.667 C 254.260 94.786,253.900 94.606,253.770 94.267 C 253.640 93.928,253.280 93.748,252.970 93.867 C 252.660 93.986,252.300 93.806,252.170 93.467 C 252.040 93.128,251.680 92.948,251.370 93.067 C 251.060 93.186,250.700 93.006,250.570 92.667 C 250.440 92.328,250.079 92.148,249.767 92.268 C 249.414 92.404,249.200 92.227,249.200 91.800 C 249.200 91.347,248.991 91.195,248.585 91.350 C 248.226 91.488,247.869 91.324,247.727 90.955 C 247.553 90.500,247.165 90.387,246.342 90.552 C 245.481 90.724,245.200 90.628,245.200 90.163 C 245.200 89.728,244.964 89.621,244.400 89.800 C 243.821 89.984,243.600 89.872,243.600 89.395 C 243.600 88.871,243.354 88.790,242.400 89.000 C 241.478 89.203,241.200 89.123,241.200 88.656 C 241.200 88.243,240.850 88.073,240.100 88.125 C 239.416 88.171,239.037 88.015,239.096 87.711 C 239.163 87.372,238.826 87.295,237.996 87.461 C 237.042 87.652,236.800 87.562,236.800 87.018 C 236.800 86.469,236.567 86.388,235.600 86.600 C 234.693 86.799,234.338 86.704,234.149 86.211 C 233.963 85.726,233.603 85.624,232.749 85.811 C 231.901 85.998,231.535 85.896,231.353 85.422 C 231.165 84.933,230.788 84.841,229.758 85.034 C 228.728 85.228,228.350 85.136,228.162 84.646 C 227.970 84.144,227.575 84.058,226.358 84.253 C 225.275 84.426,224.800 84.356,224.800 84.023 C 224.800 83.077,223.829 82.465,223.273 83.060 C 222.559 83.824,220.800 83.758,220.800 82.968 C 220.800 82.429,220.420 82.377,218.200 82.615 C 215.957 82.855,215.600 82.804,215.600 82.247 C 215.600 81.475,213.993 81.394,210.781 82.004 C 208.416 82.452,207.200 82.238,207.200 81.373 C 207.200 80.899,206.062 80.800,200.600 80.800 C 195.229 80.800,194.000 80.904,194.000 81.357 M211.212 125.620 C 211.428 125.969,212.119 126.034,213.566 125.842 C 215.237 125.621,215.659 125.688,215.858 126.207 C 216.038 126.676,216.534 126.811,217.751 126.721 C 218.980 126.631,219.371 126.739,219.284 127.147 C 219.195 127.567,219.499 127.633,220.584 127.429 C 221.733 127.214,222.000 127.286,222.000 127.814 C 222.000 128.328,222.251 128.408,223.200 128.200 C 224.163 127.988,224.400 128.070,224.400 128.612 C 224.400 129.134,224.629 129.229,225.409 129.034 C 226.126 128.854,226.488 128.963,226.660 129.411 C 226.837 129.873,227.209 129.974,228.051 129.789 C 228.909 129.600,229.200 129.685,229.200 130.124 C 229.200 130.447,229.515 130.686,229.900 130.656 C 230.289 130.625,230.551 130.836,230.490 131.130 C 230.414 131.494,230.634 131.580,231.190 131.403 C 231.736 131.230,232.000 131.326,232.000 131.698 C 232.000 132.002,232.630 132.498,233.400 132.800 C 234.170 133.102,234.800 133.508,234.800 133.702 C 234.800 133.895,235.161 133.939,235.602 133.799 C 236.119 133.635,236.483 133.752,236.628 134.128 C 236.761 134.474,237.166 134.629,237.626 134.509 C 238.172 134.366,238.400 134.511,238.400 135.002 C 238.400 135.577,238.505 135.611,239.003 135.198 C 239.511 134.776,239.674 134.894,240.042 135.949 C 240.515 137.306,240.788 137.452,241.508 136.732 C 241.993 136.247,242.916 137.844,242.529 138.500 C 242.261 138.957,243.117 138.858,243.400 138.400 C 243.875 137.631,244.444 138.012,245.138 139.561 C 245.721 140.863,245.954 141.057,246.540 140.730 C 247.260 140.327,248.400 140.900,248.400 141.666 C 248.400 141.868,248.602 142.275,248.849 142.571 C 250.597 144.661,251.596 145.600,252.071 145.600 C 253.017 145.600,254.400 146.809,254.400 147.636 C 254.400 148.572,256.586 150.862,258.351 151.775 C 259.603 152.422,260.055 153.782,259.123 154.092 C 258.860 154.180,259.427 154.564,260.382 154.946 C 261.690 155.469,262.005 155.755,261.659 156.101 C 261.146 156.614,261.035 157.626,261.500 157.553 C 262.828 157.343,263.275 157.645,263.038 158.591 C 262.831 159.417,262.960 159.625,263.815 159.839 C 264.480 160.006,264.794 160.326,264.708 160.748 C 264.636 161.107,264.979 161.722,265.470 162.115 C 265.975 162.519,266.266 163.084,266.139 163.415 C 265.995 163.789,266.163 164.000,266.604 164.000 C 267.096 164.000,267.234 164.229,267.084 164.800 C 266.964 165.261,267.072 165.600,267.340 165.600 C 267.927 165.600,268.944 167.843,268.606 168.391 C 268.467 168.616,268.637 168.800,268.984 168.800 C 269.457 168.800,269.553 169.050,269.365 169.796 C 269.185 170.515,269.300 170.864,269.781 171.048 C 270.147 171.188,270.351 171.550,270.236 171.852 C 270.113 172.171,270.284 172.400,270.644 172.400 C 271.124 172.400,271.204 172.670,271.000 173.600 C 270.790 174.557,270.871 174.800,271.400 174.800 C 271.929 174.800,272.010 175.043,271.800 176.000 C 271.590 176.957,271.671 177.200,272.200 177.200 C 272.729 177.200,272.810 177.443,272.600 178.400 C 272.389 179.359,272.470 179.600,273.003 179.600 C 273.560 179.600,273.626 179.865,273.400 181.200 C 273.177 182.520,273.243 182.800,273.779 182.800 C 274.326 182.800,274.386 183.113,274.162 184.800 C 273.936 186.502,273.996 186.800,274.560 186.800 C 275.137 186.800,275.187 187.140,274.952 189.440 C 274.742 191.491,274.806 192.156,275.241 192.425 C 276.082 192.945,276.117 207.180,275.277 207.503 C 274.812 207.681,274.747 208.271,274.951 210.463 C 275.172 212.838,275.119 213.200,274.548 213.200 C 273.999 213.200,273.932 213.497,274.140 215.015 C 274.337 216.452,274.258 216.880,273.760 217.071 C 273.285 217.253,273.194 217.640,273.385 218.661 C 273.578 219.690,273.486 220.069,272.998 220.256 C 272.527 220.437,272.425 220.803,272.611 221.651 C 272.810 222.556,272.723 222.800,272.200 222.800 C 271.671 222.800,271.590 223.043,271.800 224.000 C 272.012 224.963,271.930 225.200,271.388 225.200 C 270.866 225.200,270.771 225.429,270.966 226.209 C 271.144 226.915,271.037 227.288,270.612 227.451 C 270.278 227.579,270.121 227.872,270.263 228.103 C 270.406 228.333,270.270 228.723,269.961 228.969 C 269.007 229.729,268.350 231.213,268.608 232.025 C 268.775 232.552,268.666 232.800,268.264 232.800 C 267.872 232.800,267.745 233.067,267.884 233.600 C 268.026 234.141,267.896 234.400,267.484 234.400 C 267.086 234.400,266.943 234.659,267.071 235.148 C 267.215 235.700,266.993 235.965,266.228 236.157 C 265.360 236.375,265.230 236.581,265.438 237.409 C 265.631 238.178,265.531 238.400,264.994 238.400 C 264.423 238.400,264.389 238.505,264.802 239.003 C 265.224 239.511,265.106 239.674,264.051 240.042 C 262.694 240.515,262.548 240.788,263.268 241.508 C 263.753 241.993,262.156 242.916,261.500 242.529 C 261.043 242.261,261.142 243.117,261.600 243.400 C 262.370 243.876,261.987 244.445,260.429 245.143 C 259.229 245.680,258.944 245.983,259.223 246.423 C 259.804 247.341,259.697 247.525,257.907 248.694 C 255.711 250.129,250.915 254.932,249.469 257.146 C 248.589 258.492,248.155 258.829,247.517 258.662 C 246.605 258.424,245.600 259.208,245.600 260.157 C 245.600 260.941,244.256 261.673,243.413 261.349 C 243.058 261.213,242.813 261.259,242.869 261.451 C 243.118 262.311,241.951 263.657,241.372 263.177 C 240.913 262.796,240.800 262.839,240.800 263.394 C 240.800 263.926,240.576 264.031,239.838 263.845 C 239.028 263.642,238.808 263.801,238.441 264.853 C 238.074 265.906,237.911 266.024,237.403 265.602 C 236.905 265.189,236.800 265.223,236.800 265.798 C 236.800 266.296,236.574 266.434,236.000 266.284 C 235.459 266.143,235.200 266.272,235.200 266.684 C 235.200 267.096,234.941 267.226,234.400 267.084 C 233.859 266.943,233.600 267.072,233.600 267.484 C 233.600 267.896,233.341 268.026,232.800 267.884 C 232.260 267.743,232.000 267.872,232.000 268.280 C 232.000 268.638,231.768 268.797,231.433 268.668 C 231.121 268.548,230.762 268.722,230.635 269.053 C 230.490 269.431,230.123 269.566,229.649 269.416 C 229.164 269.261,228.807 269.404,228.649 269.816 C 228.485 270.244,228.139 270.371,227.602 270.201 C 227.021 270.016,226.800 270.128,226.800 270.605 C 226.800 271.129,226.554 271.210,225.600 271.000 C 224.643 270.790,224.400 270.871,224.400 271.400 C 224.400 271.929,224.157 272.010,223.200 271.800 C 222.259 271.593,222.000 271.674,222.000 272.173 C 222.000 272.692,221.704 272.762,220.400 272.554 C 219.080 272.343,218.800 272.412,218.800 272.954 C 218.800 273.495,218.520 273.565,217.200 273.354 C 215.854 273.138,215.600 273.207,215.600 273.786 C 215.600 274.385,215.332 274.438,213.551 274.193 C 212.097 273.993,211.413 274.055,211.197 274.405 C 210.757 275.116,189.746 275.094,189.918 274.382 C 190.006 274.015,189.432 273.961,187.618 274.166 C 185.534 274.402,185.200 274.349,185.200 273.785 C 185.200 273.242,184.925 273.176,183.600 273.400 C 182.277 273.624,182.000 273.557,182.000 273.018 C 182.000 272.510,181.668 272.391,180.500 272.483 C 179.399 272.569,179.031 272.455,179.116 272.053 C 179.205 271.633,178.901 271.567,177.816 271.771 C 176.685 271.983,176.400 271.910,176.400 271.411 C 176.400 270.943,176.147 270.848,175.404 271.035 C 174.706 271.210,174.336 271.100,174.171 270.668 C 174.040 270.328,173.680 270.148,173.370 270.267 C 173.060 270.386,172.695 270.191,172.558 269.834 C 172.398 269.417,171.931 269.223,171.254 269.292 C 170.551 269.364,170.237 269.224,170.310 268.870 C 170.370 268.579,170.231 268.457,170.001 268.600 C 169.445 268.943,167.200 267.933,167.200 267.340 C 167.200 267.072,166.861 266.964,166.400 267.084 C 165.859 267.226,165.600 267.096,165.600 266.684 C 165.600 266.286,165.341 266.143,164.852 266.271 C 164.298 266.415,164.034 266.192,163.838 265.410 C 163.631 264.585,163.401 264.409,162.785 264.605 C 162.263 264.771,161.913 264.639,161.751 264.217 C 161.571 263.746,161.371 263.692,160.989 264.009 C 160.303 264.579,159.874 263.892,160.170 262.696 C 160.293 262.203,160.282 262.045,160.148 262.345 C 159.949 262.788,159.843 262.793,159.582 262.371 C 159.324 261.954,159.142 261.950,158.658 262.352 C 157.993 262.904,156.922 261.573,157.404 260.793 C 157.561 260.540,157.291 260.537,156.639 260.785 C 155.568 261.192,154.357 260.155,153.779 258.333 C 153.586 257.727,153.296 257.590,152.582 257.769 C 151.781 257.970,151.297 257.582,149.374 255.203 C 148.129 253.661,146.992 252.400,146.847 252.400 C 145.873 252.400,142.826 249.037,143.037 248.196 C 143.210 247.507,143.067 247.212,142.467 247.021 C 140.997 246.555,139.559 245.160,139.792 244.427 C 139.945 243.942,139.681 243.583,138.910 243.232 C 137.853 242.750,137.839 242.707,138.570 242.172 C 139.290 241.646,139.248 241.579,137.833 240.988 C 136.662 240.499,136.430 240.246,136.774 239.831 C 137.110 239.426,136.980 239.148,136.220 238.650 C 135.667 238.288,135.319 237.756,135.435 237.452 C 135.563 237.121,135.295 236.814,134.757 236.673 C 134.005 236.476,133.948 236.345,134.383 235.820 C 134.815 235.300,134.785 235.200,134.202 235.200 C 133.704 235.200,133.566 234.974,133.716 234.400 C 133.837 233.936,133.728 233.600,133.457 233.600 C 132.775 233.600,131.411 230.388,131.542 229.091 C 131.617 228.344,131.482 228.018,131.127 228.091 C 130.836 228.151,130.625 227.887,130.656 227.500 C 130.686 227.115,130.447 226.800,130.124 226.800 C 129.679 226.800,129.601 226.508,129.800 225.600 C 130.010 224.643,129.929 224.400,129.400 224.400 C 128.871 224.400,128.790 224.157,129.000 223.200 C 129.211 222.241,129.130 222.000,128.597 222.000 C 128.040 222.000,127.974 221.735,128.200 220.400 C 128.424 219.076,128.358 218.800,127.817 218.800 C 127.292 218.800,127.213 218.536,127.416 217.456 C 127.609 216.427,127.516 216.053,127.019 215.863 C 126.488 215.659,126.419 215.251,126.637 213.607 C 126.859 211.929,126.799 211.600,126.268 211.600 C 125.714 211.600,125.665 211.085,125.881 207.537 C 126.052 204.728,125.998 203.554,125.706 203.734 C 125.068 204.129,124.800 203.025,124.800 200.000 C 124.800 196.975,125.068 195.871,125.706 196.266 C 125.999 196.446,126.047 195.276,125.862 192.463 C 125.626 188.862,125.670 188.400,126.250 188.400 C 126.803 188.400,126.862 188.092,126.637 186.393 C 126.419 184.749,126.488 184.341,127.019 184.137 C 127.516 183.947,127.609 183.573,127.416 182.544 C 127.213 181.464,127.292 181.200,127.817 181.200 C 128.358 181.200,128.424 180.924,128.200 179.600 C 127.974 178.265,128.040 178.000,128.597 178.000 C 129.130 178.000,129.211 177.759,129.000 176.800 C 128.790 175.843,128.871 175.600,129.400 175.600 C 129.929 175.600,130.010 175.357,129.800 174.400 C 129.601 173.492,129.679 173.200,130.124 173.200 C 130.447 173.200,130.686 172.885,130.656 172.500 C 130.623 172.096,130.834 171.850,131.154 171.918 C 131.569 172.006,131.646 171.732,131.464 170.818 C 131.277 169.884,131.363 169.600,131.834 169.600 C 132.171 169.600,132.333 169.416,132.194 169.191 C 131.856 168.643,132.873 166.400,133.460 166.400 C 133.728 166.400,133.836 166.061,133.716 165.600 C 133.574 165.059,133.704 164.800,134.116 164.800 C 134.514 164.800,134.657 164.541,134.529 164.052 C 134.385 163.500,134.607 163.235,135.372 163.043 C 136.240 162.825,136.370 162.619,136.162 161.791 C 135.969 161.022,136.069 160.800,136.606 160.800 C 137.176 160.800,137.210 160.694,136.800 160.200 C 136.380 159.694,136.545 159.495,137.851 158.928 C 138.945 158.453,139.194 158.209,138.700 158.098 C 137.660 157.865,137.849 157.299,139.200 156.600 C 140.038 156.167,140.400 155.684,140.400 155.000 C 140.400 154.303,140.769 153.830,141.680 153.358 C 143.449 152.444,144.121 151.692,143.835 150.947 C 143.495 150.061,150.861 142.695,151.747 143.035 C 152.492 143.321,153.244 142.649,154.158 140.880 C 154.897 139.452,154.939 139.432,156.026 140.014 C 156.560 140.300,156.816 140.300,156.850 140.014 C 157.043 138.415,157.986 137.026,158.517 137.557 C 159.040 138.080,159.742 138.154,159.433 137.653 C 159.129 137.161,160.663 135.868,161.175 136.184 C 161.410 136.330,161.600 136.149,161.600 135.780 C 161.600 135.276,161.834 135.172,162.557 135.354 C 163.347 135.552,163.561 135.412,163.776 134.555 C 163.972 133.771,164.228 133.566,164.818 133.721 C 165.341 133.857,165.600 133.723,165.600 133.316 C 165.600 132.907,165.859 132.774,166.386 132.912 C 166.852 133.034,167.137 132.931,167.086 132.659 C 167.039 132.407,167.405 132.214,167.900 132.232 C 168.395 132.249,168.800 132.029,168.800 131.742 C 168.800 131.375,169.157 131.291,170.000 131.460 C 170.964 131.653,171.200 131.564,171.200 131.007 C 171.200 130.556,171.409 130.395,171.800 130.545 C 172.174 130.688,172.400 130.542,172.400 130.156 C 172.400 129.674,172.670 129.596,173.611 129.803 C 174.511 130.000,174.794 129.931,174.711 129.534 C 174.633 129.160,174.989 129.030,175.900 129.102 C 176.826 129.174,177.200 129.033,177.200 128.612 C 177.200 128.168,177.499 128.080,178.400 128.260 C 179.358 128.452,179.600 128.362,179.600 127.818 C 179.600 127.269,179.833 127.188,180.800 127.400 C 181.759 127.611,182.000 127.530,182.000 126.997 C 182.000 126.444,182.265 126.374,183.547 126.591 C 184.753 126.795,185.148 126.713,185.336 126.221 C 185.533 125.709,185.982 125.638,187.728 125.843 C 189.358 126.035,189.928 125.963,190.088 125.548 C 190.379 124.788,210.741 124.857,211.212 125.620 " stroke="none" fill="#949ca4" fill-rule="evenodd"></path><path id="path1" d="M182.800 9.800 C 182.800 10.130,182.980 10.400,183.200 10.400 C 183.420 10.400,183.600 10.130,183.600 9.800 C 183.600 9.470,183.420 9.200,183.200 9.200 C 182.980 9.200,182.800 9.470,182.800 9.800 M238.217 12.772 C 237.944 13.214,238.575 13.692,238.944 13.322 C 239.325 12.942,239.254 12.400,238.824 12.400 C 238.617 12.400,238.344 12.568,238.217 12.772 M148.400 16.233 C 148.400 16.940,149.261 16.817,149.508 16.075 C 149.595 15.814,149.382 15.600,149.033 15.600 C 148.685 15.600,148.400 15.885,148.400 16.233 M133.600 20.600 C 133.600 20.930,133.780 21.200,134.000 21.200 C 134.220 21.200,134.400 20.930,134.400 20.600 C 134.400 20.270,134.220 20.000,134.000 20.000 C 133.780 20.000,133.600 20.270,133.600 20.600 M129.600 22.200 C 129.600 22.567,129.793 22.802,130.030 22.723 C 130.267 22.645,130.460 22.409,130.460 22.200 C 130.460 21.991,130.267 21.756,130.030 21.677 C 129.793 21.598,129.600 21.833,129.600 22.200 M278.800 26.254 C 278.800 26.553,279.056 26.677,279.400 26.545 C 279.730 26.418,280.000 26.184,280.000 26.024 C 280.000 25.864,279.730 25.733,279.400 25.733 C 279.070 25.733,278.800 25.968,278.800 26.254 M118.678 26.656 C 118.358 26.975,118.719 27.600,119.224 27.600 C 119.431 27.600,119.600 27.330,119.600 27.000 C 119.600 26.381,119.128 26.205,118.678 26.656 M93.600 41.000 C 93.600 41.257,93.840 41.467,94.133 41.467 C 94.427 41.467,94.667 41.257,94.667 41.000 C 94.667 40.743,94.427 40.533,94.133 40.533 C 93.840 40.533,93.600 40.743,93.600 41.000 M334.800 65.000 C 336.282 66.529,336.400 66.601,336.400 65.982 C 336.400 65.398,334.542 63.600,333.940 63.600 C 333.667 63.600,334.054 64.230,334.800 65.000 M51.417 79.172 C 51.144 79.614,51.775 80.092,52.144 79.722 C 52.525 79.342,52.454 78.800,52.024 78.800 C 51.817 78.800,51.544 78.968,51.417 79.172 M191.426 81.158 C 191.158 81.591,192.321 82.096,192.843 81.774 C 193.046 81.648,193.109 81.377,192.983 81.172 C 192.690 80.698,191.716 80.689,191.426 81.158 M208.000 81.157 C 208.000 81.354,208.225 81.597,208.500 81.698 C 209.203 81.957,210.050 81.604,209.779 81.166 C 209.488 80.695,208.000 80.687,208.000 81.157 M46.075 86.025 C 46.171 86.314,46.486 86.629,46.775 86.725 C 47.075 86.825,47.225 86.675,47.125 86.375 C 47.029 86.086,46.714 85.771,46.425 85.675 C 46.125 85.575,45.975 85.725,46.075 86.025 M156.000 89.200 C 156.000 89.420,156.360 89.600,156.800 89.600 C 157.240 89.600,157.600 89.420,157.600 89.200 C 157.600 88.980,157.240 88.800,156.800 88.800 C 156.360 88.800,156.000 88.980,156.000 89.200 M42.060 91.580 C 42.148 91.844,42.351 92.047,42.510 92.030 C 42.988 91.981,42.896 91.432,42.380 91.260 C 42.116 91.172,41.972 91.316,42.060 91.580 M249.600 91.600 C 249.600 91.820,249.870 92.000,250.200 92.000 C 250.530 92.000,250.800 92.180,250.800 92.400 C 250.800 92.620,251.070 92.800,251.400 92.800 C 252.366 92.800,252.090 92.014,250.974 91.590 C 249.697 91.105,249.600 91.105,249.600 91.600 M252.800 92.800 C 252.483 92.996,252.356 93.289,252.518 93.452 C 252.681 93.614,253.023 93.537,253.280 93.280 C 253.884 92.676,253.547 92.338,252.800 92.800 M254.000 93.800 C 254.000 94.130,254.161 94.400,254.357 94.400 C 254.554 94.400,254.818 94.130,254.945 93.800 C 255.085 93.435,254.945 93.200,254.587 93.200 C 254.264 93.200,254.000 93.470,254.000 93.800 M40.533 94.133 C 40.533 94.427,40.743 94.667,41.000 94.667 C 41.257 94.667,41.467 94.427,41.467 94.133 C 41.467 93.840,41.257 93.600,41.000 93.600 C 40.743 93.600,40.533 93.840,40.533 94.133 M255.600 94.700 C 255.600 95.012,255.814 95.195,256.075 95.108 C 256.800 94.867,256.903 94.133,256.211 94.133 C 255.875 94.133,255.600 94.388,255.600 94.700 M137.100 98.557 C 136.369 99.112,136.184 99.600,136.704 99.600 C 136.871 99.600,137.232 99.240,137.507 98.800 C 138.089 97.868,138.044 97.840,137.100 98.557 M267.200 101.600 C 267.200 101.820,267.470 102.000,267.800 102.000 C 268.130 102.000,268.400 101.820,268.400 101.600 C 268.400 101.380,268.130 101.200,267.800 101.200 C 267.470 101.200,267.200 101.380,267.200 101.600 M272.800 105.600 C 272.800 105.820,273.070 106.000,273.400 106.000 C 273.730 106.000,274.000 105.820,274.000 105.600 C 274.000 105.380,273.730 105.200,273.400 105.200 C 273.070 105.200,272.800 105.380,272.800 105.600 M120.800 111.000 C 120.800 111.330,120.980 111.600,121.200 111.600 C 121.420 111.600,121.600 111.330,121.600 111.000 C 121.600 110.670,121.420 110.400,121.200 110.400 C 120.980 110.400,120.800 110.670,120.800 111.000 M110.013 121.491 C 109.489 122.082,109.503 122.123,110.146 121.876 C 110.542 121.724,111.031 121.600,111.233 121.600 C 111.435 121.600,111.600 121.420,111.600 121.200 C 111.600 120.583,110.667 120.755,110.013 121.491 M209.600 125.600 C 209.600 125.820,209.870 126.000,210.200 126.000 C 210.530 126.000,210.800 125.820,210.800 125.600 C 210.800 125.380,210.530 125.200,210.200 125.200 C 209.870 125.200,209.600 125.380,209.600 125.600 M294.800 127.400 C 294.800 127.730,294.980 128.000,295.200 128.000 C 295.420 128.000,295.600 127.730,295.600 127.400 C 295.600 127.070,295.420 126.800,295.200 126.800 C 294.980 126.800,294.800 127.070,294.800 127.400 M21.692 130.075 C 21.779 130.336,22.109 130.620,22.425 130.705 C 22.900 130.834,22.905 130.795,22.455 130.479 C 21.994 130.156,21.994 130.063,22.455 129.880 C 22.822 129.734,22.760 129.653,22.267 129.632 C 21.863 129.614,21.605 129.814,21.692 130.075 M227.600 130.400 C 227.600 130.620,227.870 130.800,228.200 130.800 C 228.530 130.800,228.800 130.620,228.800 130.400 C 228.800 130.180,228.530 130.000,228.200 130.000 C 227.870 130.000,227.600 130.180,227.600 130.400 M20.000 134.000 C 20.000 134.220,20.270 134.400,20.600 134.400 C 20.930 134.400,21.200 134.220,21.200 134.000 C 21.200 133.780,20.930 133.600,20.600 133.600 C 20.270 133.600,20.000 133.780,20.000 134.000 M19.384 136.027 C 19.239 136.261,19.216 136.549,19.333 136.667 C 19.620 136.953,20.400 136.448,20.400 135.976 C 20.400 135.465,19.709 135.499,19.384 136.027 M243.384 138.827 C 243.239 139.061,243.216 139.349,243.333 139.467 C 243.620 139.753,244.400 139.248,244.400 138.776 C 244.400 138.265,243.709 138.299,243.384 138.827 M246.400 141.200 C 246.400 141.420,246.670 141.600,247.000 141.600 C 247.330 141.600,247.600 141.420,247.600 141.200 C 247.600 140.980,247.330 140.800,247.000 140.800 C 246.670 140.800,246.400 140.980,246.400 141.200 M150.982 143.715 C 149.955 144.906,149.928 145.293,150.922 144.568 C 151.944 143.823,152.311 143.184,151.700 143.215 C 151.535 143.224,151.212 143.449,150.982 143.715 M144.500 150.198 C 143.757 151.042,143.894 151.273,144.800 150.707 C 145.240 150.432,145.600 150.071,145.600 149.904 C 145.600 149.427,145.049 149.575,144.500 150.198 M138.400 157.600 C 138.400 157.820,138.659 158.000,138.976 158.000 C 139.293 158.000,139.664 157.820,139.800 157.600 C 139.936 157.380,139.677 157.200,139.224 157.200 C 138.771 157.200,138.400 157.380,138.400 157.600 M312.800 160.200 C 312.800 160.530,312.980 160.800,313.200 160.800 C 313.420 160.800,313.600 160.530,313.600 160.200 C 313.600 159.870,313.420 159.600,313.200 159.600 C 312.980 159.600,312.800 159.870,312.800 160.200 M267.600 167.800 C 267.600 168.130,267.780 168.400,268.000 168.400 C 268.220 168.400,268.400 168.130,268.400 167.800 C 268.400 167.470,268.220 167.200,268.000 167.200 C 267.780 167.200,267.600 167.470,267.600 167.800 M132.400 168.600 C 132.400 168.930,132.580 169.200,132.800 169.200 C 133.020 169.200,133.200 168.930,133.200 168.600 C 133.200 168.270,133.020 168.000,132.800 168.000 C 132.580 168.000,132.400 168.270,132.400 168.600 M389.078 174.256 C 388.758 174.575,389.119 175.200,389.624 175.200 C 389.831 175.200,390.000 174.930,390.000 174.600 C 390.000 173.981,389.528 173.805,389.078 174.256 M319.041 188.238 C 318.769 188.945,319.050 189.600,319.624 189.600 C 320.103 189.600,320.118 188.120,319.642 187.826 C 319.445 187.704,319.174 187.890,319.041 188.238 M80.991 191.681 C 80.651 192.564,81.146 193.414,81.687 192.873 C 81.948 192.612,81.942 192.226,81.668 191.739 C 81.286 191.058,81.233 191.053,80.991 191.681 M274.800 194.200 C 274.800 194.750,274.980 195.200,275.200 195.200 C 275.420 195.200,275.600 194.750,275.600 194.200 C 275.600 193.650,275.420 193.200,275.200 193.200 C 274.980 193.200,274.800 193.650,274.800 194.200 M125.200 200.000 C 125.200 201.263,125.353 201.953,125.600 201.800 C 125.820 201.664,126.000 200.854,126.000 200.000 C 126.000 199.146,125.820 198.336,125.600 198.200 C 125.353 198.047,125.200 198.737,125.200 200.000 M274.800 205.800 C 274.800 206.350,274.980 206.800,275.200 206.800 C 275.420 206.800,275.600 206.350,275.600 205.800 C 275.600 205.250,275.420 204.800,275.200 204.800 C 274.980 204.800,274.800 205.250,274.800 205.800 M80.800 208.776 C 80.800 209.203,80.965 209.655,81.166 209.779 C 81.604 210.050,81.957 209.203,81.698 208.500 C 81.413 207.723,80.800 207.911,80.800 208.776 M319.000 212.000 C 318.708 212.472,319.087 213.200,319.624 213.200 C 319.831 213.200,320.000 212.840,320.000 212.400 C 320.000 211.556,319.418 211.324,319.000 212.000 M388.077 230.830 C 388.156 231.067,388.391 231.260,388.600 231.260 C 388.809 231.260,389.045 231.067,389.123 230.830 C 389.202 230.594,388.967 230.400,388.600 230.400 C 388.233 230.400,387.998 230.594,388.077 230.830 M12.588 238.420 C 12.207 239.035,12.728 239.432,13.242 238.918 C 13.529 238.631,13.536 238.407,13.262 238.239 C 13.039 238.100,12.735 238.182,12.588 238.420 M260.643 243.767 C 260.776 244.115,261.061 244.400,261.276 244.400 C 261.802 244.400,261.473 243.491,260.875 243.292 C 260.582 243.194,260.493 243.377,260.643 243.767 M143.200 248.229 C 143.200 248.653,144.436 249.697,144.667 249.467 C 144.792 249.341,144.617 248.960,144.276 248.619 C 143.641 247.984,143.200 247.824,143.200 248.229 M91.600 250.891 C 91.600 251.620,92.309 252.224,92.703 251.831 C 92.840 251.693,92.648 251.277,92.276 250.905 C 91.653 250.281,91.600 250.280,91.600 250.891 M92.643 253.033 C 92.493 253.423,92.582 253.606,92.875 253.508 C 93.473 253.309,93.802 252.400,93.276 252.400 C 93.061 252.400,92.776 252.685,92.643 253.033 M93.200 254.587 C 93.200 254.945,93.435 255.085,93.800 254.945 C 94.130 254.818,94.400 254.554,94.400 254.357 C 94.400 254.161,94.130 254.000,93.800 254.000 C 93.470 254.000,93.200 254.264,93.200 254.587 M94.243 256.233 C 94.093 256.623,94.182 256.806,94.475 256.708 C 95.073 256.509,95.402 255.600,94.876 255.600 C 94.661 255.600,94.376 255.885,94.243 256.233 M151.200 256.229 C 151.200 256.653,152.436 257.697,152.667 257.467 C 152.792 257.341,152.617 256.960,152.276 256.619 C 151.641 255.984,151.200 255.824,151.200 256.229 M382.000 257.400 C 382.000 257.767,382.194 258.002,382.430 257.923 C 382.667 257.845,382.860 257.609,382.860 257.400 C 382.860 257.191,382.667 256.955,382.430 256.877 C 382.194 256.798,382.000 257.033,382.000 257.400 M168.800 268.000 C 168.800 268.220,169.070 268.400,169.400 268.400 C 169.730 268.400,170.000 268.220,170.000 268.000 C 170.000 267.780,169.730 267.600,169.400 267.600 C 169.070 267.600,168.800 267.780,168.800 268.000 M229.200 268.800 C 229.200 269.020,229.470 269.200,229.800 269.200 C 230.130 269.200,230.400 269.020,230.400 268.800 C 230.400 268.580,230.130 268.400,229.800 268.400 C 229.470 268.400,229.200 268.580,229.200 268.800 M298.700 268.957 C 297.969 269.512,297.784 270.000,298.304 270.000 C 298.471 270.000,298.832 269.640,299.107 269.200 C 299.689 268.268,299.644 268.240,298.700 268.957 M295.600 272.600 C 295.600 272.930,295.780 273.200,296.000 273.200 C 296.220 273.200,296.400 272.930,296.400 272.600 C 296.400 272.270,296.220 272.000,296.000 272.000 C 295.780 272.000,295.600 272.270,295.600 272.600 M374.933 276.133 C 374.933 276.427,375.143 276.667,375.400 276.667 C 375.657 276.667,375.867 276.427,375.867 276.133 C 375.867 275.840,375.657 275.600,375.400 275.600 C 375.143 275.600,374.933 275.840,374.933 276.133 M287.500 282.014 C 286.492 283.113,286.093 284.000,286.607 284.000 C 287.012 284.000,289.497 281.230,289.284 281.017 C 288.901 280.635,288.623 280.790,287.500 282.014 M282.012 287.589 C 281.312 288.243,280.844 288.947,280.971 289.154 C 281.179 289.489,284.000 287.117,284.000 286.607 C 284.000 286.093,283.180 286.497,282.012 287.589 M122.400 291.029 C 122.400 291.453,123.636 292.497,123.867 292.267 C 123.992 292.141,123.817 291.760,123.476 291.419 C 122.841 290.784,122.400 290.624,122.400 291.029 M272.000 296.000 C 272.000 296.220,272.270 296.400,272.600 296.400 C 272.930 296.400,273.200 296.220,273.200 296.000 C 273.200 295.780,272.930 295.600,272.600 295.600 C 272.270 295.600,272.000 295.780,272.000 296.000 M34.875 297.225 C 34.971 297.514,35.286 297.829,35.575 297.925 C 35.875 298.025,36.025 297.875,35.925 297.575 C 35.829 297.286,35.514 296.971,35.225 296.875 C 34.925 296.775,34.775 296.925,34.875 297.225 M268.690 298.776 C 268.514 299.450,268.587 299.490,269.244 299.080 C 270.132 298.525,270.231 298.000,269.447 298.000 C 269.142 298.000,268.802 298.349,268.690 298.776 M37.200 301.200 C 37.200 301.420,37.470 301.600,37.800 301.600 C 38.130 301.600,38.400 301.420,38.400 301.200 C 38.400 300.980,38.130 300.800,37.800 300.800 C 37.470 300.800,37.200 300.980,37.200 301.200 M43.660 310.380 C 43.832 310.896,44.381 310.988,44.430 310.510 C 44.447 310.351,44.244 310.148,43.980 310.060 C 43.716 309.972,43.572 310.116,43.660 310.380 M188.008 319.195 C 187.511 319.502,187.530 319.598,188.128 319.828 C 188.963 320.148,189.508 319.748,188.970 319.210 C 188.743 318.983,188.361 318.977,188.008 319.195 M211.839 319.094 C 211.358 319.576,211.620 320.000,212.400 320.000 C 212.840 320.000,213.200 319.839,213.200 319.643 C 213.200 319.193,212.160 318.774,211.839 319.094 M345.200 323.800 C 345.200 324.167,345.394 324.402,345.630 324.323 C 345.867 324.245,346.060 324.009,346.060 323.800 C 346.060 323.591,345.867 323.356,345.630 323.277 C 345.394 323.198,345.200 323.433,345.200 323.800 M338.184 331.388 C 337.206 332.175,337.091 332.432,337.524 332.870 C 337.957 333.309,338.001 333.279,337.779 332.695 C 337.579 332.170,337.667 332.051,338.125 332.226 C 338.507 332.373,338.913 332.135,339.202 331.597 C 339.864 330.360,339.544 330.294,338.184 331.388 M63.600 333.984 C 63.600 334.430,65.642 336.400,66.106 336.400 C 66.278 336.400,65.846 335.770,65.145 335.000 C 63.784 333.504,63.600 333.383,63.600 333.984 M331.200 338.400 C 330.285 339.686,330.383 339.851,331.657 339.169 C 332.149 338.906,332.370 338.500,332.226 338.125 C 332.059 337.688,332.172 337.580,332.616 337.751 C 332.976 337.889,333.138 337.823,332.997 337.595 C 332.584 336.928,332.091 337.148,331.200 338.400 M323.277 345.630 C 323.356 345.867,323.591 346.060,323.800 346.060 C 324.009 346.060,324.245 345.867,324.323 345.630 C 324.402 345.394,324.167 345.200,323.800 345.200 C 323.433 345.200,323.198 345.394,323.277 345.630 M88.933 355.867 C 88.933 356.160,89.173 356.400,89.467 356.400 C 89.760 356.400,90.000 356.160,90.000 355.867 C 90.000 355.573,89.760 355.333,89.467 355.333 C 89.173 355.333,88.933 355.573,88.933 355.867 M306.933 358.200 C 306.933 358.457,307.173 358.667,307.467 358.667 C 307.760 358.667,308.000 358.457,308.000 358.200 C 308.000 357.943,307.760 357.733,307.467 357.733 C 307.173 357.733,306.933 357.943,306.933 358.200 M106.000 366.800 C 106.000 367.020,106.270 367.200,106.600 367.200 C 106.930 367.200,107.200 367.020,107.200 366.800 C 107.200 366.580,106.930 366.400,106.600 366.400 C 106.270 366.400,106.000 366.580,106.000 366.800 M121.878 374.256 C 121.558 374.575,121.919 375.200,122.424 375.200 C 122.631 375.200,122.800 374.930,122.800 374.600 C 122.800 373.981,122.328 373.805,121.878 374.256 M275.600 375.400 C 275.600 375.657,275.840 375.867,276.133 375.867 C 276.427 375.867,276.667 375.657,276.667 375.400 C 276.667 375.143,276.427 374.933,276.133 374.933 C 275.840 374.933,275.600 375.143,275.600 375.400 M131.200 378.600 C 131.200 378.967,131.393 379.202,131.630 379.123 C 131.867 379.045,132.060 378.809,132.060 378.600 C 132.060 378.391,131.867 378.156,131.630 378.077 C 131.393 377.998,131.200 378.233,131.200 378.600 M256.877 382.430 C 256.955 382.667,257.191 382.860,257.400 382.860 C 257.609 382.860,257.845 382.667,257.923 382.430 C 258.002 382.194,257.767 382.000,257.400 382.000 C 257.033 382.000,256.798 382.194,256.877 382.430 M251.400 383.600 C 251.264 383.820,251.276 384.199,251.426 384.443 C 251.695 384.878,252.379 384.211,252.394 383.500 C 252.403 383.062,251.688 383.133,251.400 383.600 M230.400 388.600 C 230.400 388.967,230.594 389.202,230.830 389.123 C 231.067 389.045,231.260 388.809,231.260 388.600 C 231.260 388.391,231.067 388.156,230.830 388.077 C 230.594 387.998,230.400 388.233,230.400 388.600 M174.256 389.078 C 173.805 389.528,173.981 390.000,174.600 390.000 C 174.930 390.000,175.200 389.831,175.200 389.624 C 175.200 389.119,174.575 388.758,174.256 389.078 " stroke="none" fill="#bdc2c6" fill-rule="evenodd"></path><path id="path2" d="M189.826 81.158 C 189.585 81.549,190.783 82.150,191.124 81.809 C 191.239 81.694,191.113 81.600,190.843 81.600 C 190.573 81.600,190.464 81.420,190.600 81.200 C 190.736 80.980,190.667 80.800,190.447 80.800 C 190.227 80.800,189.948 80.961,189.826 81.158 M210.133 81.411 C 210.133 82.103,210.867 82.000,211.108 81.275 C 211.195 81.014,211.012 80.800,210.700 80.800 C 210.388 80.800,210.133 81.075,210.133 81.411 M182.638 81.939 C 182.510 82.146,182.699 82.429,183.060 82.568 C 183.944 82.907,184.150 82.623,183.445 82.038 C 183.103 81.754,182.777 81.714,182.638 81.939 M237.000 86.800 C 236.864 87.020,237.134 87.200,237.600 87.200 C 238.066 87.200,238.336 87.020,238.200 86.800 C 238.064 86.580,237.794 86.400,237.600 86.400 C 237.406 86.400,237.136 86.580,237.000 86.800 M239.200 87.600 C 239.200 87.820,239.560 88.000,240.000 88.000 C 240.440 88.000,240.800 87.820,240.800 87.600 C 240.800 87.380,240.440 87.200,240.000 87.200 C 239.560 87.200,239.200 87.380,239.200 87.600 M276.006 107.900 C 276.024 108.777,276.788 109.359,276.794 108.500 C 276.797 108.005,276.620 107.600,276.400 107.600 C 276.180 107.600,276.003 107.735,276.006 107.900 M283.825 114.600 C 284.667 115.922,285.021 116.310,286.194 117.200 C 287.114 117.898,284.777 114.807,283.745 113.962 C 283.166 113.487,283.178 113.585,283.825 114.600 M186.800 126.400 C 186.800 126.620,187.070 126.800,187.400 126.800 C 187.730 126.800,188.000 126.620,188.000 126.400 C 188.000 126.180,187.730 126.000,187.400 126.000 C 187.070 126.000,186.800 126.180,186.800 126.400 M148.446 145.884 C 148.421 146.151,148.006 146.736,147.525 147.184 C 146.541 148.101,147.001 148.277,148.135 147.417 C 148.555 147.099,148.789 146.548,148.682 146.130 C 148.578 145.729,148.472 145.618,148.446 145.884 M128.310 178.223 C 127.988 178.545,128.428 180.000,128.847 180.000 C 129.347 180.000,129.286 179.300,128.757 178.974 C 128.449 178.783,128.479 178.596,128.857 178.356 C 129.156 178.167,129.205 178.009,128.967 178.006 C 128.728 178.003,128.433 178.100,128.310 178.223 M82.800 178.770 C 83.333 179.152,83.333 179.248,82.800 179.630 C 82.267 180.013,82.267 180.043,82.800 179.897 C 83.130 179.807,83.400 179.493,83.400 179.200 C 83.400 178.907,83.130 178.593,82.800 178.503 C 82.267 178.357,82.267 178.387,82.800 178.770 M272.400 181.000 C 272.400 181.330,272.580 181.600,272.800 181.600 C 273.020 181.600,273.200 181.330,273.200 181.000 C 273.200 180.670,273.020 180.400,272.800 180.400 C 272.580 180.400,272.400 180.670,272.400 181.000 M81.854 182.712 C 81.719 182.931,81.877 183.332,82.204 183.604 C 82.855 184.143,82.991 183.720,82.444 182.857 C 82.235 182.528,82.004 182.471,81.854 182.712 M319.043 187.033 C 318.696 187.936,318.729 188.002,319.400 187.745 C 319.730 187.618,320.000 187.264,320.000 186.957 C 320.000 186.199,319.343 186.251,319.043 187.033 M81.078 189.855 C 80.651 190.283,80.749 190.879,81.200 190.600 C 81.420 190.464,81.600 190.573,81.600 190.843 C 81.600 191.113,81.706 191.227,81.837 191.097 C 81.967 190.967,81.912 190.571,81.715 190.219 C 81.517 189.866,81.231 189.703,81.078 189.855 M274.806 196.076 C 274.818 197.081,275.587 197.908,275.594 196.924 C 275.597 196.442,275.420 195.936,275.200 195.800 C 274.980 195.664,274.803 195.788,274.806 196.076 M275.088 202.933 C 274.642 204.066,274.715 204.645,275.238 204.122 C 275.478 203.882,275.608 203.351,275.526 202.942 C 275.382 202.226,275.366 202.226,275.088 202.933 M80.800 210.700 C 80.800 211.012,81.014 211.195,81.275 211.108 C 82.000 210.867,82.103 210.133,81.411 210.133 C 81.075 210.133,80.800 210.388,80.800 210.700 M256.800 248.400 C 256.800 248.901,257.224 248.901,258.000 248.400 C 258.485 248.086,258.428 248.011,257.700 248.006 C 257.205 248.003,256.800 248.180,256.800 248.400 M145.600 250.704 C 145.600 250.871,145.964 251.235,146.409 251.513 C 147.159 251.981,147.181 251.959,146.713 251.209 C 146.209 250.403,145.600 250.126,145.600 250.704 M288.800 280.400 C 288.315 280.714,288.372 280.789,289.100 280.794 C 289.595 280.797,290.000 280.620,290.000 280.400 C 290.000 279.899,289.576 279.899,288.800 280.400 M115.200 284.676 C 115.200 284.896,115.560 285.402,116.000 285.800 C 116.440 286.198,116.800 286.344,116.800 286.124 C 116.800 285.904,116.440 285.398,116.000 285.000 C 115.560 284.602,115.200 284.456,115.200 284.676 M133.068 299.106 C 133.194 299.605,133.455 300.110,133.648 300.230 C 134.196 300.568,134.062 299.836,133.420 298.976 C 132.860 298.227,132.848 298.232,133.068 299.106 M240.000 313.175 C 240.000 313.381,240.360 313.523,240.800 313.490 C 241.240 313.457,241.600 313.288,241.600 313.115 C 241.600 312.942,241.240 312.800,240.800 312.800 C 240.360 312.800,240.000 312.969,240.000 313.175 M237.881 314.041 C 238.198 314.358,238.532 314.361,239.061 314.054 C 239.709 313.677,239.654 313.623,238.620 313.612 C 237.759 313.603,237.560 313.720,237.881 314.041 M167.427 315.181 C 166.844 315.392,166.781 315.541,167.171 315.782 C 167.473 315.969,167.818 315.895,167.996 315.606 C 168.235 315.220,168.351 315.230,168.520 315.655 C 168.657 315.999,168.748 316.024,168.768 315.724 C 168.813 315.051,168.327 314.854,167.427 315.181 M186.900 319.065 C 186.224 319.338,186.264 320.000,186.957 320.000 C 187.264 320.000,187.618 319.730,187.745 319.400 C 187.980 318.787,187.783 318.709,186.900 319.065 " stroke="none" fill="#acb4b9" fill-rule="evenodd"></path><path id="path3" d="M188.900 81.300 C 188.991 81.575,189.411 81.842,189.833 81.893 C 190.255 81.944,190.374 81.884,190.098 81.759 C 189.821 81.634,189.697 81.367,189.821 81.166 C 189.945 80.965,189.752 80.800,189.390 80.800 C 189.029 80.800,188.808 81.025,188.900 81.300 M211.055 81.400 C 210.915 81.765,211.055 82.000,211.413 82.000 C 211.736 82.000,212.000 81.730,212.000 81.400 C 212.000 81.070,211.839 80.800,211.643 80.800 C 211.446 80.800,211.182 81.070,211.055 81.400 M174.000 83.800 C 174.000 84.130,174.180 84.400,174.400 84.400 C 174.620 84.400,174.800 84.130,174.800 83.800 C 174.800 83.470,174.620 83.200,174.400 83.200 C 174.180 83.200,174.000 83.470,174.000 83.800 M228.092 84.475 C 228.179 84.736,228.464 85.021,228.725 85.108 C 229.018 85.206,229.107 85.023,228.957 84.633 C 228.678 83.906,227.852 83.755,228.092 84.475 M231.300 85.300 C 231.391 85.575,231.799 85.864,232.205 85.943 C 232.883 86.075,232.891 86.034,232.300 85.443 C 231.532 84.675,231.070 84.608,231.300 85.300 M166.047 86.255 C 165.569 86.795,165.591 86.860,166.214 86.739 C 166.610 86.663,167.009 86.375,167.100 86.100 C 167.330 85.410,166.716 85.500,166.047 86.255 M238.162 86.738 C 238.344 87.033,238.113 87.217,237.524 87.246 C 236.781 87.284,236.745 87.330,237.342 87.484 C 238.272 87.723,239.078 87.019,238.373 86.583 C 238.053 86.385,237.978 86.441,238.162 86.738 M150.400 91.600 C 150.400 91.820,150.850 92.000,151.400 92.000 C 151.950 92.000,152.400 91.820,152.400 91.600 C 152.400 91.380,151.950 91.200,151.400 91.200 C 150.850 91.200,150.400 91.380,150.400 91.600 M255.328 94.600 C 255.374 95.040,255.678 95.400,256.005 95.400 C 256.332 95.400,256.816 95.670,257.080 96.000 C 257.480 96.500,257.522 96.448,257.331 95.689 C 257.166 95.035,256.898 94.842,256.383 95.005 C 255.908 95.156,255.594 94.991,255.455 94.517 C 255.284 93.932,255.261 93.947,255.328 94.600 M143.200 95.200 C 143.200 95.420,142.930 95.600,142.600 95.600 C 142.270 95.600,142.000 95.885,142.000 96.233 C 142.000 97.067,142.783 96.780,143.515 95.678 C 143.893 95.109,143.940 94.800,143.649 94.800 C 143.402 94.800,143.200 94.980,143.200 95.200 M260.557 97.033 C 260.691 97.381,260.800 97.831,260.800 98.033 C 260.800 98.235,261.083 98.400,261.429 98.400 C 261.998 98.400,261.998 98.341,261.425 97.768 C 261.077 97.420,260.895 96.970,261.020 96.768 C 261.145 96.565,261.037 96.400,260.781 96.400 C 260.520 96.400,260.421 96.679,260.557 97.033 M134.988 100.020 C 134.607 100.635,135.128 101.032,135.642 100.518 C 135.929 100.231,135.936 100.007,135.662 99.839 C 135.439 99.700,135.135 99.782,134.988 100.020 M272.000 104.800 C 272.000 105.424,273.530 106.800,274.224 106.800 C 274.567 106.800,274.736 106.620,274.600 106.400 C 274.464 106.180,273.991 106.000,273.549 106.000 C 272.928 106.000,272.804 105.819,273.000 105.200 C 273.180 104.632,273.072 104.400,272.627 104.400 C 272.282 104.400,272.000 104.580,272.000 104.800 M127.029 106.461 C 126.683 107.155,126.400 107.825,126.400 107.950 C 126.400 108.297,127.433 106.694,127.721 105.900 C 128.136 104.755,127.706 105.104,127.029 106.461 M122.519 109.453 C 122.658 109.592,122.572 110.087,122.328 110.553 C 121.888 111.392,121.892 111.393,122.742 110.638 C 123.771 109.724,123.841 109.200,122.933 109.200 C 122.567 109.200,122.380 109.314,122.519 109.453 M120.173 111.644 C 119.788 112.267,120.258 112.519,121.014 112.096 C 121.616 111.759,121.620 111.693,121.057 111.477 C 120.710 111.344,120.312 111.419,120.173 111.644 M281.632 112.211 C 281.574 112.960,284.258 116.400,284.901 116.400 C 285.097 116.400,284.991 116.134,284.666 115.809 C 284.341 115.484,283.834 114.674,283.540 114.009 C 283.246 113.344,282.794 112.800,282.536 112.800 C 282.278 112.800,281.976 112.575,281.865 112.300 C 281.754 112.025,281.649 111.985,281.632 112.211 M286.395 117.995 C 287.104 118.658,287.921 119.200,288.209 119.200 C 288.497 119.200,288.824 119.425,288.935 119.700 C 289.046 119.975,289.151 120.009,289.168 119.775 C 289.217 119.120,286.902 117.065,285.952 116.920 C 285.225 116.809,285.287 116.961,286.395 117.995 M111.474 120.300 C 111.378 120.465,111.445 120.960,111.622 121.400 C 111.799 121.840,111.956 121.990,111.972 121.733 C 111.987 121.476,112.109 120.981,112.243 120.633 C 112.482 120.009,111.810 119.718,111.474 120.300 M110.000 122.800 C 109.493 123.240,109.257 123.600,109.477 123.600 C 109.696 123.600,110.202 123.240,110.600 122.800 C 110.998 122.360,111.234 122.000,111.123 122.000 C 111.013 122.000,110.507 122.360,110.000 122.800 M191.600 125.085 C 191.930 125.207,192.429 125.489,192.709 125.710 C 193.090 126.012,193.155 125.948,192.966 125.457 C 192.828 125.095,192.329 124.814,191.857 124.832 C 191.272 124.853,191.190 124.934,191.600 125.085 M209.600 125.077 C 210.150 125.189,210.749 125.488,210.930 125.740 C 211.151 126.048,211.207 126.001,211.100 125.600 C 211.009 125.262,210.429 124.972,209.769 124.937 C 208.762 124.882,208.739 124.901,209.600 125.077 M107.337 125.834 C 107.372 126.230,106.992 126.762,106.493 127.017 C 105.221 127.667,104.974 127.984,105.935 127.733 C 107.157 127.413,108.239 126.079,107.708 125.548 C 107.397 125.237,107.292 125.318,107.337 125.834 M185.467 125.867 C 185.320 126.013,185.203 126.328,185.206 126.567 C 185.210 126.860,185.307 126.853,185.506 126.546 C 185.668 126.297,186.160 126.003,186.600 125.893 C 187.374 125.699,187.373 125.691,186.567 125.646 C 186.108 125.621,185.613 125.720,185.467 125.867 M214.600 125.872 C 215.040 125.993,215.549 126.297,215.730 126.546 C 215.949 126.846,216.006 126.796,215.899 126.400 C 215.810 126.070,215.301 125.767,214.769 125.726 C 214.005 125.668,213.969 125.699,214.600 125.872 M218.484 126.958 C 218.768 127.265,219.138 127.432,219.307 127.330 C 219.764 127.053,219.240 126.400,218.561 126.400 C 218.074 126.400,218.061 126.500,218.484 126.958 M295.000 127.969 C 294.232 128.269,294.237 128.293,295.130 128.577 C 295.642 128.740,296.167 128.767,296.297 128.637 C 296.427 128.506,296.313 128.400,296.043 128.400 C 295.773 128.400,295.664 128.220,295.800 128.000 C 296.081 127.546,296.083 127.546,295.000 127.969 M174.617 129.172 C 174.229 129.800,174.967 129.952,175.516 129.358 C 175.939 128.900,175.926 128.800,175.439 128.800 C 175.114 128.800,174.744 128.968,174.617 129.172 M172.400 130.121 C 172.400 130.538,172.183 130.691,171.800 130.545 C 171.420 130.399,171.200 130.550,171.200 130.957 C 171.200 131.892,172.300 131.746,172.610 130.770 C 172.754 130.313,172.767 129.833,172.637 129.703 C 172.506 129.573,172.400 129.761,172.400 130.121 M297.666 131.150 C 297.241 131.420,297.268 131.540,297.799 131.744 C 298.682 132.083,298.667 132.089,298.667 131.400 C 298.667 130.721,298.435 130.663,297.666 131.150 M231.078 131.456 C 230.758 131.775,231.119 132.400,231.624 132.400 C 231.831 132.400,232.000 132.130,232.000 131.800 C 232.000 131.181,231.528 131.005,231.078 131.456 M101.200 133.100 C 101.200 133.375,101.448 133.600,101.751 133.600 C 102.054 133.600,102.489 133.375,102.717 133.100 C 103.029 132.723,102.893 132.600,102.166 132.600 C 101.635 132.600,101.200 132.825,101.200 133.100 M163.790 134.430 C 163.455 135.487,163.887 135.970,164.261 134.957 C 164.416 134.541,164.735 134.068,164.971 133.906 C 165.232 133.727,165.137 133.610,164.727 133.606 C 164.357 133.603,163.935 133.974,163.790 134.430 M235.600 134.167 C 235.600 134.515,235.885 134.800,236.233 134.800 C 236.940 134.800,236.817 133.939,236.075 133.692 C 235.814 133.605,235.600 133.818,235.600 134.167 M101.232 134.300 C 101.214 134.575,100.840 134.800,100.400 134.800 C 99.956 134.800,99.600 135.067,99.600 135.400 C 99.600 136.140,99.977 136.144,100.942 135.413 C 101.350 135.104,101.589 134.614,101.473 134.325 C 101.316 133.932,101.255 133.926,101.232 134.300 M300.619 136.165 C 301.044 136.475,301.531 136.643,301.702 136.537 C 302.239 136.205,301.591 135.600,300.700 135.600 C 299.868 135.600,299.866 135.614,300.619 136.165 M159.861 136.732 C 159.497 137.135,159.308 137.575,159.442 137.709 C 159.795 138.062,161.200 137.099,161.200 136.504 C 161.200 135.784,160.631 135.881,159.861 136.732 M243.403 138.395 C 243.263 138.622,243.423 138.689,243.779 138.553 C 244.374 138.324,244.579 138.749,244.430 139.900 C 244.394 140.175,244.647 140.400,244.993 140.400 C 245.562 140.400,245.562 140.287,245.000 139.200 C 244.363 137.967,243.832 137.700,243.403 138.395 M154.382 140.434 C 154.136 140.893,154.040 141.373,154.168 141.501 C 154.295 141.629,154.400 141.536,154.400 141.295 C 154.400 141.054,154.683 140.574,155.029 140.229 C 155.374 139.883,155.471 139.600,155.243 139.600 C 155.015 139.600,154.627 139.975,154.382 140.434 M150.000 143.800 C 149.483 144.350,149.174 144.800,149.312 144.800 C 149.450 144.800,150.014 144.350,150.564 143.800 C 151.114 143.250,151.423 142.800,151.252 142.800 C 151.080 142.800,150.517 143.250,150.000 143.800 M252.000 145.818 C 252.000 146.102,253.898 148.000,254.182 148.000 C 254.761 148.000,254.298 146.774,253.511 146.223 C 252.605 145.588,252.000 145.426,252.000 145.818 M146.860 147.051 C 146.343 147.602,145.991 148.125,146.079 148.212 C 146.247 148.381,148.400 146.499,148.400 146.184 C 148.400 145.746,147.731 146.123,146.860 147.051 M308.000 148.776 C 308.000 149.229,308.180 149.600,308.400 149.600 C 308.620 149.600,308.800 149.341,308.800 149.024 C 308.800 148.707,308.620 148.336,308.400 148.200 C 308.180 148.064,308.000 148.323,308.000 148.776 M144.468 149.327 C 143.247 150.627,143.382 150.982,144.624 149.739 C 145.188 149.176,145.578 148.645,145.492 148.559 C 145.407 148.473,144.946 148.819,144.468 149.327 M257.902 151.866 C 258.179 151.977,258.305 152.231,258.182 152.430 C 258.059 152.628,258.267 152.673,258.644 152.528 C 259.194 152.317,259.284 152.436,259.102 153.133 C 258.977 153.610,259.038 154.000,259.237 154.000 C 259.437 154.000,259.600 153.646,259.600 153.214 C 259.600 152.490,258.496 151.557,257.726 151.632 C 257.547 151.649,257.626 151.754,257.902 151.866 M141.100 153.632 C 140.715 153.856,140.400 154.476,140.400 155.010 C 140.400 155.683,140.033 156.169,139.200 156.600 C 138.540 156.941,138.003 157.441,138.006 157.710 C 138.011 158.073,138.098 158.065,138.342 157.680 C 138.524 157.394,139.048 157.132,139.508 157.097 C 139.968 157.062,140.269 156.912,140.177 156.762 C 140.084 156.613,140.258 156.284,140.563 156.031 C 140.868 155.778,141.021 155.204,140.904 154.755 C 140.742 154.134,140.860 153.971,141.404 154.070 C 141.796 154.141,142.196 153.975,142.292 153.700 C 142.501 153.101,142.055 153.076,141.100 153.632 M137.015 159.340 C 136.348 159.827,136.399 159.862,137.538 159.694 C 138.232 159.593,138.800 159.350,138.800 159.155 C 138.800 158.627,137.855 158.725,137.015 159.340 M264.413 161.900 C 264.442 162.583,265.580 163.660,265.999 163.400 C 266.316 163.205,266.245 162.892,265.764 162.360 C 265.064 161.587,264.390 161.357,264.413 161.900 M83.200 174.400 C 83.200 174.620,83.470 174.800,83.800 174.800 C 84.130 174.800,84.400 174.620,84.400 174.400 C 84.400 174.180,84.130 174.000,83.800 174.000 C 83.470 174.000,83.200 174.180,83.200 174.400 M272.640 179.906 C 272.882 180.068,273.183 180.470,273.308 180.800 C 273.461 181.201,273.547 181.101,273.568 180.500 C 273.590 179.895,273.370 179.602,272.900 179.606 C 272.468 179.610,272.369 179.725,272.640 179.906 M127.253 181.600 C 127.192 182.507,127.840 183.382,128.174 182.843 C 128.324 182.599,128.270 182.400,128.053 182.400 C 127.836 182.400,127.576 182.085,127.476 181.700 C 127.346 181.204,127.281 181.175,127.253 181.600 M318.454 188.267 C 318.374 189.546,318.801 190.400,319.519 190.400 C 320.090 190.400,320.088 190.350,319.505 189.900 C 319.148 189.625,318.778 188.950,318.683 188.400 C 318.533 187.536,318.502 187.518,318.454 188.267 M80.800 189.390 C 80.800 189.752,80.965 189.945,81.166 189.821 C 81.367 189.697,81.634 189.821,81.759 190.098 C 81.884 190.374,81.944 190.255,81.893 189.833 C 81.778 188.883,80.800 188.487,80.800 189.390 M125.632 190.276 C 125.614 190.758,125.792 191.271,126.027 191.416 C 126.591 191.765,127.102 191.238,126.548 190.878 C 126.313 190.725,126.017 190.330,125.892 190.000 C 125.736 189.592,125.653 189.680,125.632 190.276 M275.076 192.678 C 275.338 192.865,275.625 194.004,275.713 195.209 L 275.875 197.400 275.837 195.032 C 275.810 193.288,275.642 192.620,275.200 192.501 C 274.781 192.388,274.744 192.442,275.076 192.678 M125.042 196.635 C 124.383 198.351,124.879 204.246,125.642 203.774 C 125.839 203.652,126.000 203.373,126.000 203.153 C 126.000 202.933,125.820 202.864,125.600 203.000 C 125.346 203.157,125.200 202.063,125.200 200.000 C 125.200 197.937,125.346 196.843,125.600 197.000 C 125.820 197.136,126.000 197.067,126.000 196.847 C 126.000 196.140,125.292 195.983,125.042 196.635 M274.812 200.000 C 274.812 202.341,274.933 203.213,275.200 202.800 C 275.413 202.470,275.588 201.210,275.588 200.000 C 275.588 198.790,275.413 197.530,275.200 197.200 C 274.933 196.787,274.812 197.659,274.812 200.000 M319.786 199.312 C 319.442 200.682,319.691 202.102,320.311 202.306 C 320.693 202.432,320.779 202.001,320.648 200.607 C 320.441 198.390,320.134 197.928,319.786 199.312 M275.701 204.200 C 275.705 205.080,275.787 205.393,275.883 204.895 C 275.979 204.398,275.975 203.678,275.875 203.295 C 275.775 202.913,275.696 203.320,275.701 204.200 M125.790 209.230 C 125.646 209.687,125.633 210.167,125.763 210.297 C 125.894 210.427,126.000 210.233,126.000 209.867 C 126.000 209.500,126.180 209.200,126.400 209.200 C 126.620 209.200,126.800 209.020,126.800 208.800 C 126.800 208.070,126.058 208.386,125.790 209.230 M81.300 211.065 C 80.604 211.346,80.673 212.000,81.400 212.000 C 81.730 212.000,82.000 211.730,82.000 211.400 C 82.000 211.070,81.955 210.814,81.900 210.832 C 81.845 210.849,81.575 210.954,81.300 211.065 M127.392 217.624 C 127.246 218.084,127.233 218.567,127.363 218.697 C 127.494 218.827,127.600 218.648,127.600 218.300 C 127.600 217.952,127.816 217.595,128.080 217.507 C 128.430 217.390,128.438 217.271,128.109 217.067 C 127.847 216.905,127.546 217.139,127.392 217.624 M270.000 225.967 C 270.000 226.168,270.225 226.425,270.500 226.536 C 270.876 226.689,270.852 226.844,270.400 227.163 C 270.031 227.425,269.983 227.590,270.276 227.594 C 270.941 227.602,271.248 226.991,270.959 226.236 C 270.697 225.555,270.000 225.359,270.000 225.967 M84.000 228.324 C 84.000 228.539,84.285 228.824,84.633 228.957 C 85.023 229.107,85.206 229.018,85.108 228.725 C 84.909 228.127,84.000 227.798,84.000 228.324 M269.722 228.600 C 269.460 228.885,269.034 229.189,268.777 229.274 C 268.519 229.360,268.391 229.784,268.492 230.215 C 268.674 230.989,268.681 230.989,269.013 230.200 C 269.199 229.760,269.631 229.190,269.975 228.933 C 270.318 228.676,270.509 228.379,270.399 228.273 C 270.290 228.167,269.985 228.314,269.722 228.600 M84.800 231.590 C 84.800 231.842,84.966 231.944,85.170 231.819 C 85.373 231.693,85.625 231.866,85.729 232.203 C 85.876 232.677,85.905 232.663,85.859 232.141 C 85.793 231.388,84.800 230.871,84.800 231.590 M86.000 235.637 C 85.542 235.961,85.520 236.109,85.907 236.266 C 86.186 236.379,86.681 236.738,87.007 237.064 C 87.348 237.405,87.600 237.469,87.600 237.216 C 87.600 236.973,87.320 236.667,86.977 236.536 C 86.634 236.404,86.449 236.050,86.564 235.748 C 86.815 235.095,86.777 235.087,86.000 235.637 M314.102 236.500 C 314.194 236.775,314.000 237.199,313.670 237.442 C 313.327 237.695,313.178 238.167,313.322 238.542 C 313.602 239.270,314.400 239.444,314.400 238.776 C 314.400 238.543,314.220 238.464,314.000 238.600 C 313.780 238.736,313.600 238.579,313.600 238.251 C 313.600 237.922,313.960 237.540,314.400 237.400 C 315.361 237.095,315.436 236.576,314.567 236.243 C 314.164 236.088,313.995 236.182,314.102 236.500 M135.423 237.563 C 135.305 237.753,135.432 238.082,135.704 238.292 C 136.762 239.110,137.200 239.235,137.200 238.720 C 137.200 238.060,135.714 237.093,135.423 237.563 M86.400 238.357 C 86.400 238.554,86.685 238.824,87.033 238.957 C 88.011 239.333,88.108 239.251,87.457 238.600 C 86.777 237.920,86.400 237.833,86.400 238.357 M138.576 243.005 C 139.004 243.332,139.511 243.600,139.703 243.600 C 139.896 243.600,139.945 243.942,139.813 244.360 C 139.645 244.888,139.897 245.376,140.640 245.960 C 141.803 246.875,142.400 247.024,142.400 246.400 C 142.400 246.180,142.117 246.000,141.771 246.000 C 140.818 246.000,140.022 245.003,140.257 244.103 C 140.423 243.470,140.186 243.208,139.133 242.856 C 137.917 242.450,137.868 242.463,138.576 243.005 M261.428 243.728 C 261.659 244.331,260.579 244.958,259.964 244.578 C 259.764 244.454,259.600 244.638,259.600 244.987 C 259.600 245.562,259.710 245.563,260.800 245.000 C 262.033 244.363,262.300 243.832,261.605 243.403 C 261.386 243.267,261.307 243.412,261.428 243.728 M142.800 248.774 C 142.800 249.147,146.430 252.400,146.847 252.400 C 146.992 252.400,148.128 253.660,149.372 255.200 C 150.616 256.740,151.799 258.000,151.999 258.000 C 152.200 258.000,151.967 257.567,151.482 257.038 C 150.018 255.442,149.600 254.855,149.600 254.399 C 149.600 253.830,147.764 252.000,147.195 252.000 C 146.952 252.000,146.867 251.816,147.006 251.590 C 147.145 251.365,147.082 251.230,146.865 251.290 C 146.398 251.420,145.014 250.551,143.723 249.318 C 143.215 248.833,142.800 248.588,142.800 248.774 M94.517 255.455 C 94.991 255.594,95.156 255.908,95.005 256.383 C 94.842 256.898,95.035 257.166,95.689 257.331 C 96.448 257.522,96.500 257.480,96.000 257.080 C 95.670 256.816,95.400 256.332,95.400 256.005 C 95.400 255.678,95.040 255.374,94.600 255.328 C 93.947 255.261,93.932 255.284,94.517 255.455 M248.800 256.633 C 248.800 256.982,249.014 257.195,249.275 257.108 C 250.017 256.861,250.140 256.000,249.433 256.000 C 249.085 256.000,248.800 256.285,248.800 256.633 M248.400 257.971 C 248.400 258.175,248.085 258.424,247.700 258.524 C 247.109 258.679,247.102 258.714,247.651 258.754 C 248.009 258.779,248.526 258.530,248.800 258.200 C 249.144 257.785,249.159 257.600,248.849 257.600 C 248.602 257.600,248.400 257.767,248.400 257.971 M304.392 258.610 C 303.678 259.470,304.188 259.794,305.172 259.105 C 305.624 258.788,305.876 258.409,305.731 258.264 C 305.318 257.851,304.940 257.949,304.392 258.610 M154.000 258.778 C 154.000 259.212,155.968 261.540,155.987 261.129 C 155.994 260.979,155.701 260.558,155.335 260.192 C 154.825 259.683,154.787 259.456,155.169 259.219 C 155.541 258.989,155.498 258.847,155.001 258.656 C 154.118 258.317,154.000 258.331,154.000 258.778 M245.246 259.900 C 245.215 260.518,244.949 260.800,244.400 260.800 C 243.960 260.800,243.600 260.980,243.600 261.200 C 243.600 261.748,244.108 261.701,244.967 261.074 C 245.397 260.759,245.608 260.236,245.490 259.774 C 245.318 259.100,245.287 259.116,245.246 259.900 M156.798 260.900 C 157.034 261.175,157.492 261.760,157.815 262.200 L 158.402 263.000 158.139 262.200 C 157.800 261.169,157.200 260.400,156.735 260.400 C 156.534 260.400,156.562 260.625,156.798 260.900 M242.204 261.593 C 242.066 261.817,242.060 262.000,242.190 262.000 C 242.321 262.000,242.235 262.360,242.000 262.800 C 241.399 263.922,241.778 263.799,242.550 262.621 C 242.905 262.079,243.027 261.540,242.823 261.414 C 242.621 261.289,242.342 261.370,242.204 261.593 M161.692 264.075 C 161.939 264.817,162.800 264.940,162.800 264.233 C 162.800 263.885,162.515 263.600,162.167 263.600 C 161.818 263.600,161.605 263.814,161.692 264.075 M227.417 269.572 C 227.291 269.777,227.370 270.058,227.593 270.196 C 228.071 270.491,228.800 270.117,228.800 269.576 C 228.800 269.090,227.717 269.087,227.417 269.572 M103.713 270.500 C 103.747 271.105,103.915 271.600,104.087 271.600 C 104.471 271.600,104.448 271.242,103.998 270.200 C 103.700 269.510,103.661 269.551,103.713 270.500 M174.006 270.313 C 174.003 270.594,174.282 270.933,174.627 271.066 C 175.329 271.335,176.310 270.577,175.852 270.118 C 175.689 269.956,175.386 270.088,175.178 270.412 C 174.846 270.928,174.752 270.927,174.406 270.400 C 174.130 269.979,174.010 269.953,174.006 270.313 M178.996 272.007 C 178.860 272.226,179.038 272.517,179.392 272.652 C 180.253 272.983,180.443 272.714,179.781 272.104 C 179.439 271.789,179.152 271.753,178.996 272.007 M104.400 272.627 C 104.400 273.072,104.632 273.180,105.200 273.000 C 105.640 272.860,106.000 272.919,106.000 273.130 C 106.000 273.342,106.315 273.624,106.700 273.759 C 107.117 273.905,106.947 273.599,106.278 273.002 C 104.987 271.850,104.400 271.733,104.400 272.627 M187.200 273.600 C 187.200 273.820,186.705 274.014,186.100 274.032 C 185.495 274.049,185.233 274.157,185.517 274.271 C 186.229 274.556,188.000 274.073,188.000 273.592 C 188.000 273.377,187.820 273.200,187.600 273.200 C 187.380 273.200,187.200 273.380,187.200 273.600 M213.057 273.508 C 212.733 274.032,214.429 274.613,215.283 274.271 C 215.567 274.157,215.320 274.049,214.733 274.032 C 214.147 274.014,213.595 273.784,213.507 273.520 C 213.385 273.155,213.277 273.152,213.057 273.508 M192.400 274.400 C 192.400 274.620,192.100 274.800,191.733 274.800 C 191.367 274.800,191.173 274.906,191.303 275.037 C 191.637 275.370,193.200 274.823,193.200 274.373 C 193.200 274.168,193.020 274.000,192.800 274.000 C 192.580 274.000,192.400 274.180,192.400 274.400 M207.600 274.373 C 207.600 274.823,209.163 275.370,209.497 275.037 C 209.627 274.906,209.433 274.800,209.067 274.800 C 208.700 274.800,208.400 274.620,208.400 274.400 C 208.400 274.180,208.220 274.000,208.000 274.000 C 207.780 274.000,207.600 274.168,207.600 274.373 M292.922 275.402 C 292.253 275.999,292.083 276.305,292.500 276.159 C 292.885 276.024,293.200 275.781,293.200 275.618 C 293.200 275.455,293.605 275.127,294.100 274.888 C 294.595 274.649,294.785 274.442,294.522 274.427 C 294.260 274.412,293.540 274.851,292.922 275.402 M289.900 279.429 C 289.295 279.757,288.800 280.093,288.800 280.175 C 288.800 280.518,290.410 279.870,290.836 279.357 C 291.408 278.667,291.286 278.677,289.900 279.429 M112.962 282.862 C 112.785 283.148,112.852 283.215,113.138 283.038 C 113.415 282.867,113.600 283.013,113.600 283.400 C 113.600 283.756,113.761 283.948,113.958 283.826 C 114.155 283.704,114.429 283.899,114.568 284.260 C 114.706 284.620,114.935 284.798,115.077 284.656 C 115.436 284.298,116.800 285.597,116.800 286.298 C 116.800 286.883,118.320 288.363,118.946 288.387 C 119.524 288.409,117.976 286.313,115.929 284.300 C 113.915 282.321,113.439 282.090,112.962 282.862 M284.400 284.692 C 283.617 285.508,283.309 286.036,283.700 285.889 C 284.087 285.743,284.400 285.811,284.400 286.041 C 284.400 286.795,285.459 285.416,285.740 284.296 C 286.083 282.929,286.093 282.926,284.400 284.692 M279.614 289.574 C 279.108 290.520,279.074 291.325,279.552 291.030 C 279.886 290.824,280.436 288.800,280.159 288.800 C 280.087 288.800,279.842 289.148,279.614 289.574 M275.229 293.054 C 274.324 294.204,274.178 294.800,274.800 294.800 C 275.020 294.800,275.200 294.499,275.200 294.131 C 275.200 293.764,275.498 293.134,275.862 292.731 C 276.226 292.329,276.419 292.000,276.291 292.000 C 276.163 292.000,275.685 292.474,275.229 293.054 M127.846 295.423 C 127.716 295.763,127.772 295.941,127.970 295.818 C 128.169 295.695,128.423 295.821,128.534 296.098 C 128.660 296.410,128.749 296.344,128.768 295.924 C 128.811 295.013,128.143 294.650,127.846 295.423 M133.656 299.345 C 133.939 299.975,134.242 300.273,134.331 300.006 C 134.420 299.740,134.189 299.224,133.818 298.861 C 133.186 298.242,133.176 298.273,133.656 299.345 M139.902 303.466 C 140.179 303.577,140.303 303.833,140.179 304.034 C 140.055 304.235,140.143 304.400,140.376 304.400 C 140.609 304.400,140.800 304.130,140.800 303.800 C 140.800 303.470,140.485 303.214,140.100 303.232 C 139.678 303.251,139.599 303.344,139.902 303.466 M145.200 306.586 C 145.200 306.688,145.560 306.965,146.000 307.200 C 146.639 307.542,146.800 307.504,146.800 307.014 C 146.800 306.667,146.453 306.400,146.000 306.400 C 145.560 306.400,145.200 306.484,145.200 306.586 M147.200 307.456 C 147.200 307.841,148.530 308.773,149.100 308.787 C 149.375 308.794,149.600 308.620,149.600 308.400 C 149.600 308.180,149.330 308.000,149.000 308.000 C 148.670 308.000,148.400 307.820,148.400 307.600 C 148.400 307.380,148.130 307.200,147.800 307.200 C 147.470 307.200,147.200 307.315,147.200 307.456 M236.243 314.567 C 236.376 314.915,236.661 315.200,236.876 315.200 C 237.402 315.200,237.073 314.291,236.475 314.092 C 236.182 313.994,236.093 314.177,236.243 314.567 M198.800 319.973 C 198.800 320.491,200.059 320.839,201.527 320.727 C 202.483 320.654,202.663 320.517,202.331 320.116 C 201.842 319.528,198.800 319.405,198.800 319.973 " stroke="none" fill="#a6acb4" fill-rule="evenodd"></path><path id="path4" d="M190.626 81.158 C 190.385 81.549,191.583 82.150,191.924 81.809 C 192.039 81.694,191.913 81.600,191.643 81.600 C 191.373 81.600,191.264 81.420,191.400 81.200 C 191.536 80.980,191.467 80.800,191.247 80.800 C 191.027 80.800,190.748 80.961,190.626 81.158 M216.884 82.215 C 216.222 82.966,216.770 82.949,217.776 82.187 C 218.322 81.774,218.382 81.605,217.976 81.615 C 217.659 81.624,217.168 81.894,216.884 82.215 M150.000 144.371 C 150.000 144.576,149.709 145.034,149.352 145.390 C 148.996 145.747,148.808 146.141,148.933 146.267 C 149.253 146.587,150.176 145.542,150.318 144.700 C 150.382 144.315,150.337 144.000,150.218 144.000 C 150.098 144.000,150.000 144.167,150.000 144.371 M273.200 184.000 C 273.200 184.440,273.380 184.800,273.600 184.800 C 273.820 184.800,274.000 184.440,274.000 184.000 C 274.000 183.560,273.820 183.200,273.600 183.200 C 273.380 183.200,273.200 183.560,273.200 184.000 M81.078 190.655 C 80.651 191.083,80.749 191.679,81.200 191.400 C 81.420 191.264,81.600 191.373,81.600 191.643 C 81.600 191.913,81.706 192.027,81.837 191.897 C 81.967 191.767,81.912 191.371,81.715 191.019 C 81.517 190.666,81.231 190.503,81.078 190.655 M82.100 217.023 C 81.825 217.322,81.600 217.794,81.600 218.072 C 81.600 218.350,81.888 218.166,82.241 217.663 C 82.962 216.633,82.865 216.193,82.100 217.023 M318.178 218.435 C 318.031 218.674,318.090 219.050,318.310 219.270 C 318.576 219.536,318.812 219.504,319.017 219.173 C 319.215 218.853,319.159 218.778,318.862 218.962 C 318.608 219.119,318.400 219.072,318.400 218.857 C 318.400 218.642,318.625 218.376,318.900 218.265 C 319.261 218.119,319.267 218.054,318.924 218.032 C 318.662 218.014,318.326 218.196,318.178 218.435 M140.000 244.743 C 140.000 245.154,141.212 245.722,141.492 245.442 C 141.589 245.344,141.293 245.064,140.834 244.818 C 140.375 244.573,140.000 244.539,140.000 244.743 M258.579 246.766 C 258.703 246.967,258.579 247.223,258.302 247.334 C 257.999 247.456,258.078 247.549,258.500 247.568 C 258.885 247.586,259.200 247.330,259.200 247.000 C 259.200 246.670,259.009 246.400,258.776 246.400 C 258.543 246.400,258.455 246.565,258.579 246.766 M155.238 259.900 C 155.533 260.285,155.813 260.663,155.860 260.740 C 155.908 260.817,156.140 260.761,156.376 260.615 C 156.878 260.304,155.944 259.200,155.180 259.200 C 154.832 259.200,154.848 259.390,155.238 259.900 M218.184 318.427 C 218.039 318.661,218.028 318.961,218.160 319.093 C 218.292 319.225,218.400 319.123,218.400 318.867 C 218.400 318.610,218.591 318.400,218.824 318.400 C 219.057 318.400,219.119 318.608,218.962 318.862 C 218.784 319.150,218.852 319.215,219.145 319.034 C 219.640 318.728,219.397 318.000,218.800 318.000 C 218.606 318.000,218.329 318.192,218.184 318.427 " stroke="none" fill="#b4b4bc" fill-rule="evenodd"></path></g></svg>